<svg version="1.1" xmlns="http://www.w3.org/2000/svg" viewBox="0 0 436.5 551.5" width="436.5" height="551.5">
  <!-- svg-source:excalidraw -->
  
  <defs>
    <style>
      @font-face {
        font-family: "Virgil";
        src: url("https://excalidraw.com/Virgil.woff2");
      }
      @font-face {
        font-family: "Cascadia";
        src: url("https://excalidraw.com/Cascadia.woff2");
      }
    </style>
  </defs>
  <rect x="0" y="0" width="436.5" height="551.5" fill="#ffffff"></rect><g stroke-linecap="round" transform="translate(132 102.5) rotate(0 79.5 49.5)"><path d="M0.95 -0.05 C43.56 0.14, 90.93 -1.61, 159.13 -1.29 M-0.66 0.76 C37.32 -0.86, 72.9 -1.53, 158.77 0.82 M157.98 0.7 C160.46 34.32, 159.89 63.57, 158.05 99.69 M158.06 0.39 C160.1 34.84, 159.96 67.41, 159.86 98.95 M160.36 98.46 C107.65 100.5, 52.34 99.11, 1.36 100.23 M159.67 98.4 C97.78 98.21, 38.09 99.25, 0.25 99.54 M0.27 99.61 C0.18 76.44, -0.56 49.32, -0.92 -0.56 M-0.81 98.21 C0.63 71.34, 0.87 41.76, 0.06 -0.12" stroke="#862e9c" stroke-width="1" fill="none"></path></g><g transform="translate(137 140.5) rotate(0 74.5 11.5)"><text x="74.5" y="17" font-family="Virgil, Segoe UI Emoji" font-size="20px" fill="#862e9c" text-anchor="middle" style="white-space: pre;" direction="ltr">User</text></g><g stroke-linecap="round" transform="translate(129 268.5) rotate(0 79.5 49.5)"><path d="M1.65 1.4 C52.22 -0.47, 102.51 -1.17, 157.81 2 M0.97 -0.52 C34.87 -0.41, 69.07 -1.73, 158.16 -0.78 M157.74 -1.72 C158.06 24.31, 161.3 44.47, 157.51 98.07 M158.27 -0.29 C159.92 34.33, 159.63 67.3, 158.87 98.46 M160.08 99.7 C107.47 99.41, 55.7 101.59, 0.99 97.79 M158.08 99.46 C119 98.38, 79.04 98.54, -0.91 99.47 M-0.57 99.61 C-0.08 64.95, -2.67 32.1, 0.37 1.53 M-0.38 98.22 C0.56 66.45, 0.37 33.66, 0.97 0.92" stroke="#a61e4d" stroke-width="1" fill="none"></path></g><g stroke-linecap="round" transform="translate(144 282.5) rotate(0 79.5 49.5)"><path d="M-0.24 0.68 C58.07 1.77, 113.88 0.12, 159.94 1.53 M-0.38 0.41 C38.68 0.22, 78.08 1.31, 159.58 -0.3 M157.46 0.26 C158.07 22.42, 156.81 44.75, 160.9 99.88 M158.89 0.1 C157.86 35.78, 157.89 70.92, 158.01 99.49 M158.65 99.31 C111.14 96.48, 64.54 98.06, 0.27 99.67 M158.28 98.58 C108.39 99.09, 57.28 98.95, 0.21 99.51 M-0.15 100.26 C-0.22 68.01, -2.33 40.84, -1.57 -0.76 M0.48 98.7 C0.61 68.37, 0.66 38.78, 0.6 -0.94" stroke="#364fc7" stroke-width="1" fill="none"></path></g><g transform="translate(149 320) rotate(0 74.5 11.5)"><text x="74.5" y="17" font-family="Virgil, Segoe UI Emoji" font-size="20px" fill="#364fc7" text-anchor="middle" style="white-space: pre;" direction="ltr">Cart</text></g><g stroke-linecap="round" transform="translate(252.5 428.5) rotate(0 79.5 49.5)"><path d="M-0.95 -1.41 C49.5 -2.81, 95.92 -1.86, 158.67 0.7 M0.04 -0.52 C48.52 0.62, 99.3 1.24, 158.66 -0.56 M159.81 -0.14 C158.77 19.83, 157.2 42.08, 159.4 99.22 M159.14 -0.29 C159.32 25.76, 160.08 53.94, 158.92 99.23 M159.06 97.77 C115.75 100.26, 74.44 101.25, -1.94 100.69 M159.46 98.62 C124.14 99.29, 88.84 100.46, 1 99.68 M-1.41 97.23 C-1.3 75.51, -0.62 54.45, 0.81 1.85 M-0.93 98.75 C-0.1 74.05, -1.36 47.66, -0.86 -0.98" stroke="#364fc7" stroke-width="1" fill="none"></path></g><g stroke-linecap="round" transform="translate(267.5 442.5) rotate(0 79.5 49.5)"><path d="M-1.41 0.74 C31.8 -0.84, 65.89 0.43, 159.7 0.22 M-0.52 -0.95 C43.28 0.28, 87.15 -0.4, 158.44 -0.92 M158.86 0.7 C157.57 19.59, 159.24 41.35, 159.22 98.38 M158.71 0.21 C158.57 31.83, 160.09 61.65, 159.23 98.71 M157.77 98.9 C118.11 100.78, 77.47 97.11, 1.69 97.4 M158.62 99.1 C96.78 99.49, 36.05 100.73, 0.68 98.21 M-1.77 97.42 C-1.52 71.16, -0.64 45.92, 1.85 -0.78 M-0.25 99.79 C0.39 59.93, -0.15 20.93, -0.98 0.07" stroke="#364fc7" stroke-width="1" fill="none"></path></g><g transform="translate(272.5 469) rotate(0 74.5 11.5)"><text x="74.5" y="17" font-family="Virgil, Segoe UI Emoji" font-size="20px" fill="#364fc7" text-anchor="middle" style="white-space: pre;" direction="ltr">Product</text></g><g stroke-linecap="round" transform="translate(11.5 423.5) rotate(0 79.5 49.5)"><path d="M-1.18 0.29 C39.47 -0.78, 84.02 -1.57, 160.09 0.09 M-0.26 0.24 C33.65 -0.56, 66.18 -1.54, 159.92 -0.67 M157.39 -1.16 C160.05 21.78, 158.14 42.49, 158.37 98.04 M158.42 0.9 C158.91 25.8, 158.89 54.1, 159.32 99.24 M158.76 98.29 C98.14 100.1, 37.86 99.39, -0.66 99.98 M159.87 99.1 C112.9 99.8, 68.83 100.91, 0.72 99.4 M-0.95 100.46 C-0.55 69.13, -2.08 37.03, 0 -0.91 M0.86 99.05 C-0.24 62.51, 0.49 26.25, 0.84 -0.04" stroke="#a61e4d" stroke-width="1" fill="none"></path></g><g stroke-linecap="round" transform="translate(26.5 438.5) rotate(0 79.5 49.5)"><path d="M0.29 -1.83 C46.1 2.36, 91.97 2.03, 159.09 -1.79 M0.24 0.21 C45.81 -0.28, 89.74 1.34, 158.33 -0.89 M157.84 1.06 C160.16 28.72, 159.98 58.49, 158.04 98.4 M159.9 -0.01 C157.81 28.9, 159.37 58.17, 159.24 99.86 M158.29 99.49 C103.34 100.38, 46.71 98.16, 0.98 98.7 M159.1 98.18 C102.05 100.76, 46.61 101.1, 0.4 99.05 M1.46 99.37 C0.2 58.93, -1.73 21.18, -0.91 1.38 M0.05 98.8 C0.02 69.4, 0.3 39.58, -0.04 0.87" stroke="#a61e4d" stroke-width="1" fill="none"></path></g><g transform="translate(31.5 465) rotate(0 74.5 11.5)"><text x="74.5" y="17" font-family="Virgil, Segoe UI Emoji" font-size="20px" fill="#a61e4d" text-anchor="middle" style="white-space: pre;" direction="ltr">Product</text></g><g stroke-linecap="round"><g transform="translate(104.5 354) rotate(0 -13.922317212764995 26.838155069947277)"><path d="M-0.78 -0.65 C-5.31 8.53, -23.71 45.21, -28.21 54.33 M1.02 1.62 C-3.54 10.49, -24.02 43.41, -28.86 52.38" stroke="#a61e4d" stroke-width="1" fill="none"></path></g><g transform="translate(104.5 354) rotate(0 -13.922317212764995 26.838155069947277)"><path d="M-24.61 23.8 C-24.31 30.86, -25.88 36.64, -27.97 50.81 M-23.7 21.94 C-25.3 33.74, -27.38 43.5, -28.04 51.52" stroke="#a61e4d" stroke-width="1" fill="none"></path></g><g transform="translate(104.5 354) rotate(0 -13.922317212764995 26.838155069947277)"><path d="M-6.88 34.14 C-10.33 38.86, -15.72 42.42, -27.97 50.81 M-5.97 32.28 C-14.01 40.27, -22.55 46.26, -28.04 51.52" stroke="#a61e4d" stroke-width="1" fill="none"></path></g></g><g stroke-linecap="round"><g transform="translate(318.5 352) rotate(0 13.107244970281613 30.731960463519215)"><path d="M-0.12 -0.13 C4.42 10.19, 23.52 52.44, 27.86 62.71 M-1.65 -1.24 C2.77 8.66, 22.38 50.34, 27.37 60.96" stroke="#364fc7" stroke-width="1" fill="none"></path></g><g transform="translate(318.5 352) rotate(0 13.107244970281613 30.731960463519215)"><path d="M5.88 41.24 C14.82 45.43, 20.14 55.11, 26.7 61.21 M6.04 38.93 C12.11 46.93, 19.38 52.96, 26.52 60.57" stroke="#364fc7" stroke-width="1" fill="none"></path></g><g transform="translate(318.5 352) rotate(0 13.107244970281613 30.731960463519215)"><path d="M24.45 32.52 C26.98 39.72, 25.83 52.44, 26.7 61.21 M24.62 30.21 C24.61 40.86, 25.89 49.7, 26.52 60.57" stroke="#364fc7" stroke-width="1" fill="none"></path></g></g><g stroke-linecap="round"><g transform="translate(206.5 214) rotate(0 -19.847630509734188 22.59309920250439)"><path d="M1.15 0.56 C-5.5 7.7, -34.13 36.71, -40.85 43.89 M0.3 -0.19 C-5.9 7.67, -31.95 37.88, -38.58 45.37" stroke="#862e9c" stroke-width="1" fill="none"></path></g><g transform="translate(206.5 214) rotate(0 -19.847630509734188 22.59309920250439)"><path d="M-26.96 16.21 C-30.22 25.3, -33.03 29.65, -40.46 44.41 M-27.82 16.96 C-30.07 25.31, -33.01 32.12, -37.84 44.55" stroke="#862e9c" stroke-width="1" fill="none"></path></g><g transform="translate(206.5 214) rotate(0 -19.847630509734188 22.59309920250439)"><path d="M-11.63 29.56 C-18.4 35.84, -24.63 37.21, -40.46 44.41 M-12.48 30.32 C-18.93 34.93, -26.13 38.03, -37.84 44.55" stroke="#862e9c" stroke-width="1" fill="none"></path></g></g><g stroke-linecap="round"><g transform="translate(229.5 213) rotate(0 13.617807114799518 32.69562506391668)"><path d="M0.39 0.47 C5.25 11.25, 23.61 53.9, 28.1 64.47 M-0.86 -0.33 C4.03 10.62, 23.13 54.91, 27.73 65.72" stroke="#862e9c" stroke-width="1" fill="none"></path></g><g transform="translate(229.5 213) rotate(0 13.617807114799518 32.69562506391668)"><path d="M7.97 45.69 C10.61 48.94, 13.95 54.01, 29.64 66.13 M6.94 44.71 C12.53 49.88, 20.17 56.12, 27.39 65.22" stroke="#862e9c" stroke-width="1" fill="none"></path></g><g transform="translate(229.5 213) rotate(0 13.617807114799518 32.69562506391668)"><path d="M26.83 37.6 C25.46 42.63, 24.8 49.41, 29.64 66.13 M25.8 36.62 C25.78 44.16, 27.78 52.82, 27.39 65.22" stroke="#862e9c" stroke-width="1" fill="none"></path></g></g><g stroke-linecap="round" transform="translate(168.5 10) rotate(0 42.5 40.5)"><path d="M33.93 0.15 C41.2 -1.61, 52.26 0.63, 59.6 3.52 C66.93 6.41, 73.61 11.7, 77.95 17.51 C82.29 23.32, 85.6 31.04, 85.64 38.37 C85.68 45.71, 82.28 55, 78.17 61.52 C74.06 68.04, 67.49 74.42, 60.96 77.48 C54.43 80.53, 46.61 80.65, 38.99 79.85 C31.37 79.04, 21.31 77.21, 15.26 72.65 C9.21 68.08, 4.89 59.35, 2.71 52.45 C0.54 45.56, 0.42 38.28, 2.21 31.28 C4 24.28, 6.94 15.77, 13.44 10.46 C19.94 5.16, 35.69 1.06, 41.21 -0.56 C46.72 -2.18, 46.69 -0.19, 46.54 0.74 M56.38 1.92 C63.34 3.68, 72.07 9.06, 76.88 14.95 C81.68 20.84, 84.63 29.79, 85.2 37.25 C85.78 44.72, 84.18 53.44, 80.33 59.74 C76.49 66.04, 68.94 71.65, 62.14 75.04 C55.34 78.42, 47.16 80.55, 39.54 80.08 C31.93 79.6, 22.38 76.21, 16.47 72.17 C10.56 68.14, 6.8 62.31, 4.08 55.88 C1.37 49.45, -1.02 40.72, 0.18 33.6 C1.39 26.48, 5.65 18.78, 11.34 13.16 C17.02 7.53, 26.72 1.4, 34.29 -0.17 C41.85 -1.73, 52.88 3.32, 56.73 3.77 C60.58 4.21, 57.54 1.97, 57.38 2.49" stroke="#862e9c" stroke-width="1" fill="none"></path></g><g transform="translate(173.5 39) rotate(0 37.5 11.5)"><text x="37.5" y="17" font-family="Virgil, Segoe UI Emoji" font-size="20px" fill="#862e9c" text-anchor="middle" style="white-space: pre;" direction="ltr">@seed</text></g><g stroke-linecap="round" transform="translate(194.5 66) rotate(0 6.5 8)"><path d="M8.5 2.25 M8.5 2.25 C9.51 3.77, 10.52 5.28, 11.5 6.75 M8.5 2.25 C9.15 3.22, 9.8 4.2, 11.5 6.75 M11.5 6.75 C13 9, 13 9, 11.5 10.75 M11.5 6.75 C13 9, 13 9, 11.5 10.75 M11.5 10.75 C10.6 11.8, 9.69 12.86, 8.5 14.25 M11.5 10.75 C10.53 11.88, 9.57 13, 8.5 14.25 M8.5 14.25 C7 16, 7 16, 5.25 14.25 M8.5 14.25 C7 16, 7 16, 5.25 14.25 M5.25 14.25 C4.48 13.48, 3.71 12.71, 1.75 10.75 M5.25 14.25 C3.91 12.91, 2.58 11.58, 1.75 10.75 M1.75 10.75 C0 9, 0 9, 1.75 6.75 M1.75 10.75 C0 9, 0 9, 1.75 6.75 M1.75 6.75 C2.49 5.8, 3.22 4.86, 5.25 2.25 M1.75 6.75 C2.95 5.21, 4.14 3.68, 5.25 2.25 M5.25 2.25 C7 0, 7 0, 8.5 2.25 M5.25 2.25 C7 0, 7 0, 8.5 2.25" stroke="#495057" stroke-width="1" fill="none"></path></g><g stroke-linecap="round" transform="translate(214 63) rotate(0 6.5 8)"><path d="M8.5 2.25 M8.5 2.25 C9.55 3.82, 10.6 5.39, 11.5 6.75 M8.5 2.25 C9.53 3.8, 10.57 5.35, 11.5 6.75 M11.5 6.75 C13 9, 13 9, 11.5 10.75 M11.5 6.75 C13 9, 13 9, 11.5 10.75 M11.5 10.75 C10.4 12.03, 9.3 13.31, 8.5 14.25 M11.5 10.75 C10.47 11.95, 9.45 13.15, 8.5 14.25 M8.5 14.25 C7 16, 7 16, 5.25 14.25 M8.5 14.25 C7 16, 7 16, 5.25 14.25 M5.25 14.25 C4.22 13.22, 3.18 12.18, 1.75 10.75 M5.25 14.25 C4 13, 2.74 11.74, 1.75 10.75 M1.75 10.75 C0 9, 0 9, 1.75 6.75 M1.75 10.75 C0 9, 0 9, 1.75 6.75 M1.75 6.75 C2.9 5.28, 4.04 3.8, 5.25 2.25 M1.75 6.75 C2.87 5.31, 3.99 3.88, 5.25 2.25 M5.25 2.25 C7 0, 7 0, 8.5 2.25 M5.25 2.25 C7 0, 7 0, 8.5 2.25" stroke="#495057" stroke-width="1" fill="none"></path></g><g stroke-linecap="round" transform="translate(199 20) rotate(0 6.5 8)"><path d="M8.5 2.25 M8.5 2.25 C9.36 3.54, 10.22 4.84, 11.5 6.75 M8.5 2.25 C9.43 3.65, 10.36 5.04, 11.5 6.75 M11.5 6.75 C13 9, 13 9, 11.5 10.75 M11.5 6.75 C13 9, 13 9, 11.5 10.75 M11.5 10.75 C10.64 11.75, 9.79 12.75, 8.5 14.25 M11.5 10.75 C10.51 11.9, 9.53 13.05, 8.5 14.25 M8.5 14.25 C7 16, 7 16, 5.25 14.25 M8.5 14.25 C7 16, 7 16, 5.25 14.25 M5.25 14.25 C3.91 12.91, 2.56 11.56, 1.75 10.75 M5.25 14.25 C4.31 13.31, 3.37 12.37, 1.75 10.75 M1.75 10.75 C0 9, 0 9, 1.75 6.75 M1.75 10.75 C0 9, 0 9, 1.75 6.75 M1.75 6.75 C2.71 5.52, 3.66 4.29, 5.25 2.25 M1.75 6.75 C2.9 5.27, 4.06 3.79, 5.25 2.25 M5.25 2.25 C7 0, 7 0, 8.5 2.25 M5.25 2.25 C7 0, 7 0, 8.5 2.25" stroke="#495057" stroke-width="1" fill="none"></path></g><g stroke-linecap="round" transform="translate(218 24) rotate(0 6.5 8)"><path d="M8.5 2.25 M8.5 2.25 C9.11 3.16, 9.72 4.08, 11.5 6.75 M8.5 2.25 C9.66 3.99, 10.83 5.74, 11.5 6.75 M11.5 6.75 C13 9, 13 9, 11.5 10.75 M11.5 6.75 C13 9, 13 9, 11.5 10.75 M11.5 10.75 C10.85 11.51, 10.19 12.27, 8.5 14.25 M11.5 10.75 C10.44 11.99, 9.38 13.22, 8.5 14.25 M8.5 14.25 C7 16, 7 16, 5.25 14.25 M8.5 14.25 C7 16, 7 16, 5.25 14.25 M5.25 14.25 C3.87 12.87, 2.49 11.49, 1.75 10.75 M5.25 14.25 C4.07 13.07, 2.89 11.89, 1.75 10.75 M1.75 10.75 C0 9, 0 9, 1.75 6.75 M1.75 10.75 C0 9, 0 9, 1.75 6.75 M1.75 6.75 C2.94 5.22, 4.13 3.7, 5.25 2.25 M1.75 6.75 C3.05 5.08, 4.34 3.42, 5.25 2.25 M5.25 2.25 C7 0, 7 0, 8.5 2.25 M5.25 2.25 C7 0, 7 0, 8.5 2.25" stroke="#495057" stroke-width="1" fill="none"></path></g><g stroke-linecap="round" transform="translate(234 50) rotate(0 6.5 8)"><path d="M8.5 2.25 M8.5 2.25 C9.6 3.9, 10.7 5.55, 11.5 6.75 M8.5 2.25 C9.53 3.79, 10.55 5.33, 11.5 6.75 M11.5 6.75 C13 9, 13 9, 11.5 10.75 M11.5 6.75 C13 9, 13 9, 11.5 10.75 M11.5 10.75 C10.61 11.78, 9.73 12.82, 8.5 14.25 M11.5 10.75 C10.43 12, 9.35 13.26, 8.5 14.25 M8.5 14.25 C7 16, 7 16, 5.25 14.25 M8.5 14.25 C7 16, 7 16, 5.25 14.25 M5.25 14.25 C4.1 13.1, 2.96 11.96, 1.75 10.75 M5.25 14.25 C4.13 13.13, 3.01 12.01, 1.75 10.75 M1.75 10.75 C0 9, 0 9, 1.75 6.75 M1.75 10.75 C0 9, 0 9, 1.75 6.75 M1.75 6.75 C2.71 5.51, 3.68 4.27, 5.25 2.25 M1.75 6.75 C2.95 5.21, 4.15 3.67, 5.25 2.25 M5.25 2.25 C7 0, 7 0, 8.5 2.25 M5.25 2.25 C7 0, 7 0, 8.5 2.25" stroke="#495057" stroke-width="1" fill="none"></path></g><g stroke-linecap="round" transform="translate(192 106) rotate(0 6.5 8)"><path d="M8.5 2.25 M8.5 2.25 C9.46 3.7, 10.43 5.14, 11.5 6.75 M8.5 2.25 C9.35 3.53, 10.2 4.8, 11.5 6.75 M11.5 6.75 C13 9, 13 9, 11.5 10.75 M11.5 6.75 C13 9, 13 9, 11.5 10.75 M11.5 10.75 C10.38 12.06, 9.26 13.37, 8.5 14.25 M11.5 10.75 C10.79 11.58, 10.08 12.41, 8.5 14.25 M8.5 14.25 C7 16, 7 16, 5.25 14.25 M8.5 14.25 C7 16, 7 16, 5.25 14.25 M5.25 14.25 C3.85 12.85, 2.46 11.46, 1.75 10.75 M5.25 14.25 C4.53 13.53, 3.81 12.81, 1.75 10.75 M1.75 10.75 C0 9, 0 9, 1.75 6.75 M1.75 10.75 C0 9, 0 9, 1.75 6.75 M1.75 6.75 C2.48 5.81, 3.21 4.87, 5.25 2.25 M1.75 6.75 C2.96 5.19, 4.18 3.63, 5.25 2.25 M5.25 2.25 C7 0, 7 0, 8.5 2.25 M5.25 2.25 C7 0, 7 0, 8.5 2.25" stroke="#495057" stroke-width="1" fill="none"></path></g><g stroke-linecap="round" transform="translate(155 102) rotate(0 6.5 8)"><path d="M8.5 2.25 M8.5 2.25 C9.68 4.02, 10.86 5.79, 11.5 6.75 M8.5 2.25 C9.14 3.2, 9.77 4.16, 11.5 6.75 M11.5 6.75 C13 9, 13 9, 11.5 10.75 M11.5 6.75 C13 9, 13 9, 11.5 10.75 M11.5 10.75 C10.76 11.62, 10.02 12.48, 8.5 14.25 M11.5 10.75 C10.66 11.73, 9.82 12.72, 8.5 14.25 M8.5 14.25 C7 16, 7 16, 5.25 14.25 M8.5 14.25 C7 16, 7 16, 5.25 14.25 M5.25 14.25 C4.32 13.32, 3.38 12.38, 1.75 10.75 M5.25 14.25 C3.91 12.91, 2.56 11.56, 1.75 10.75 M1.75 10.75 C0 9, 0 9, 1.75 6.75 M1.75 10.75 C0 9, 0 9, 1.75 6.75 M1.75 6.75 C2.67 5.57, 3.59 4.39, 5.25 2.25 M1.75 6.75 C2.71 5.51, 3.67 4.28, 5.25 2.25 M5.25 2.25 C7 0, 7 0, 8.5 2.25 M5.25 2.25 C7 0, 7 0, 8.5 2.25" stroke="#495057" stroke-width="1" fill="none"></path></g><g stroke-linecap="round" transform="translate(148 119) rotate(0 6.5 8)"><path d="M8.5 2.25 M8.5 2.25 C9.34 3.52, 10.19 4.78, 11.5 6.75 M8.5 2.25 C9.56 3.85, 10.63 5.44, 11.5 6.75 M11.5 6.75 C13 9, 13 9, 11.5 10.75 M11.5 6.75 C13 9, 13 9, 11.5 10.75 M11.5 10.75 C10.44 11.99, 9.38 13.22, 8.5 14.25 M11.5 10.75 C10.84 11.52, 10.17 12.3, 8.5 14.25 M8.5 14.25 C7 16, 7 16, 5.25 14.25 M8.5 14.25 C7 16, 7 16, 5.25 14.25 M5.25 14.25 C3.99 12.99, 2.72 11.72, 1.75 10.75 M5.25 14.25 C3.88 12.88, 2.51 11.51, 1.75 10.75 M1.75 10.75 C0 9, 0 9, 1.75 6.75 M1.75 10.75 C0 9, 0 9, 1.75 6.75 M1.75 6.75 C3.11 5, 4.48 3.24, 5.25 2.25 M1.75 6.75 C3.11 5, 4.47 3.26, 5.25 2.25 M5.25 2.25 C7 0, 7 0, 8.5 2.25 M5.25 2.25 C7 0, 7 0, 8.5 2.25" stroke="#495057" stroke-width="1" fill="none"></path></g><g stroke-linecap="round" transform="translate(162 131) rotate(0 6.5 8)"><path d="M8.5 2.25 M8.5 2.25 C9.43 3.65, 10.36 5.04, 11.5 6.75 M8.5 2.25 C9.39 3.58, 10.27 4.91, 11.5 6.75 M11.5 6.75 C13 9, 13 9, 11.5 10.75 M11.5 6.75 C13 9, 13 9, 11.5 10.75 M11.5 10.75 C10.51 11.9, 9.53 13.05, 8.5 14.25 M11.5 10.75 C10.58 11.82, 9.66 12.89, 8.5 14.25 M8.5 14.25 C7 16, 7 16, 5.25 14.25 M8.5 14.25 C7 16, 7 16, 5.25 14.25 M5.25 14.25 C4.31 13.31, 3.37 12.37, 1.75 10.75 M5.25 14.25 C4.07 13.07, 2.89 11.89, 1.75 10.75 M1.75 10.75 C0 9, 0 9, 1.75 6.75 M1.75 10.75 C0 9, 0 9, 1.75 6.75 M1.75 6.75 C2.9 5.27, 4.06 3.79, 5.25 2.25 M1.75 6.75 C2.85 5.34, 3.94 3.93, 5.25 2.25 M5.25 2.25 C7 0, 7 0, 8.5 2.25 M5.25 2.25 C7 0, 7 0, 8.5 2.25" stroke="#495057" stroke-width="1" fill="none"></path></g><g stroke-linecap="round" transform="translate(150 165) rotate(0 6.5 8)"><path d="M8.5 2.25 M8.5 2.25 C9.66 3.99, 10.83 5.74, 11.5 6.75 M8.5 2.25 C9.63 3.94, 10.76 5.64, 11.5 6.75 M11.5 6.75 C13 9, 13 9, 11.5 10.75 M11.5 6.75 C13 9, 13 9, 11.5 10.75 M11.5 10.75 C10.44 11.99, 9.38 13.22, 8.5 14.25 M11.5 10.75 C10.63 11.76, 9.77 12.77, 8.5 14.25 M8.5 14.25 C7 16, 7 16, 5.25 14.25 M8.5 14.25 C7 16, 7 16, 5.25 14.25 M5.25 14.25 C4.07 13.07, 2.89 11.89, 1.75 10.75 M5.25 14.25 C3.89 12.89, 2.53 11.53, 1.75 10.75 M1.75 10.75 C0 9, 0 9, 1.75 6.75 M1.75 10.75 C0 9, 0 9, 1.75 6.75 M1.75 6.75 C3.05 5.08, 4.34 3.42, 5.25 2.25 M1.75 6.75 C2.76 5.45, 3.77 4.15, 5.25 2.25 M5.25 2.25 C7 0, 7 0, 8.5 2.25 M5.25 2.25 C7 0, 7 0, 8.5 2.25" stroke="#495057" stroke-width="1" fill="none"></path></g><g stroke-linecap="round" transform="translate(131 191) rotate(0 6.5 8)"><path d="M8.5 2.25 M8.5 2.25 C9.15 3.23, 9.81 4.21, 11.5 6.75 M8.5 2.25 C9.54 3.8, 10.57 5.36, 11.5 6.75 M11.5 6.75 C13 9, 13 9, 11.5 10.75 M11.5 6.75 C13 9, 13 9, 11.5 10.75 M11.5 10.75 C10.88 11.47, 10.26 12.19, 8.5 14.25 M11.5 10.75 C10.54 11.87, 9.58 12.99, 8.5 14.25 M8.5 14.25 C7 16, 7 16, 5.25 14.25 M8.5 14.25 C7 16, 7 16, 5.25 14.25 M5.25 14.25 C4.42 13.42, 3.59 12.59, 1.75 10.75 M5.25 14.25 C4.07 13.07, 2.89 11.89, 1.75 10.75 M1.75 10.75 C0 9, 0 9, 1.75 6.75 M1.75 10.75 C0 9, 0 9, 1.75 6.75 M1.75 6.75 C3.03 5.11, 4.3 3.47, 5.25 2.25 M1.75 6.75 C2.52 5.75, 3.3 4.76, 5.25 2.25 M5.25 2.25 C7 0, 7 0, 8.5 2.25 M5.25 2.25 C7 0, 7 0, 8.5 2.25" stroke="#495057" stroke-width="1" fill="none"></path></g><g stroke-linecap="round" transform="translate(139 206) rotate(0 6.5 8)"><path d="M8.5 2.25 M8.5 2.25 C9.35 3.53, 10.2 4.8, 11.5 6.75 M8.5 2.25 C9.16 3.24, 9.82 4.23, 11.5 6.75 M11.5 6.75 C13 9, 13 9, 11.5 10.75 M11.5 6.75 C13 9, 13 9, 11.5 10.75 M11.5 10.75 C10.79 11.58, 10.08 12.41, 8.5 14.25 M11.5 10.75 C10.63 11.77, 9.76 12.78, 8.5 14.25 M8.5 14.25 C7 16, 7 16, 5.25 14.25 M8.5 14.25 C7 16, 7 16, 5.25 14.25 M5.25 14.25 C4.53 13.53, 3.81 12.81, 1.75 10.75 M5.25 14.25 C4.44 13.44, 3.64 12.64, 1.75 10.75 M1.75 10.75 C0 9, 0 9, 1.75 6.75 M1.75 10.75 C0 9, 0 9, 1.75 6.75 M1.75 6.75 C2.96 5.19, 4.18 3.63, 5.25 2.25 M1.75 6.75 C2.92 5.24, 4.1 3.73, 5.25 2.25 M5.25 2.25 C7 0, 7 0, 8.5 2.25 M5.25 2.25 C7 0, 7 0, 8.5 2.25" stroke="#495057" stroke-width="1" fill="none"></path></g><g stroke-linecap="round" transform="translate(128 242) rotate(0 6.5 8)"><path d="M8.5 2.25 M8.5 2.25 C9.14 3.2, 9.77 4.16, 11.5 6.75 M8.5 2.25 C9.13 3.19, 9.76 4.14, 11.5 6.75 M11.5 6.75 C13 9, 13 9, 11.5 10.75 M11.5 6.75 C13 9, 13 9, 11.5 10.75 M11.5 10.75 C10.66 11.73, 9.82 12.72, 8.5 14.25 M11.5 10.75 C10.68 11.71, 9.86 12.66, 8.5 14.25 M8.5 14.25 C7 16, 7 16, 5.25 14.25 M8.5 14.25 C7 16, 7 16, 5.25 14.25 M5.25 14.25 C3.91 12.91, 2.56 11.56, 1.75 10.75 M5.25 14.25 C3.93 12.93, 2.62 11.62, 1.75 10.75 M1.75 10.75 C0 9, 0 9, 1.75 6.75 M1.75 10.75 C0 9, 0 9, 1.75 6.75 M1.75 6.75 C2.71 5.51, 3.67 4.28, 5.25 2.25 M1.75 6.75 C2.74 5.47, 3.74 4.19, 5.25 2.25 M5.25 2.25 C7 0, 7 0, 8.5 2.25 M5.25 2.25 C7 0, 7 0, 8.5 2.25" stroke="#495057" stroke-width="1" fill="none"></path></g><g stroke-linecap="round" transform="translate(118 290) rotate(0 6.5 8)"><path d="M8.5 2.25 M8.5 2.25 C9.39 3.58, 10.27 4.91, 11.5 6.75 M8.5 2.25 C9.23 3.34, 9.95 4.43, 11.5 6.75 M11.5 6.75 C13 9, 13 9, 11.5 10.75 M11.5 6.75 C13 9, 13 9, 11.5 10.75 M11.5 10.75 C10.58 11.82, 9.66 12.89, 8.5 14.25 M11.5 10.75 C10.44 11.99, 9.38 13.22, 8.5 14.25 M8.5 14.25 C7 16, 7 16, 5.25 14.25 M8.5 14.25 C7 16, 7 16, 5.25 14.25 M5.25 14.25 C4.07 13.07, 2.89 11.89, 1.75 10.75 M5.25 14.25 C4.47 13.47, 3.7 12.7, 1.75 10.75 M1.75 10.75 C0 9, 0 9, 1.75 6.75 M1.75 10.75 C0 9, 0 9, 1.75 6.75 M1.75 6.75 C2.85 5.34, 3.94 3.93, 5.25 2.25 M1.75 6.75 C2.72 5.51, 3.68 4.26, 5.25 2.25 M5.25 2.25 C7 0, 7 0, 8.5 2.25 M5.25 2.25 C7 0, 7 0, 8.5 2.25" stroke="#495057" stroke-width="1" fill="none"></path></g><g stroke-linecap="round" transform="translate(122 324) rotate(0 6.5 8)"><path d="M8.5 2.25 M8.5 2.25 C9.63 3.94, 10.76 5.64, 11.5 6.75 M8.5 2.25 C9.36 3.54, 10.21 4.82, 11.5 6.75 M11.5 6.75 C13 9, 13 9, 11.5 10.75 M11.5 6.75 C13 9, 13 9, 11.5 10.75 M11.5 10.75 C10.63 11.76, 9.77 12.77, 8.5 14.25 M11.5 10.75 C10.35 12.09, 9.2 13.44, 8.5 14.25 M8.5 14.25 C7 16, 7 16, 5.25 14.25 M8.5 14.25 C7 16, 7 16, 5.25 14.25 M5.25 14.25 C3.89 12.89, 2.53 11.53, 1.75 10.75 M5.25 14.25 C4.29 13.29, 3.34 12.34, 1.75 10.75 M1.75 10.75 C0 9, 0 9, 1.75 6.75 M1.75 10.75 C0 9, 0 9, 1.75 6.75 M1.75 6.75 C2.76 5.45, 3.77 4.15, 5.25 2.25 M1.75 6.75 C2.87 5.31, 3.99 3.87, 5.25 2.25 M5.25 2.25 C7 0, 7 0, 8.5 2.25 M5.25 2.25 C7 0, 7 0, 8.5 2.25" stroke="#495057" stroke-width="1" fill="none"></path></g><g stroke-linecap="round" transform="translate(133 345) rotate(0 6.5 8)"><path d="M8.5 2.25 M8.5 2.25 C9.42 3.63, 10.34 5.01, 11.5 6.75 M8.5 2.25 C9.15 3.23, 9.81 4.21, 11.5 6.75 M11.5 6.75 C13 9, 13 9, 11.5 10.75 M11.5 6.75 C13 9, 13 9, 11.5 10.75 M11.5 10.75 C10.9 11.45, 10.3 12.15, 8.5 14.25 M11.5 10.75 C10.32 12.13, 9.13 13.51, 8.5 14.25 M8.5 14.25 C7 16, 7 16, 5.25 14.25 M8.5 14.25 C7 16, 7 16, 5.25 14.25 M5.25 14.25 C4.14 13.14, 3.03 12.03, 1.75 10.75 M5.25 14.25 C4.06 13.06, 2.87 11.87, 1.75 10.75 M1.75 10.75 C0 9, 0 9, 1.75 6.75 M1.75 10.75 C0 9, 0 9, 1.75 6.75 M1.75 6.75 C2.55 5.72, 3.36 4.68, 5.25 2.25 M1.75 6.75 C2.71 5.52, 3.66 4.29, 5.25 2.25 M5.25 2.25 C7 0, 7 0, 8.5 2.25 M5.25 2.25 C7 0, 7 0, 8.5 2.25" stroke="#495057" stroke-width="1" fill="none"></path></g><g stroke-linecap="round" transform="translate(140 290) rotate(0 6.5 8)"><path d="M8.5 2.25 M8.5 2.25 C9.54 3.8, 10.57 5.36, 11.5 6.75 M8.5 2.25 C9.39 3.58, 10.27 4.91, 11.5 6.75 M11.5 6.75 C13 9, 13 9, 11.5 10.75 M11.5 6.75 C13 9, 13 9, 11.5 10.75 M11.5 10.75 C10.54 11.87, 9.58 12.99, 8.5 14.25 M11.5 10.75 C10.52 11.9, 9.54 13.04, 8.5 14.25 M8.5 14.25 C7 16, 7 16, 5.25 14.25 M8.5 14.25 C7 16, 7 16, 5.25 14.25 M5.25 14.25 C4.07 13.07, 2.89 11.89, 1.75 10.75 M5.25 14.25 C4.29 13.29, 3.32 12.32, 1.75 10.75 M1.75 10.75 C0 9, 0 9, 1.75 6.75 M1.75 10.75 C0 9, 0 9, 1.75 6.75 M1.75 6.75 C2.52 5.75, 3.3 4.76, 5.25 2.25 M1.75 6.75 C2.64 5.61, 3.53 4.47, 5.25 2.25 M5.25 2.25 C7 0, 7 0, 8.5 2.25 M5.25 2.25 C7 0, 7 0, 8.5 2.25" stroke="#495057" stroke-width="1" fill="none"></path></g><g stroke-linecap="round" transform="translate(94 361) rotate(0 6.5 8)"><path d="M8.5 2.25 M8.5 2.25 C9.13 3.19, 9.76 4.14, 11.5 6.75 M8.5 2.25 C9.62 3.93, 10.74 5.61, 11.5 6.75 M11.5 6.75 C13 9, 13 9, 11.5 10.75 M11.5 6.75 C13 9, 13 9, 11.5 10.75 M11.5 10.75 C10.68 11.71, 9.86 12.66, 8.5 14.25 M11.5 10.75 C10.3 12.15, 9.11 13.54, 8.5 14.25 M8.5 14.25 C7 16, 7 16, 5.25 14.25 M8.5 14.25 C7 16, 7 16, 5.25 14.25 M5.25 14.25 C3.93 12.93, 2.62 11.62, 1.75 10.75 M5.25 14.25 C4.52 13.52, 3.79 12.79, 1.75 10.75 M1.75 10.75 C0 9, 0 9, 1.75 6.75 M1.75 10.75 C0 9, 0 9, 1.75 6.75 M1.75 6.75 C2.74 5.47, 3.74 4.19, 5.25 2.25 M1.75 6.75 C2.94 5.22, 4.13 3.69, 5.25 2.25 M5.25 2.25 C7 0, 7 0, 8.5 2.25 M5.25 2.25 C7 0, 7 0, 8.5 2.25" stroke="#495057" stroke-width="1" fill="none"></path></g><g stroke-linecap="round" transform="translate(93 396) rotate(0 6.5 8)"><path d="M8.5 2.25 M8.5 2.25 C9.62 3.92, 10.73 5.6, 11.5 6.75 M8.5 2.25 C9.24 3.36, 9.98 4.48, 11.5 6.75 M11.5 6.75 C13 9, 13 9, 11.5 10.75 M11.5 6.75 C13 9, 13 9, 11.5 10.75 M11.5 10.75 C10.47 11.95, 9.44 13.15, 8.5 14.25 M11.5 10.75 C10.7 11.68, 9.9 12.62, 8.5 14.25 M8.5 14.25 C7 16, 7 16, 5.25 14.25 M8.5 14.25 C7 16, 7 16, 5.25 14.25 M5.25 14.25 C4.21 13.21, 3.17 12.17, 1.75 10.75 M5.25 14.25 C4.33 13.33, 3.41 12.41, 1.75 10.75 M1.75 10.75 C0 9, 0 9, 1.75 6.75 M1.75 10.75 C0 9, 0 9, 1.75 6.75 M1.75 6.75 C2.9 5.27, 4.05 3.79, 5.25 2.25 M1.75 6.75 C2.48 5.81, 3.21 4.87, 5.25 2.25 M5.25 2.25 C7 0, 7 0, 8.5 2.25 M5.25 2.25 C7 0, 7 0, 8.5 2.25" stroke="#495057" stroke-width="1" fill="none"></path></g><g stroke-linecap="round" transform="translate(75 415) rotate(0 6.5 8)"><path d="M8.5 2.25 M8.5 2.25 C9.23 3.34, 9.95 4.43, 11.5 6.75 M8.5 2.25 C9.56 3.84, 10.62 5.43, 11.5 6.75 M11.5 6.75 C13 9, 13 9, 11.5 10.75 M11.5 6.75 C13 9, 13 9, 11.5 10.75 M11.5 10.75 C10.44 11.99, 9.38 13.22, 8.5 14.25 M11.5 10.75 C10.42 12.01, 9.33 13.28, 8.5 14.25 M8.5 14.25 C7 16, 7 16, 5.25 14.25 M8.5 14.25 C7 16, 7 16, 5.25 14.25 M5.25 14.25 C4.47 13.47, 3.7 12.7, 1.75 10.75 M5.25 14.25 C3.89 12.89, 2.52 11.52, 1.75 10.75 M1.75 10.75 C0 9, 0 9, 1.75 6.75 M1.75 10.75 C0 9, 0 9, 1.75 6.75 M1.75 6.75 C2.72 5.51, 3.68 4.26, 5.25 2.25 M1.75 6.75 C2.71 5.52, 3.66 4.29, 5.25 2.25 M5.25 2.25 C7 0, 7 0, 8.5 2.25 M5.25 2.25 C7 0, 7 0, 8.5 2.25" stroke="#495057" stroke-width="1" fill="none"></path></g><g stroke-linecap="round" transform="translate(42 426) rotate(0 6.5 8)"><path d="M8.5 2.25 M8.5 2.25 C9.36 3.54, 10.21 4.82, 11.5 6.75 M8.5 2.25 C9.49 3.73, 10.47 5.21, 11.5 6.75 M11.5 6.75 C13 9, 13 9, 11.5 10.75 M11.5 6.75 C13 9, 13 9, 11.5 10.75 M11.5 10.75 C10.35 12.09, 9.2 13.44, 8.5 14.25 M11.5 10.75 C10.69 11.69, 9.89 12.63, 8.5 14.25 M8.5 14.25 C7 16, 7 16, 5.25 14.25 M8.5 14.25 C7 16, 7 16, 5.25 14.25 M5.25 14.25 C4.29 13.29, 3.34 12.34, 1.75 10.75 M5.25 14.25 C4.1 13.1, 2.94 11.94, 1.75 10.75 M1.75 10.75 C0 9, 0 9, 1.75 6.75 M1.75 10.75 C0 9, 0 9, 1.75 6.75 M1.75 6.75 C2.87 5.31, 3.99 3.87, 5.25 2.25 M1.75 6.75 C2.63 5.62, 3.51 4.49, 5.25 2.25 M5.25 2.25 C7 0, 7 0, 8.5 2.25 M5.25 2.25 C7 0, 7 0, 8.5 2.25" stroke="#495057" stroke-width="1" fill="none"></path></g><g stroke-linecap="round" transform="translate(106 435) rotate(0 6.5 8)"><path d="M8.5 2.25 M8.5 2.25 C9.15 3.23, 9.81 4.21, 11.5 6.75 M8.5 2.25 C9.56 3.84, 10.62 5.43, 11.5 6.75 M11.5 6.75 C13 9, 13 9, 11.5 10.75 M11.5 6.75 C13 9, 13 9, 11.5 10.75 M11.5 10.75 C10.32 12.13, 9.13 13.51, 8.5 14.25 M11.5 10.75 C10.49 11.93, 9.48 13.11, 8.5 14.25 M8.5 14.25 C7 16, 7 16, 5.25 14.25 M8.5 14.25 C7 16, 7 16, 5.25 14.25 M5.25 14.25 C4.06 13.06, 2.87 11.87, 1.75 10.75 M5.25 14.25 C3.95 12.95, 2.66 11.66, 1.75 10.75 M1.75 10.75 C0 9, 0 9, 1.75 6.75 M1.75 10.75 C0 9, 0 9, 1.75 6.75 M1.75 6.75 C2.71 5.52, 3.66 4.29, 5.25 2.25 M1.75 6.75 C2.66 5.58, 3.57 4.41, 5.25 2.25 M5.25 2.25 C7 0, 7 0, 8.5 2.25 M5.25 2.25 C7 0, 7 0, 8.5 2.25" stroke="#495057" stroke-width="1" fill="none"></path></g><g stroke-linecap="round" transform="translate(132 459) rotate(0 6.5 8)"><path d="M8.5 2.25 M8.5 2.25 C9.39 3.58, 10.27 4.91, 11.5 6.75 M8.5 2.25 C9.57 3.86, 10.65 5.47, 11.5 6.75 M11.5 6.75 C13 9, 13 9, 11.5 10.75 M11.5 6.75 C13 9, 13 9, 11.5 10.75 M11.5 10.75 C10.52 11.9, 9.54 13.04, 8.5 14.25 M11.5 10.75 C10.54 11.87, 9.58 12.99, 8.5 14.25 M8.5 14.25 C7 16, 7 16, 5.25 14.25 M8.5 14.25 C7 16, 7 16, 5.25 14.25 M5.25 14.25 C4.29 13.29, 3.32 12.32, 1.75 10.75 M5.25 14.25 C4.05 13.05, 2.85 11.85, 1.75 10.75 M1.75 10.75 C0 9, 0 9, 1.75 6.75 M1.75 10.75 C0 9, 0 9, 1.75 6.75 M1.75 6.75 C2.64 5.61, 3.53 4.47, 5.25 2.25 M1.75 6.75 C2.65 5.6, 3.54 4.45, 5.25 2.25 M5.25 2.25 C7 0, 7 0, 8.5 2.25 M5.25 2.25 C7 0, 7 0, 8.5 2.25" stroke="#495057" stroke-width="1" fill="none"></path></g><g stroke-linecap="round" transform="translate(110 425) rotate(0 6.5 8)"><path d="M8.5 2.25 M8.5 2.25 C9.66 3.99, 10.82 5.72, 11.5 6.75 M8.5 2.25 C9.12 3.18, 9.74 4.11, 11.5 6.75 M11.5 6.75 C13 9, 13 9, 11.5 10.75 M11.5 6.75 C13 9, 13 9, 11.5 10.75 M11.5 10.75 C10.81 11.55, 10.13 12.35, 8.5 14.25 M11.5 10.75 C10.79 11.58, 10.08 12.41, 8.5 14.25 M8.5 14.25 C7 16, 7 16, 5.25 14.25 M8.5 14.25 C7 16, 7 16, 5.25 14.25 M5.25 14.25 C4.12 13.12, 3 12, 1.75 10.75 M5.25 14.25 C3.97 12.97, 2.7 11.7, 1.75 10.75 M1.75 10.75 C0 9, 0 9, 1.75 6.75 M1.75 10.75 C0 9, 0 9, 1.75 6.75 M1.75 6.75 C3.15 4.95, 4.55 3.15, 5.25 2.25 M1.75 6.75 C2.6 5.65, 3.45 4.56, 5.25 2.25 M5.25 2.25 C7 0, 7 0, 8.5 2.25 M5.25 2.25 C7 0, 7 0, 8.5 2.25" stroke="#495057" stroke-width="1" fill="none"></path></g><g stroke-linecap="round" transform="translate(10 456) rotate(0 6.5 8)"><path d="M8.5 2.25 M8.5 2.25 C9.56 3.84, 10.62 5.43, 11.5 6.75 M8.5 2.25 C9.16 3.24, 9.83 4.24, 11.5 6.75 M11.5 6.75 C13 9, 13 9, 11.5 10.75 M11.5 6.75 C13 9, 13 9, 11.5 10.75 M11.5 10.75 C10.42 12.01, 9.33 13.28, 8.5 14.25 M11.5 10.75 C10.32 12.12, 9.15 13.49, 8.5 14.25 M8.5 14.25 C7 16, 7 16, 5.25 14.25 M8.5 14.25 C7 16, 7 16, 5.25 14.25 M5.25 14.25 C3.89 12.89, 2.52 11.52, 1.75 10.75 M5.25 14.25 C3.89 12.89, 2.53 11.53, 1.75 10.75 M1.75 10.75 C0 9, 0 9, 1.75 6.75 M1.75 10.75 C0 9, 0 9, 1.75 6.75 M1.75 6.75 C2.71 5.52, 3.66 4.29, 5.25 2.25 M1.75 6.75 C3.13 4.98, 4.5 3.21, 5.25 2.25 M5.25 2.25 C7 0, 7 0, 8.5 2.25 M5.25 2.25 C7 0, 7 0, 8.5 2.25" stroke="#495057" stroke-width="1" fill="none"></path></g><g stroke-linecap="round" transform="translate(247 77) rotate(0 6.5 8)"><path d="M8.5 2.25 M8.5 2.25 C9.12 3.18, 9.74 4.11, 11.5 6.75 M8.5 2.25 C9.46 3.69, 10.42 5.14, 11.5 6.75 M11.5 6.75 C13 9, 13 9, 11.5 10.75 M11.5 6.75 C13 9, 13 9, 11.5 10.75 M11.5 10.75 C10.79 11.58, 10.08 12.41, 8.5 14.25 M11.5 10.75 C10.49 11.93, 9.48 13.11, 8.5 14.25 M8.5 14.25 C7 16, 7 16, 5.25 14.25 M8.5 14.25 C7 16, 7 16, 5.25 14.25 M5.25 14.25 C3.97 12.97, 2.7 11.7, 1.75 10.75 M5.25 14.25 C4.48 13.48, 3.7 12.7, 1.75 10.75 M1.75 10.75 C0 9, 0 9, 1.75 6.75 M1.75 10.75 C0 9, 0 9, 1.75 6.75 M1.75 6.75 C2.6 5.65, 3.45 4.56, 5.25 2.25 M1.75 6.75 C2.49 5.8, 3.22 4.85, 5.25 2.25 M5.25 2.25 C7 0, 7 0, 8.5 2.25 M5.25 2.25 C7 0, 7 0, 8.5 2.25" stroke="#495057" stroke-width="1" fill="none"></path></g><g stroke-linecap="round" transform="translate(263 117) rotate(0 6.5 8)"><path d="M8.5 2.25 M8.5 2.25 C9.21 3.32, 9.92 4.39, 11.5 6.75 M8.5 2.25 C9.37 3.56, 10.24 4.86, 11.5 6.75 M11.5 6.75 C13 9, 13 9, 11.5 10.75 M11.5 6.75 C13 9, 13 9, 11.5 10.75 M11.5 10.75 C10.88 11.47, 10.26 12.19, 8.5 14.25 M11.5 10.75 C10.81 11.56, 10.12 12.36, 8.5 14.25 M8.5 14.25 C7 16, 7 16, 5.25 14.25 M8.5 14.25 C7 16, 7 16, 5.25 14.25 M5.25 14.25 C4.04 13.04, 2.82 11.82, 1.75 10.75 M5.25 14.25 C4.08 13.08, 2.9 11.9, 1.75 10.75 M1.75 10.75 C0 9, 0 9, 1.75 6.75 M1.75 10.75 C0 9, 0 9, 1.75 6.75 M1.75 6.75 C2.81 5.39, 3.86 4.03, 5.25 2.25 M1.75 6.75 C2.45 5.85, 3.15 4.95, 5.25 2.25 M5.25 2.25 C7 0, 7 0, 8.5 2.25 M5.25 2.25 C7 0, 7 0, 8.5 2.25" stroke="#495057" stroke-width="1" fill="none"></path></g><g stroke-linecap="round" transform="translate(268 163) rotate(0 6.5 8)"><path d="M8.5 2.25 M8.5 2.25 C9.16 3.24, 9.83 4.24, 11.5 6.75 M8.5 2.25 C9.53 3.79, 10.56 5.33, 11.5 6.75 M11.5 6.75 C13 9, 13 9, 11.5 10.75 M11.5 6.75 C13 9, 13 9, 11.5 10.75 M11.5 10.75 C10.32 12.12, 9.15 13.49, 8.5 14.25 M11.5 10.75 C10.61 11.79, 9.72 12.83, 8.5 14.25 M8.5 14.25 C7 16, 7 16, 5.25 14.25 M8.5 14.25 C7 16, 7 16, 5.25 14.25 M5.25 14.25 C3.89 12.89, 2.53 11.53, 1.75 10.75 M5.25 14.25 C4.1 13.1, 2.95 11.95, 1.75 10.75 M1.75 10.75 C0 9, 0 9, 1.75 6.75 M1.75 10.75 C0 9, 0 9, 1.75 6.75 M1.75 6.75 C3.13 4.98, 4.5 3.21, 5.25 2.25 M1.75 6.75 C2.64 5.6, 3.53 4.46, 5.25 2.25 M5.25 2.25 C7 0, 7 0, 8.5 2.25 M5.25 2.25 C7 0, 7 0, 8.5 2.25" stroke="#495057" stroke-width="1" fill="none"></path></g><g stroke-linecap="round" transform="translate(257 89) rotate(0 6.5 8)"><path d="M8.5 2.25 M8.5 2.25 C9.42 3.63, 10.34 5.01, 11.5 6.75 M8.5 2.25 C9.56 3.84, 10.62 5.43, 11.5 6.75 M11.5 6.75 C13 9, 13 9, 11.5 10.75 M11.5 6.75 C13 9, 13 9, 11.5 10.75 M11.5 10.75 C10.49 11.93, 9.48 13.11, 8.5 14.25 M11.5 10.75 C10.84 11.53, 10.17 12.3, 8.5 14.25 M8.5 14.25 C7 16, 7 16, 5.25 14.25 M8.5 14.25 C7 16, 7 16, 5.25 14.25 M5.25 14.25 C4.15 13.15, 3.06 12.06, 1.75 10.75 M5.25 14.25 C4.28 13.28, 3.32 12.32, 1.75 10.75 M1.75 10.75 C0 9, 0 9, 1.75 6.75 M1.75 10.75 C0 9, 0 9, 1.75 6.75 M1.75 6.75 C2.48 5.81, 3.21 4.87, 5.25 2.25 M1.75 6.75 C2.84 5.35, 3.93 3.95, 5.25 2.25 M5.25 2.25 C7 0, 7 0, 8.5 2.25 M5.25 2.25 C7 0, 7 0, 8.5 2.25" stroke="#495057" stroke-width="1" fill="none"></path></g><g stroke-linecap="round" transform="translate(261 190) rotate(0 6.5 8)"><path d="M8.5 2.25 M8.5 2.25 C9.1 3.15, 9.7 4.05, 11.5 6.75 M8.5 2.25 C9.68 4.02, 10.87 5.8, 11.5 6.75 M11.5 6.75 C13 9, 13 9, 11.5 10.75 M11.5 6.75 C13 9, 13 9, 11.5 10.75 M11.5 10.75 C10.55 11.86, 9.6 12.97, 8.5 14.25 M11.5 10.75 C10.48 11.94, 9.46 13.13, 8.5 14.25 M8.5 14.25 C7 16, 7 16, 5.25 14.25 M8.5 14.25 C7 16, 7 16, 5.25 14.25 M5.25 14.25 C4.45 13.45, 3.64 12.64, 1.75 10.75 M5.25 14.25 C4.29 13.29, 3.34 12.34, 1.75 10.75 M1.75 10.75 C0 9, 0 9, 1.75 6.75 M1.75 10.75 C0 9, 0 9, 1.75 6.75 M1.75 6.75 C3.1 5.01, 4.45 3.28, 5.25 2.25 M1.75 6.75 C2.99 5.16, 4.22 3.57, 5.25 2.25 M5.25 2.25 C7 0, 7 0, 8.5 2.25 M5.25 2.25 C7 0, 7 0, 8.5 2.25" stroke="#495057" stroke-width="1" fill="none"></path></g><g stroke-linecap="round" transform="translate(256 219) rotate(0 6.5 8)"><path d="M8.5 2.25 M8.5 2.25 C9.46 3.69, 10.42 5.14, 11.5 6.75 M8.5 2.25 C9.48 3.72, 10.46 5.2, 11.5 6.75 M11.5 6.75 C13 9, 13 9, 11.5 10.75 M11.5 6.75 C13 9, 13 9, 11.5 10.75 M11.5 10.75 C10.49 11.93, 9.48 13.11, 8.5 14.25 M11.5 10.75 C10.67 11.71, 9.85 12.68, 8.5 14.25 M8.5 14.25 C7 16, 7 16, 5.25 14.25 M8.5 14.25 C7 16, 7 16, 5.25 14.25 M5.25 14.25 C4.48 13.48, 3.7 12.7, 1.75 10.75 M5.25 14.25 C4.36 13.36, 3.47 12.47, 1.75 10.75 M1.75 10.75 C0 9, 0 9, 1.75 6.75 M1.75 10.75 C0 9, 0 9, 1.75 6.75 M1.75 6.75 C2.49 5.8, 3.22 4.85, 5.25 2.25 M1.75 6.75 C2.97 5.18, 4.19 3.61, 5.25 2.25 M5.25 2.25 C7 0, 7 0, 8.5 2.25 M5.25 2.25 C7 0, 7 0, 8.5 2.25" stroke="#495057" stroke-width="1" fill="none"></path></g><g stroke-linecap="round" transform="translate(259 272) rotate(0 6.5 8)"><path d="M8.5 2.25 M8.5 2.25 C9.37 3.56, 10.24 4.86, 11.5 6.75 M8.5 2.25 C9.19 3.28, 9.87 4.31, 11.5 6.75 M11.5 6.75 C13 9, 13 9, 11.5 10.75 M11.5 6.75 C13 9, 13 9, 11.5 10.75 M11.5 10.75 C10.81 11.56, 10.12 12.36, 8.5 14.25 M11.5 10.75 C10.53 11.88, 9.57 13, 8.5 14.25 M8.5 14.25 C7 16, 7 16, 5.25 14.25 M8.5 14.25 C7 16, 7 16, 5.25 14.25 M5.25 14.25 C4.08 13.08, 2.9 11.9, 1.75 10.75 M5.25 14.25 C3.85 12.85, 2.45 11.45, 1.75 10.75 M1.75 10.75 C0 9, 0 9, 1.75 6.75 M1.75 10.75 C0 9, 0 9, 1.75 6.75 M1.75 6.75 C2.45 5.85, 3.15 4.95, 5.25 2.25 M1.75 6.75 C2.84 5.35, 3.93 3.95, 5.25 2.25 M5.25 2.25 C7 0, 7 0, 8.5 2.25 M5.25 2.25 C7 0, 7 0, 8.5 2.25" stroke="#495057" stroke-width="1" fill="none"></path></g><g stroke-linecap="round" transform="translate(285 298) rotate(0 6.5 8)"><path d="M8.5 2.25 M8.5 2.25 C9.32 3.48, 10.14 4.71, 11.5 6.75 M8.5 2.25 C9.7 4.05, 10.89 5.84, 11.5 6.75 M11.5 6.75 C13 9, 13 9, 11.5 10.75 M11.5 6.75 C13 9, 13 9, 11.5 10.75 M11.5 10.75 C10.37 12.07, 9.24 13.38, 8.5 14.25 M11.5 10.75 C10.87 11.48, 10.24 12.21, 8.5 14.25 M8.5 14.25 C7 16, 7 16, 5.25 14.25 M8.5 14.25 C7 16, 7 16, 5.25 14.25 M5.25 14.25 C4.26 13.26, 3.26 12.26, 1.75 10.75 M5.25 14.25 C4.06 13.06, 2.87 11.87, 1.75 10.75 M1.75 10.75 C0 9, 0 9, 1.75 6.75 M1.75 10.75 C0 9, 0 9, 1.75 6.75 M1.75 6.75 C2.97 5.18, 4.2 3.6, 5.25 2.25 M1.75 6.75 C2.89 5.28, 4.04 3.81, 5.25 2.25 M5.25 2.25 C7 0, 7 0, 8.5 2.25 M5.25 2.25 C7 0, 7 0, 8.5 2.25" stroke="#495057" stroke-width="1" fill="none"></path></g><g stroke-linecap="round" transform="translate(266 336) rotate(0 6.5 8)"><path d="M8.5 2.25 M8.5 2.25 C9.53 3.79, 10.56 5.33, 11.5 6.75 M8.5 2.25 C9.3 3.45, 10.1 4.65, 11.5 6.75 M11.5 6.75 C13 9, 13 9, 11.5 10.75 M11.5 6.75 C13 9, 13 9, 11.5 10.75 M11.5 10.75 C10.61 11.79, 9.72 12.83, 8.5 14.25 M11.5 10.75 C10.71 11.67, 9.93 12.59, 8.5 14.25 M8.5 14.25 C7 16, 7 16, 5.25 14.25 M8.5 14.25 C7 16, 7 16, 5.25 14.25 M5.25 14.25 C4.1 13.1, 2.95 11.95, 1.75 10.75 M5.25 14.25 C4.52 13.52, 3.79 12.79, 1.75 10.75 M1.75 10.75 C0 9, 0 9, 1.75 6.75 M1.75 10.75 C0 9, 0 9, 1.75 6.75 M1.75 6.75 C2.64 5.6, 3.53 4.46, 5.25 2.25 M1.75 6.75 C3.04 5.09, 4.33 3.44, 5.25 2.25 M5.25 2.25 C7 0, 7 0, 8.5 2.25 M5.25 2.25 C7 0, 7 0, 8.5 2.25" stroke="#495057" stroke-width="1" fill="none"></path></g><g stroke-linecap="round" transform="translate(158 325) rotate(0 6.5 8)"><path d="M8.5 2.25 M8.5 2.25 C9.56 3.84, 10.62 5.43, 11.5 6.75 M8.5 2.25 C9.58 3.87, 10.67 5.5, 11.5 6.75 M11.5 6.75 C13 9, 13 9, 11.5 10.75 M11.5 6.75 C13 9, 13 9, 11.5 10.75 M11.5 10.75 C10.84 11.53, 10.17 12.3, 8.5 14.25 M11.5 10.75 C10.33 12.11, 9.16 13.48, 8.5 14.25 M8.5 14.25 C7 16, 7 16, 5.25 14.25 M8.5 14.25 C7 16, 7 16, 5.25 14.25 M5.25 14.25 C4.28 13.28, 3.32 12.32, 1.75 10.75 M5.25 14.25 C4.29 13.29, 3.34 12.34, 1.75 10.75 M1.75 10.75 C0 9, 0 9, 1.75 6.75 M1.75 10.75 C0 9, 0 9, 1.75 6.75 M1.75 6.75 C2.84 5.35, 3.93 3.95, 5.25 2.25 M1.75 6.75 C2.69 5.54, 3.63 4.33, 5.25 2.25 M5.25 2.25 C7 0, 7 0, 8.5 2.25 M5.25 2.25 C7 0, 7 0, 8.5 2.25" stroke="#495057" stroke-width="1" fill="none"></path></g><g stroke-linecap="round" transform="translate(176 298) rotate(0 6.5 8)"><path d="M8.5 2.25 M8.5 2.25 C9.65 3.98, 10.8 5.7, 11.5 6.75 M8.5 2.25 C9.31 3.46, 10.11 4.67, 11.5 6.75 M11.5 6.75 C13 9, 13 9, 11.5 10.75 M11.5 6.75 C13 9, 13 9, 11.5 10.75 M11.5 10.75 C10.68 11.71, 9.86 12.66, 8.5 14.25 M11.5 10.75 C10.51 11.9, 9.52 13.06, 8.5 14.25 M8.5 14.25 C7 16, 7 16, 5.25 14.25 M8.5 14.25 C7 16, 7 16, 5.25 14.25 M5.25 14.25 C4.13 13.13, 3.01 12.01, 1.75 10.75 M5.25 14.25 C4.37 13.37, 3.49 12.49, 1.75 10.75 M1.75 10.75 C0 9, 0 9, 1.75 6.75 M1.75 10.75 C0 9, 0 9, 1.75 6.75 M1.75 6.75 C2.58 5.68, 3.41 4.61, 5.25 2.25 M1.75 6.75 C2.58 5.69, 3.41 4.62, 5.25 2.25 M5.25 2.25 C7 0, 7 0, 8.5 2.25 M5.25 2.25 C7 0, 7 0, 8.5 2.25" stroke="#495057" stroke-width="1" fill="none"></path></g><g stroke-linecap="round" transform="translate(242 339) rotate(0 6.5 8)"><path d="M8.5 2.25 M8.5 2.25 C9.68 4.02, 10.87 5.8, 11.5 6.75 M8.5 2.25 C9.51 3.77, 10.52 5.28, 11.5 6.75 M11.5 6.75 C13 9, 13 9, 11.5 10.75 M11.5 6.75 C13 9, 13 9, 11.5 10.75 M11.5 10.75 C10.48 11.94, 9.46 13.13, 8.5 14.25 M11.5 10.75 C10.39 12.05, 9.28 13.34, 8.5 14.25 M8.5 14.25 C7 16, 7 16, 5.25 14.25 M8.5 14.25 C7 16, 7 16, 5.25 14.25 M5.25 14.25 C4.29 13.29, 3.34 12.34, 1.75 10.75 M5.25 14.25 C4.34 13.34, 3.43 12.43, 1.75 10.75 M1.75 10.75 C0 9, 0 9, 1.75 6.75 M1.75 10.75 C0 9, 0 9, 1.75 6.75 M1.75 6.75 C2.99 5.16, 4.22 3.57, 5.25 2.25 M1.75 6.75 C2.66 5.57, 3.58 4.4, 5.25 2.25 M5.25 2.25 C7 0, 7 0, 8.5 2.25 M5.25 2.25 C7 0, 7 0, 8.5 2.25" stroke="#495057" stroke-width="1" fill="none"></path></g><g stroke-linecap="round" transform="translate(267 308) rotate(0 6.5 8)"><path d="M8.5 2.25 M8.5 2.25 C9.48 3.72, 10.46 5.2, 11.5 6.75 M8.5 2.25 C9.46 3.69, 10.42 5.12, 11.5 6.75 M11.5 6.75 C13 9, 13 9, 11.5 10.75 M11.5 6.75 C13 9, 13 9, 11.5 10.75 M11.5 10.75 C10.67 11.71, 9.85 12.68, 8.5 14.25 M11.5 10.75 C10.47 11.95, 9.45 13.15, 8.5 14.25 M8.5 14.25 C7 16, 7 16, 5.25 14.25 M8.5 14.25 C7 16, 7 16, 5.25 14.25 M5.25 14.25 C4.36 13.36, 3.47 12.47, 1.75 10.75 M5.25 14.25 C4.35 13.35, 3.46 12.46, 1.75 10.75 M1.75 10.75 C0 9, 0 9, 1.75 6.75 M1.75 10.75 C0 9, 0 9, 1.75 6.75 M1.75 6.75 C2.97 5.18, 4.19 3.61, 5.25 2.25 M1.75 6.75 C2.9 5.27, 4.05 3.8, 5.25 2.25 M5.25 2.25 C7 0, 7 0, 8.5 2.25 M5.25 2.25 C7 0, 7 0, 8.5 2.25" stroke="#495057" stroke-width="1" fill="none"></path></g><g stroke-linecap="round" transform="translate(284 374) rotate(0 6.5 8)"><path d="M8.5 2.25 M8.5 2.25 C9.19 3.28, 9.87 4.31, 11.5 6.75 M8.5 2.25 C9.21 3.32, 9.92 4.38, 11.5 6.75 M11.5 6.75 C13 9, 13 9, 11.5 10.75 M11.5 6.75 C13 9, 13 9, 11.5 10.75 M11.5 10.75 C10.53 11.88, 9.57 13, 8.5 14.25 M11.5 10.75 C10.41 12.03, 9.31 13.3, 8.5 14.25 M8.5 14.25 C7 16, 7 16, 5.25 14.25 M8.5 14.25 C7 16, 7 16, 5.25 14.25 M5.25 14.25 C3.85 12.85, 2.45 11.45, 1.75 10.75 M5.25 14.25 C4.4 13.4, 3.55 12.55, 1.75 10.75 M1.75 10.75 C0 9, 0 9, 1.75 6.75 M1.75 10.75 C0 9, 0 9, 1.75 6.75 M1.75 6.75 C2.84 5.35, 3.93 3.95, 5.25 2.25 M1.75 6.75 C2.45 5.84, 3.16 4.94, 5.25 2.25 M5.25 2.25 C7 0, 7 0, 8.5 2.25 M5.25 2.25 C7 0, 7 0, 8.5 2.25" stroke="#495057" stroke-width="1" fill="none"></path></g><g stroke-linecap="round" transform="translate(319 378) rotate(0 6.5 8)"><path d="M8.5 2.25 M8.5 2.25 C9.7 4.05, 10.89 5.84, 11.5 6.75 M8.5 2.25 C9.12 3.18, 9.74 4.11, 11.5 6.75 M11.5 6.75 C13 9, 13 9, 11.5 10.75 M11.5 6.75 C13 9, 13 9, 11.5 10.75 M11.5 10.75 C10.87 11.48, 10.24 12.21, 8.5 14.25 M11.5 10.75 C10.46 11.96, 9.42 13.18, 8.5 14.25 M8.5 14.25 C7 16, 7 16, 5.25 14.25 M8.5 14.25 C7 16, 7 16, 5.25 14.25 M5.25 14.25 C4.06 13.06, 2.87 11.87, 1.75 10.75 M5.25 14.25 C4.19 13.19, 3.14 12.14, 1.75 10.75 M1.75 10.75 C0 9, 0 9, 1.75 6.75 M1.75 10.75 C0 9, 0 9, 1.75 6.75 M1.75 6.75 C2.89 5.28, 4.04 3.81, 5.25 2.25 M1.75 6.75 C2.9 5.27, 4.06 3.78, 5.25 2.25 M5.25 2.25 C7 0, 7 0, 8.5 2.25 M5.25 2.25 C7 0, 7 0, 8.5 2.25" stroke="#495057" stroke-width="1" fill="none"></path></g><g stroke-linecap="round" transform="translate(317 427) rotate(0 6.5 8)"><path d="M8.5 2.25 M8.5 2.25 C9.3 3.45, 10.1 4.65, 11.5 6.75 M8.5 2.25 C9.65 3.98, 10.81 5.71, 11.5 6.75 M11.5 6.75 C13 9, 13 9, 11.5 10.75 M11.5 6.75 C13 9, 13 9, 11.5 10.75 M11.5 10.75 C10.71 11.67, 9.93 12.59, 8.5 14.25 M11.5 10.75 C10.68 11.71, 9.85 12.67, 8.5 14.25 M8.5 14.25 C7 16, 7 16, 5.25 14.25 M8.5 14.25 C7 16, 7 16, 5.25 14.25 M5.25 14.25 C4.52 13.52, 3.79 12.79, 1.75 10.75 M5.25 14.25 C4.1 13.1, 2.95 11.95, 1.75 10.75 M1.75 10.75 C0 9, 0 9, 1.75 6.75 M1.75 10.75 C0 9, 0 9, 1.75 6.75 M1.75 6.75 C3.04 5.09, 4.33 3.44, 5.25 2.25 M1.75 6.75 C2.53 5.75, 3.31 4.74, 5.25 2.25 M5.25 2.25 C7 0, 7 0, 8.5 2.25 M5.25 2.25 C7 0, 7 0, 8.5 2.25" stroke="#495057" stroke-width="1" fill="none"></path></g><g stroke-linecap="round" transform="translate(341 436) rotate(0 6.5 8)"><path d="M8.5 2.25 M8.5 2.25 C9.58 3.87, 10.67 5.5, 11.5 6.75 M8.5 2.25 C9.68 4.01, 10.85 5.78, 11.5 6.75 M11.5 6.75 C13 9, 13 9, 11.5 10.75 M11.5 6.75 C13 9, 13 9, 11.5 10.75 M11.5 10.75 C10.33 12.11, 9.16 13.48, 8.5 14.25 M11.5 10.75 C10.34 12.11, 9.17 13.47, 8.5 14.25 M8.5 14.25 C7 16, 7 16, 5.25 14.25 M8.5 14.25 C7 16, 7 16, 5.25 14.25 M5.25 14.25 C4.29 13.29, 3.34 12.34, 1.75 10.75 M5.25 14.25 C3.87 12.87, 2.5 11.5, 1.75 10.75 M1.75 10.75 C0 9, 0 9, 1.75 6.75 M1.75 10.75 C0 9, 0 9, 1.75 6.75 M1.75 6.75 C2.69 5.54, 3.63 4.33, 5.25 2.25 M1.75 6.75 C3.08 5.04, 4.41 3.33, 5.25 2.25 M5.25 2.25 C7 0, 7 0, 8.5 2.25 M5.25 2.25 C7 0, 7 0, 8.5 2.25" stroke="#495057" stroke-width="1" fill="none"></path></g><g stroke-linecap="round" transform="translate(365 427) rotate(0 6.5 8)"><path d="M8.5 2.25 M8.5 2.25 C9.31 3.46, 10.11 4.67, 11.5 6.75 M8.5 2.25 C9.51 3.77, 10.52 5.29, 11.5 6.75 M11.5 6.75 C13 9, 13 9, 11.5 10.75 M11.5 6.75 C13 9, 13 9, 11.5 10.75 M11.5 10.75 C10.51 11.9, 9.52 13.06, 8.5 14.25 M11.5 10.75 C10.56 11.85, 9.62 12.94, 8.5 14.25 M8.5 14.25 C7 16, 7 16, 5.25 14.25 M8.5 14.25 C7 16, 7 16, 5.25 14.25 M5.25 14.25 C4.37 13.37, 3.49 12.49, 1.75 10.75 M5.25 14.25 C4.52 13.52, 3.79 12.79, 1.75 10.75 M1.75 10.75 C0 9, 0 9, 1.75 6.75 M1.75 10.75 C0 9, 0 9, 1.75 6.75 M1.75 6.75 C2.58 5.69, 3.41 4.62, 5.25 2.25 M1.75 6.75 C2.88 5.3, 4.01 3.85, 5.25 2.25 M5.25 2.25 C7 0, 7 0, 8.5 2.25 M5.25 2.25 C7 0, 7 0, 8.5 2.25" stroke="#495057" stroke-width="1" fill="none"></path></g><g stroke-linecap="round" transform="translate(287 429) rotate(0 6.5 8)"><path d="M8.5 2.25 M8.5 2.25 C9.51 3.77, 10.52 5.28, 11.5 6.75 M8.5 2.25 C9.67 4, 10.84 5.75, 11.5 6.75 M11.5 6.75 C13 9, 13 9, 11.5 10.75 M11.5 6.75 C13 9, 13 9, 11.5 10.75 M11.5 10.75 C10.39 12.05, 9.28 13.34, 8.5 14.25 M11.5 10.75 C10.63 11.76, 9.77 12.77, 8.5 14.25 M8.5 14.25 C7 16, 7 16, 5.25 14.25 M8.5 14.25 C7 16, 7 16, 5.25 14.25 M5.25 14.25 C4.34 13.34, 3.43 12.43, 1.75 10.75 M5.25 14.25 C4.42 13.42, 3.6 12.6, 1.75 10.75 M1.75 10.75 C0 9, 0 9, 1.75 6.75 M1.75 10.75 C0 9, 0 9, 1.75 6.75 M1.75 6.75 C2.66 5.57, 3.58 4.4, 5.25 2.25 M1.75 6.75 C2.6 5.66, 3.45 4.57, 5.25 2.25 M5.25 2.25 C7 0, 7 0, 8.5 2.25 M5.25 2.25 C7 0, 7 0, 8.5 2.25" stroke="#495057" stroke-width="1" fill="none"></path></g><g stroke-linecap="round" transform="translate(242 442) rotate(0 6.5 8)"><path d="M8.5 2.25 M8.5 2.25 C9.46 3.69, 10.42 5.12, 11.5 6.75 M8.5 2.25 C9.45 3.68, 10.4 5.1, 11.5 6.75 M11.5 6.75 C13 9, 13 9, 11.5 10.75 M11.5 6.75 C13 9, 13 9, 11.5 10.75 M11.5 10.75 C10.47 11.95, 9.45 13.15, 8.5 14.25 M11.5 10.75 C10.81 11.55, 10.12 12.36, 8.5 14.25 M8.5 14.25 C7 16, 7 16, 5.25 14.25 M8.5 14.25 C7 16, 7 16, 5.25 14.25 M5.25 14.25 C4.35 13.35, 3.46 12.46, 1.75 10.75 M5.25 14.25 C3.9 12.9, 2.55 11.55, 1.75 10.75 M1.75 10.75 C0 9, 0 9, 1.75 6.75 M1.75 10.75 C0 9, 0 9, 1.75 6.75 M1.75 6.75 C2.9 5.27, 4.05 3.8, 5.25 2.25 M1.75 6.75 C3.08 5.03, 4.42 3.32, 5.25 2.25 M5.25 2.25 C7 0, 7 0, 8.5 2.25 M5.25 2.25 C7 0, 7 0, 8.5 2.25" stroke="#495057" stroke-width="1" fill="none"></path></g><g stroke-linecap="round" transform="translate(296 404) rotate(0 6.5 8)"><path d="M8.5 2.25 M8.5 2.25 C9.21 3.32, 9.92 4.38, 11.5 6.75 M8.5 2.25 C9.51 3.77, 10.52 5.29, 11.5 6.75 M11.5 6.75 C13 9, 13 9, 11.5 10.75 M11.5 6.75 C13 9, 13 9, 11.5 10.75 M11.5 10.75 C10.41 12.03, 9.31 13.3, 8.5 14.25 M11.5 10.75 C10.84 11.52, 10.17 12.3, 8.5 14.25 M8.5 14.25 C7 16, 7 16, 5.25 14.25 M8.5 14.25 C7 16, 7 16, 5.25 14.25 M5.25 14.25 C4.4 13.4, 3.55 12.55, 1.75 10.75 M5.25 14.25 C4.51 13.51, 3.78 12.78, 1.75 10.75 M1.75 10.75 C0 9, 0 9, 1.75 6.75 M1.75 10.75 C0 9, 0 9, 1.75 6.75 M1.75 6.75 C2.45 5.84, 3.16 4.94, 5.25 2.25 M1.75 6.75 C2.74 5.48, 3.73 4.21, 5.25 2.25 M5.25 2.25 C7 0, 7 0, 8.5 2.25 M5.25 2.25 C7 0, 7 0, 8.5 2.25" stroke="#495057" stroke-width="1" fill="none"></path></g><g stroke-linecap="round" transform="translate(388 410) rotate(0 6.5 8)"><path d="M8.5 2.25 M8.5 2.25 C9.12 3.18, 9.74 4.11, 11.5 6.75 M8.5 2.25 C9.19 3.29, 9.88 4.32, 11.5 6.75 M11.5 6.75 C13 9, 13 9, 11.5 10.75 M11.5 6.75 C13 9, 13 9, 11.5 10.75 M11.5 10.75 C10.46 11.96, 9.42 13.18, 8.5 14.25 M11.5 10.75 C10.49 11.92, 9.49 13.1, 8.5 14.25 M8.5 14.25 C7 16, 7 16, 5.25 14.25 M8.5 14.25 C7 16, 7 16, 5.25 14.25 M5.25 14.25 C4.19 13.19, 3.14 12.14, 1.75 10.75 M5.25 14.25 C4.55 13.55, 3.85 12.85, 1.75 10.75 M1.75 10.75 C0 9, 0 9, 1.75 6.75 M1.75 10.75 C0 9, 0 9, 1.75 6.75 M1.75 6.75 C2.9 5.27, 4.06 3.78, 5.25 2.25 M1.75 6.75 C3.13 4.98, 4.51 3.2, 5.25 2.25 M5.25 2.25 C7 0, 7 0, 8.5 2.25 M5.25 2.25 C7 0, 7 0, 8.5 2.25" stroke="#495057" stroke-width="1" fill="none"></path></g><g stroke-linecap="round" transform="translate(394 435) rotate(0 6.5 8)"><path d="M8.5 2.25 M8.5 2.25 C9.65 3.98, 10.81 5.71, 11.5 6.75 M8.5 2.25 C9.63 3.94, 10.76 5.64, 11.5 6.75 M11.5 6.75 C13 9, 13 9, 11.5 10.75 M11.5 6.75 C13 9, 13 9, 11.5 10.75 M11.5 10.75 C10.68 11.71, 9.85 12.67, 8.5 14.25 M11.5 10.75 C10.65 11.74, 9.8 12.74, 8.5 14.25 M8.5 14.25 C7 16, 7 16, 5.25 14.25 M8.5 14.25 C7 16, 7 16, 5.25 14.25 M5.25 14.25 C4.1 13.1, 2.95 11.95, 1.75 10.75 M5.25 14.25 C4.03 13.03, 2.8 11.8, 1.75 10.75 M1.75 10.75 C0 9, 0 9, 1.75 6.75 M1.75 10.75 C0 9, 0 9, 1.75 6.75 M1.75 6.75 C2.53 5.75, 3.31 4.74, 5.25 2.25 M1.75 6.75 C2.59 5.67, 3.43 4.58, 5.25 2.25 M5.25 2.25 C7 0, 7 0, 8.5 2.25 M5.25 2.25 C7 0, 7 0, 8.5 2.25" stroke="#495057" stroke-width="1" fill="none"></path></g><g stroke-linecap="round" transform="translate(394 454) rotate(0 6.5 8)"><path d="M8.5 2.25 M8.5 2.25 C9.68 4.01, 10.85 5.78, 11.5 6.75 M8.5 2.25 C9.39 3.59, 10.28 4.93, 11.5 6.75 M11.5 6.75 C13 9, 13 9, 11.5 10.75 M11.5 6.75 C13 9, 13 9, 11.5 10.75 M11.5 10.75 C10.34 12.11, 9.17 13.47, 8.5 14.25 M11.5 10.75 C10.51 11.9, 9.53 13.05, 8.5 14.25 M8.5 14.25 C7 16, 7 16, 5.25 14.25 M8.5 14.25 C7 16, 7 16, 5.25 14.25 M5.25 14.25 C3.87 12.87, 2.5 11.5, 1.75 10.75 M5.25 14.25 C4.36 13.36, 3.47 12.47, 1.75 10.75 M1.75 10.75 C0 9, 0 9, 1.75 6.75 M1.75 10.75 C0 9, 0 9, 1.75 6.75 M1.75 6.75 C3.08 5.04, 4.41 3.33, 5.25 2.25 M1.75 6.75 C2.77 5.44, 3.79 4.12, 5.25 2.25 M5.25 2.25 C7 0, 7 0, 8.5 2.25 M5.25 2.25 C7 0, 7 0, 8.5 2.25" stroke="#495057" stroke-width="1" fill="none"></path></g><g stroke-linecap="round" transform="translate(400 508) rotate(0 6.5 8)"><path d="M8.5 2.25 M8.5 2.25 C9.51 3.77, 10.52 5.29, 11.5 6.75 M8.5 2.25 C9.16 3.25, 9.83 4.24, 11.5 6.75 M11.5 6.75 C13 9, 13 9, 11.5 10.75 M11.5 6.75 C13 9, 13 9, 11.5 10.75 M11.5 10.75 C10.56 11.85, 9.62 12.94, 8.5 14.25 M11.5 10.75 C10.67 11.72, 9.84 12.68, 8.5 14.25 M8.5 14.25 C7 16, 7 16, 5.25 14.25 M8.5 14.25 C7 16, 7 16, 5.25 14.25 M5.25 14.25 C4.52 13.52, 3.79 12.79, 1.75 10.75 M5.25 14.25 C4.16 13.16, 3.07 12.07, 1.75 10.75 M1.75 10.75 C0 9, 0 9, 1.75 6.75 M1.75 10.75 C0 9, 0 9, 1.75 6.75 M1.75 6.75 C2.88 5.3, 4.01 3.85, 5.25 2.25 M1.75 6.75 C2.48 5.81, 3.21 4.88, 5.25 2.25 M5.25 2.25 C7 0, 7 0, 8.5 2.25 M5.25 2.25 C7 0, 7 0, 8.5 2.25" stroke="#495057" stroke-width="1" fill="none"></path></g><g stroke-linecap="round" transform="translate(276 485) rotate(0 6.5 8)"><path d="M8.5 2.25 M8.5 2.25 C9.67 4, 10.84 5.75, 11.5 6.75 M8.5 2.25 C9.32 3.48, 10.14 4.71, 11.5 6.75 M11.5 6.75 C13 9, 13 9, 11.5 10.75 M11.5 6.75 C13 9, 13 9, 11.5 10.75 M11.5 10.75 C10.63 11.76, 9.77 12.77, 8.5 14.25 M11.5 10.75 C10.54 11.87, 9.58 12.99, 8.5 14.25 M8.5 14.25 C7 16, 7 16, 5.25 14.25 M8.5 14.25 C7 16, 7 16, 5.25 14.25 M5.25 14.25 C4.42 13.42, 3.6 12.6, 1.75 10.75 M5.25 14.25 C4.42 13.42, 3.59 12.59, 1.75 10.75 M1.75 10.75 C0 9, 0 9, 1.75 6.75 M1.75 10.75 C0 9, 0 9, 1.75 6.75 M1.75 6.75 C2.6 5.66, 3.45 4.57, 5.25 2.25 M1.75 6.75 C3.03 5.1, 4.32 3.45, 5.25 2.25 M5.25 2.25 C7 0, 7 0, 8.5 2.25 M5.25 2.25 C7 0, 7 0, 8.5 2.25" stroke="#495057" stroke-width="1" fill="none"></path></g><g stroke-linecap="round" transform="translate(287 502) rotate(0 6.5 8)"><path d="M8.5 2.25 M8.5 2.25 C9.45 3.68, 10.4 5.1, 11.5 6.75 M8.5 2.25 C9.52 3.78, 10.54 5.3, 11.5 6.75 M11.5 6.75 C13 9, 13 9, 11.5 10.75 M11.5 6.75 C13 9, 13 9, 11.5 10.75 M11.5 10.75 C10.81 11.55, 10.12 12.36, 8.5 14.25 M11.5 10.75 C10.68 11.71, 9.86 12.66, 8.5 14.25 M8.5 14.25 C7 16, 7 16, 5.25 14.25 M8.5 14.25 C7 16, 7 16, 5.25 14.25 M5.25 14.25 C3.9 12.9, 2.55 11.55, 1.75 10.75 M5.25 14.25 C4.01 13.01, 2.78 11.78, 1.75 10.75 M1.75 10.75 C0 9, 0 9, 1.75 6.75 M1.75 10.75 C0 9, 0 9, 1.75 6.75 M1.75 6.75 C3.08 5.03, 4.42 3.32, 5.25 2.25 M1.75 6.75 C2.46 5.84, 3.16 4.93, 5.25 2.25 M5.25 2.25 C7 0, 7 0, 8.5 2.25 M5.25 2.25 C7 0, 7 0, 8.5 2.25" stroke="#495057" stroke-width="1" fill="none"></path></g><g stroke-linecap="round" transform="translate(118 508) rotate(0 6.5 8)"><path d="M8.5 2.25 M8.5 2.25 C9.51 3.77, 10.52 5.29, 11.5 6.75 M8.5 2.25 C9.33 3.49, 10.15 4.73, 11.5 6.75 M11.5 6.75 C13 9, 13 9, 11.5 10.75 M11.5 6.75 C13 9, 13 9, 11.5 10.75 M11.5 10.75 C10.84 11.52, 10.17 12.3, 8.5 14.25 M11.5 10.75 C10.74 11.64, 9.98 12.53, 8.5 14.25 M8.5 14.25 C7 16, 7 16, 5.25 14.25 M8.5 14.25 C7 16, 7 16, 5.25 14.25 M5.25 14.25 C4.51 13.51, 3.78 12.78, 1.75 10.75 M5.25 14.25 C4.03 13.03, 2.81 11.81, 1.75 10.75 M1.75 10.75 C0 9, 0 9, 1.75 6.75 M1.75 10.75 C0 9, 0 9, 1.75 6.75 M1.75 6.75 C2.74 5.48, 3.73 4.21, 5.25 2.25 M1.75 6.75 C2.8 5.41, 3.84 4.06, 5.25 2.25 M5.25 2.25 C7 0, 7 0, 8.5 2.25 M5.25 2.25 C7 0, 7 0, 8.5 2.25" stroke="#495057" stroke-width="1" fill="none"></path></g><g stroke-linecap="round" transform="translate(25 504) rotate(0 6.5 8)"><path d="M8.5 2.25 M8.5 2.25 C9.19 3.29, 9.88 4.32, 11.5 6.75 M8.5 2.25 C9.47 3.7, 10.43 5.15, 11.5 6.75 M11.5 6.75 C13 9, 13 9, 11.5 10.75 M11.5 6.75 C13 9, 13 9, 11.5 10.75 M11.5 10.75 C10.49 11.92, 9.49 13.1, 8.5 14.25 M11.5 10.75 C10.3 12.15, 9.1 13.55, 8.5 14.25 M8.5 14.25 C7 16, 7 16, 5.25 14.25 M8.5 14.25 C7 16, 7 16, 5.25 14.25 M5.25 14.25 C4.55 13.55, 3.85 12.85, 1.75 10.75 M5.25 14.25 C4.16 13.16, 3.07 12.07, 1.75 10.75 M1.75 10.75 C0 9, 0 9, 1.75 6.75 M1.75 10.75 C0 9, 0 9, 1.75 6.75 M1.75 6.75 C3.13 4.98, 4.51 3.2, 5.25 2.25 M1.75 6.75 C2.94 5.22, 4.13 3.69, 5.25 2.25 M5.25 2.25 C7 0, 7 0, 8.5 2.25 M5.25 2.25 C7 0, 7 0, 8.5 2.25" stroke="#495057" stroke-width="1" fill="none"></path></g><g stroke-linecap="round" transform="translate(209 182) rotate(0 6.5 8)"><path d="M8.5 2.25 M8.5 2.25 C9.19 3.28, 9.88 4.32, 11.5 6.75 M8.5 2.25 C9.34 3.51, 10.18 4.77, 11.5 6.75 M11.5 6.75 C13 9, 13 9, 11.5 10.75 M11.5 6.75 C13 9, 13 9, 11.5 10.75 M11.5 10.75 C10.6 11.8, 9.7 12.85, 8.5 14.25 M11.5 10.75 C10.5 11.91, 9.5 13.08, 8.5 14.25 M8.5 14.25 C7 16, 7 16, 5.25 14.25 M8.5 14.25 C7 16, 7 16, 5.25 14.25 M5.25 14.25 C4.05 13.05, 2.86 11.86, 1.75 10.75 M5.25 14.25 C4.24 13.24, 3.24 12.24, 1.75 10.75 M1.75 10.75 C0 9, 0 9, 1.75 6.75 M1.75 10.75 C0 9, 0 9, 1.75 6.75 M1.75 6.75 C2.51 5.77, 3.27 4.79, 5.25 2.25 M1.75 6.75 C2.62 5.64, 3.48 4.53, 5.25 2.25 M5.25 2.25 C7 0, 7 0, 8.5 2.25 M5.25 2.25 C7 0, 7 0, 8.5 2.25" stroke="#495057" stroke-width="1" fill="none"></path></g><g stroke-linecap="round" transform="translate(176 190) rotate(0 6.5 8)"><path d="M8.5 2.25 M8.5 2.25 C9.32 3.49, 10.15 4.72, 11.5 6.75 M8.5 2.25 C9.3 3.45, 10.1 4.65, 11.5 6.75 M11.5 6.75 C13 9, 13 9, 11.5 10.75 M11.5 6.75 C13 9, 13 9, 11.5 10.75 M11.5 10.75 C10.82 11.54, 10.15 12.33, 8.5 14.25 M11.5 10.75 C10.47 11.95, 9.45 13.15, 8.5 14.25 M8.5 14.25 C7 16, 7 16, 5.25 14.25 M8.5 14.25 C7 16, 7 16, 5.25 14.25 M5.25 14.25 C4.44 13.44, 3.64 12.64, 1.75 10.75 M5.25 14.25 C4.1 13.1, 2.94 11.94, 1.75 10.75 M1.75 10.75 C0 9, 0 9, 1.75 6.75 M1.75 10.75 C0 9, 0 9, 1.75 6.75 M1.75 6.75 C2.88 5.29, 4.01 3.84, 5.25 2.25 M1.75 6.75 C3.15 4.95, 4.55 3.15, 5.25 2.25 M5.25 2.25 C7 0, 7 0, 8.5 2.25 M5.25 2.25 C7 0, 7 0, 8.5 2.25" stroke="#495057" stroke-width="1" fill="none"></path></g></svg>