<svg version="1.1" xmlns="http://www.w3.org/2000/svg" viewBox="0 0 677 436" width="677" height="436">
  <!-- svg-source:excalidraw -->
  
  <defs>
    <style>
      @font-face {
        font-family: "Virgil";
        src: url("https://excalidraw.com/Virgil.woff2");
      }
      @font-face {
        font-family: "Cascadia";
        src: url("https://excalidraw.com/Cascadia.woff2");
      }
    </style>
  </defs>
  <rect x="0" y="0" width="677" height="436" fill="#ffffff"></rect><g stroke-linecap="round" transform="translate(148 16.5) rotate(0 65.5 41)"><path d="M-0.74 1.84 C37.26 1, 72.32 0.2, 129.96 0.47 M0.4 0.1 C43.36 0.14, 84.18 0.75, 130.29 -0.05 M132.47 -0.43 C131.75 25.54, 130.54 52.62, 129.57 81.51 M131.98 0.71 C129.65 26.69, 130.98 51.53, 130.62 81.03 M129.57 82.85 C83.5 82.84, 36.75 82.15, -1.83 82.65 M130.61 81.23 C102.9 81.82, 74.3 82.14, 0.71 82.05 M-1.6 83.57 C1.95 52.88, 1 23.86, -1.06 -1.82 M0.48 81.68 C-0.83 61.3, 0.22 41, 0.69 -0.8" stroke="#364fc7" stroke-width="1" fill="none"></path></g><g transform="translate(153 46) rotate(0 60.5 11.5)"><text x="60.5" y="17" font-family="Virgil, Segoe UI Emoji" font-size="20px" fill="#364fc7" text-anchor="middle" style="white-space: pre;" direction="ltr">Post</text></g><g stroke-linecap="round" transform="translate(147 124) rotate(0 65.5 41)"><path d="M-1.08 -0.71 C33.23 1.26, 67.53 -0.91, 131.19 -1.05 M132.53 0.63 C131.43 30.05, 129.59 58.39, 129.34 80.58 M131.43 82.77 C78.63 79.02, 26.76 82.34, 0.33 82.96 M-0.13 83.51 C1.24 61.54, 1.21 40.95, 1.67 -1.03" stroke="#364fc7" stroke-width="1.5" fill="none" stroke-dasharray="8 9"></path></g><g transform="translate(152 153.5) rotate(0 60.5 11.5)"><text x="60.5" y="17" font-family="Virgil, Segoe UI Emoji" font-size="20px" fill="#364fc7" text-anchor="middle" style="white-space: pre;" direction="ltr">Post</text></g><g stroke-linecap="round" transform="translate(147 235) rotate(0 65.5 41)"><path d="M-1.75 -1.6 C45.7 -0.55, 87.79 0.78, 131.58 0.97 M132.34 0.65 C131.56 26.21, 131.45 54.89, 129.72 81.32 M132.52 80.14 C105.42 82.63, 76.94 82.94, 1.6 80.7 M-1.29 80.82 C-0.01 56.82, 1.51 35.46, 1.57 -0.31" stroke="#364fc7" stroke-width="1.5" fill="none" stroke-dasharray="8 9"></path></g><g transform="translate(152 264.5) rotate(0 60.5 11.5)"><text x="60.5" y="17" font-family="Virgil, Segoe UI Emoji" font-size="20px" fill="#364fc7" text-anchor="middle" style="white-space: pre;" direction="ltr">Post</text></g><g stroke-linecap="round" transform="translate(147 343) rotate(0 65.5 41)"><path d="M1.68 1.73 C47.76 -1.35, 96.71 0.08, 131.01 -0.78 M131.74 -1.93 C130.98 28.64, 133.03 56.06, 130.68 83.4 M130.43 82.21 C78.57 84.06, 27.65 83.1, -1.15 80.7 M-1.07 80.46 C-0.67 58.81, 1.01 37.03, 1.43 0.4" stroke="#364fc7" stroke-width="1.5" fill="none" stroke-dasharray="8 9"></path></g><g transform="translate(152 372.5) rotate(0 60.5 11.5)"><text x="60.5" y="17" font-family="Virgil, Segoe UI Emoji" font-size="20px" fill="#364fc7" text-anchor="middle" style="white-space: pre;" direction="ltr">Post</text></g><g stroke-linecap="round" transform="translate(390.5 17.75) rotate(0 65.5 41)"><path d="M0.75 -0.13 C29.29 0.32, 58.22 0, 132.51 -1.96 M-0.11 -0.45 C34.47 1.17, 70.03 0.4, 130.76 0.43 M129.28 -1.28 C131.6 21.02, 129.04 46.22, 132.07 82.53 M130.82 -0.09 C132.58 29.29, 132.24 57.07, 131.24 81.24 M132.02 80.44 C80.88 82.17, 34.92 82.36, 0.65 80.8 M130.78 81.18 C99.81 82.21, 66.17 81.83, 0.63 82.65 M-0.89 81.54 C1.44 57.32, 2.56 31.63, 0.78 -0.76 M0.63 82.1 C0.32 60.79, 0.19 39.44, 0.02 -0.95" stroke="#a61e4d" stroke-width="1" fill="none"></path></g><g transform="translate(395.5 47.25) rotate(0 60.5 11.5)"><text x="60.5" y="17" font-family="Virgil, Segoe UI Emoji" font-size="20px" fill="#a61e4d" text-anchor="middle" style="white-space: pre;" direction="ltr">Category</text></g><g stroke-linecap="round" transform="translate(391.5 124.25) rotate(0 65.5 41)"><path d="M0.02 0.67 C42.43 0.43, 87.02 -1.87, 130.32 -0.85 M130.29 0.25 C131.67 16.76, 130.43 36.96, 130.61 80.07 M132.38 80.01 C101.42 81.36, 75.24 81.69, 1.07 83.94 M1.57 82.56 C1.02 48.04, 0.61 16.35, 1.48 -0.74" stroke="#a61e4d" stroke-width="1.5" fill="none" stroke-dasharray="8 9"></path></g><g transform="translate(396.5 153.75) rotate(0 60.5 11.5)"><text x="60.5" y="17" font-family="Virgil, Segoe UI Emoji" font-size="20px" fill="#a61e4d" text-anchor="middle" style="white-space: pre;" direction="ltr">Category</text></g><g stroke-linecap="round" transform="translate(391.5 235.25) rotate(0 65.5 41)"><path d="M-0.32 0.34 C39.94 -2.4, 76.17 -1.29, 129.4 -0.22 M131.76 -1.29 C130.22 21.76, 130.32 39.88, 129.34 80.28 M129.83 82.2 C101.18 81.22, 70.28 82.64, 1.82 81.65 M0.88 80.11 C-0.17 56.65, 0.83 33.59, -0.24 1.02" stroke="#a61e4d" stroke-width="1.5" fill="none" stroke-dasharray="8 9"></path></g><g transform="translate(396.5 264.25) rotate(0 60.5 11.5)"><text x="60.5" y="17" font-family="Virgil, Segoe UI Emoji" font-size="20px" fill="#a61e4d" text-anchor="middle" style="white-space: pre;" direction="ltr">Category</text></g><g stroke-linecap="round" transform="translate(391.5 343.25) rotate(0 65.5 41)"><path d="M1.51 -1.96 C42.98 -1.08, 85.73 -0.45, 130.1 -0.71 M130.52 0.85 C130.92 23.68, 129.65 49.5, 129.72 83.38 M132.07 82.53 C105.83 84.07, 80.33 81.78, -0.19 83.57 M0.47 80.49 C1.11 54.35, -0.6 29.19, -1.56 -1.16" stroke="#a61e4d" stroke-width="1.5" fill="none" stroke-dasharray="8 9"></path></g><g transform="translate(396.5 372.75) rotate(0 60.5 11.5)"><text x="60.5" y="17" font-family="Virgil, Segoe UI Emoji" font-size="20px" fill="#a61e4d" text-anchor="middle" style="white-space: pre;" direction="ltr">Category</text></g><g stroke-linecap="round"><g transform="translate(378.5 43) rotate(0 -44.33417682035815 0.05534987031016669)"><path d="M0.26 0.26 C-14.54 0.3, -73.34 -0.41, -87.8 -0.38 M-1.07 -0.65 C-16.14 -0.42, -74.65 0.35, -88.93 0.76" stroke="#a61e4d" stroke-width="1" fill="none"></path></g><g transform="translate(378.5 43) rotate(0 -44.33417682035815 0.05534987031016669)"><path d="M-60.52 -10.62 C-73.01 -4.21, -82.33 -0.24, -87.19 1.1 M-60.34 -9.75 C-68.6 -6.35, -76.24 -3.41, -89.02 0.67" stroke="#a61e4d" stroke-width="1" fill="none"></path></g><g transform="translate(378.5 43) rotate(0 -44.33417682035815 0.05534987031016669)"><path d="M-60.11 9.9 C-72.66 8.42, -82.13 4.51, -87.19 1.1 M-59.93 10.76 C-68.12 8.37, -75.88 5.52, -89.02 0.67" stroke="#a61e4d" stroke-width="1" fill="none"></path></g></g><g stroke-linecap="round"><g transform="translate(381.5 93.00000000000006) rotate(0 -44.76337945295961 134.58843840620938)"><path d="M-0.76 0.98 C-15.75 45.82, -75.02 224.22, -89.68 268.73 M1.05 0.45 C-14.12 44.99, -75.57 222.22, -90.57 267.06" stroke="#a61e4d" stroke-width="1" fill="none"></path></g><g transform="translate(381.5 93.00000000000006) rotate(0 -44.76337945295961 134.58843840620938)"><path d="M-89.54 237.25 C-89.62 248.45, -90.54 256.01, -92.31 268.94 M-90.79 237.68 C-90.6 247.8, -90.74 259.49, -90.21 266.53" stroke="#a61e4d" stroke-width="1" fill="none"></path></g><g transform="translate(381.5 93.00000000000006) rotate(0 -44.76337945295961 134.58843840620938)"><path d="M-70.12 243.88 C-76.42 252.83, -83.59 258.25, -92.31 268.94 M-71.37 244.31 C-78.2 252.11, -85.36 261.4, -90.21 266.53" stroke="#a61e4d" stroke-width="1" fill="none"></path></g></g><g stroke-linecap="round"><g transform="translate(376.5 51.000000000000085) rotate(0 -44.20293566293549 45.70430044128562)"><path d="M0.86 -0.06 C-13.76 15.28, -73.82 75.87, -88.9 91.35 M-0.14 -1.14 C-14.73 14.42, -74.27 77.2, -89.27 92.54" stroke="#a61e4d" stroke-width="1" fill="none"></path></g><g transform="translate(376.5 51.000000000000085) rotate(0 -44.20293566293549 45.70430044128562)"><path d="M-77.24 66.94 C-80.86 71.45, -80.87 75.72, -90.22 91.38 M-77.89 65.56 C-79.13 70.84, -83.4 76.55, -89.26 91.77" stroke="#a61e4d" stroke-width="1" fill="none"></path></g><g transform="translate(376.5 51.000000000000085) rotate(0 -44.20293566293549 45.70430044128562)"><path d="M-62.44 81.16 C-68.99 82.87, -72.01 84.25, -90.22 91.38 M-63.09 79.78 C-67.54 82, -75.07 84.57, -89.26 91.77" stroke="#a61e4d" stroke-width="1" fill="none"></path></g></g><g stroke-linecap="round"><g transform="translate(376.5 74.00000000000031) rotate(0 -44.71646997980315 92.89844875766882)"><path d="M-0.38 -0.08 C-15.36 30.66, -76.21 154.75, -91.06 185.63 M1.62 -1.17 C-12.9 30.25, -73.64 155.76, -88.9 186.97" stroke="#a61e4d" stroke-width="1" fill="none"></path></g><g transform="translate(376.5 74.00000000000031) rotate(0 -44.71646997980315 92.89844875766882)"><path d="M-85.95 155.37 C-86.77 164.11, -88.11 167.94, -87.75 186.28 M-85.89 156.56 C-86.24 165.21, -87.82 174.02, -89.51 186.82" stroke="#a61e4d" stroke-width="1" fill="none"></path></g><g transform="translate(376.5 74.00000000000031) rotate(0 -44.71646997980315 92.89844875766882)"><path d="M-67.49 164.33 C-72.15 171.19, -77.24 173.2, -87.75 186.28 M-67.43 165.53 C-73.22 171.37, -80.3 177.51, -89.51 186.82" stroke="#a61e4d" stroke-width="1" fill="none"></path></g></g><g stroke-linecap="round"><g transform="translate(287.5 30) rotate(0 44.45856138169768 -0.5764940576348465)"><path d="M-0.44 -0.63 C14.26 -0.87, 74.3 -0.96, 89.36 -1.14 M1.52 1.66 C16 1.06, 73.92 -2.5, 88.6 -2.81" stroke="#364fc7" stroke-width="1" fill="none"></path></g><g transform="translate(287.5 30) rotate(0 44.45856138169768 -0.5764940576348465)"><path d="M59.84 9.28 C73.25 5.78, 83.31 -1.09, 90.16 -3.07 M60.91 8.05 C68.11 5.96, 75.2 2.53, 88.8 -2.94" stroke="#364fc7" stroke-width="1" fill="none"></path></g><g transform="translate(287.5 30) rotate(0 44.45856138169768 -0.5764940576348465)"><path d="M58.95 -11.23 C72.76 -6.61, 83.18 -5.38, 90.16 -3.07 M60.01 -12.46 C67.62 -9.38, 74.94 -7.64, 88.8 -2.94" stroke="#364fc7" stroke-width="1" fill="none"></path></g></g><g stroke-linecap="round"><g transform="translate(288.5 97) rotate(0 44.35727905884846 133.54744967631532)"><path d="M0.4 0.41 C15.25 45.02, 74.74 223.17, 89.56 267.52 M-0.84 -0.42 C13.77 43.84, 72.93 221, 88.38 265.67" stroke="#364fc7" stroke-width="1" fill="none"></path></g><g transform="translate(288.5 97) rotate(0 44.35727905884846 133.54744967631532)"><path d="M70.29 241.52 C76.8 248.94, 81.48 257.43, 86.95 264.85 M69.5 241.28 C76.89 251.7, 82.68 259.45, 89.13 266.01" stroke="#364fc7" stroke-width="1" fill="none"></path></g><g transform="translate(288.5 97) rotate(0 44.35727905884846 133.54744967631532)"><path d="M89.72 234.94 C89.64 244.65, 87.74 255.37, 86.95 264.85 M88.93 234.69 C89.05 247.7, 87.61 257.9, 89.13 266.01" stroke="#364fc7" stroke-width="1" fill="none"></path></g></g><g stroke-linecap="round"><g transform="translate(290.5 79.99999999999997) rotate(0 43.89085956708061 95.08697739302188)"><path d="M0.82 0.61 C15.63 32.29, 73.65 157.58, 87.99 188.83 M-0.21 -0.11 C14.52 31.86, 72.15 158.76, 87.04 190.28" stroke="#364fc7" stroke-width="1" fill="none"></path></g><g transform="translate(290.5 79.99999999999997) rotate(0 43.89085956708061 95.08697739302188)"><path d="M66.93 168.98 C70.18 171.75, 73.79 177.61, 87.09 189.15 M66.5 169.44 C73.03 175.86, 78.28 182.17, 87.99 189.97" stroke="#364fc7" stroke-width="1" fill="none"></path></g><g transform="translate(290.5 79.99999999999997) rotate(0 43.89085956708061 95.08697739302188)"><path d="M85.55 160.37 C84.52 165.21, 83.93 173.01, 87.09 189.15 M85.12 160.84 C85.98 169.91, 85.48 178.87, 87.99 189.97" stroke="#364fc7" stroke-width="1" fill="none"></path></g></g><g stroke-linecap="round"><g transform="translate(290.5 62) rotate(0 45.21423068940635 51.26058727278839)"><path d="M-0.25 -0.8 C14.99 16.12, 75.71 84.84, 90.68 101.86 M1.82 1.4 C17.03 18.48, 75.63 86.5, 90.09 103.32" stroke="#364fc7" stroke-width="1" fill="none"></path></g><g transform="translate(290.5 62) rotate(0 45.21423068940635 51.26058727278839)"><path d="M62.59 89.78 C69.92 91.47, 75.24 97.62, 91.37 103.93 M62.98 89.06 C71.01 91.97, 76.35 95.06, 90.44 102.67" stroke="#364fc7" stroke-width="1" fill="none"></path></g><g transform="translate(290.5 62) rotate(0 45.21423068940635 51.26058727278839)"><path d="M78.13 76.39 C81.82 81.22, 83.46 90.54, 91.37 103.93 M78.53 75.67 C82.81 81.83, 84.29 88.25, 90.44 102.67" stroke="#364fc7" stroke-width="1" fill="none"></path></g></g><g stroke-linecap="round" transform="translate(10 173.5) rotate(0 42.5 40.5)"><path d="M54.89 1.08 C62.15 2.42, 70.79 8.07, 75.63 13.96 C80.46 19.85, 83.15 29.06, 83.88 36.42 C84.62 43.79, 83.14 51.78, 80.06 58.13 C76.98 64.49, 71.77 70.75, 65.43 74.53 C59.08 78.31, 49.7 80.99, 41.98 80.82 C34.25 80.64, 25.5 77.52, 19.05 73.47 C12.61 69.42, 6.37 62.99, 3.28 56.52 C0.19 50.06, -0.71 41.89, 0.49 34.67 C1.68 27.46, 5.39 18.75, 10.44 13.23 C15.5 7.72, 23.16 3.54, 30.81 1.6 C38.47 -0.35, 51.61 1.15, 56.37 1.56 C61.12 1.96, 59.35 3.08, 59.32 4.02 M57.73 3.02 C64.36 5.02, 72.64 12.23, 77.14 18.06 C81.63 23.89, 84.55 30.86, 84.68 38 C84.81 45.13, 81.62 54.45, 77.9 60.87 C74.19 67.28, 68.91 73.12, 62.4 76.49 C55.88 79.87, 46.59 81.65, 38.8 81.12 C31.02 80.58, 22.02 78.2, 15.68 73.31 C9.33 68.41, 3.14 59.01, 0.74 51.74 C-1.67 44.47, -0.85 36.73, 1.24 29.69 C3.33 22.65, 7.44 14.17, 13.28 9.49 C19.12 4.81, 28.67 2.85, 36.29 1.62 C43.9 0.4, 54.99 1.52, 58.96 2.12 C62.93 2.73, 60.51 4.42, 60.1 5.26" stroke="#862e9c" stroke-width="1" fill="none"></path></g><g transform="translate(15 202.5) rotate(0 37.5 11.5)"><text x="37.5" y="17" font-family="Virgil, Segoe UI Emoji" font-size="20px" fill="#862e9c" text-anchor="middle" style="white-space: pre;" direction="ltr">@seed</text></g><g stroke-linecap="round" transform="translate(582 175.5) rotate(0 42.5 40.5)"><path d="M39.62 0.05 C47.05 -1.09, 56.58 1.51, 63.4 5.17 C70.22 8.83, 77.05 15.63, 80.56 22 C84.08 28.36, 85.09 36.29, 84.48 43.37 C83.88 50.44, 81.55 58.56, 76.94 64.46 C72.32 70.36, 64.05 76.18, 56.82 78.77 C49.6 81.37, 41.14 81.62, 33.58 80.05 C26.03 78.47, 16.83 74.52, 11.48 69.35 C6.13 64.17, 2.84 56.36, 1.48 48.99 C0.12 41.63, 0.79 32.06, 3.33 25.17 C5.87 18.28, 10.23 11.99, 16.72 7.67 C23.22 3.35, 37.72 0.23, 42.3 -0.76 C46.88 -1.75, 44.24 0.93, 44.19 1.72 M47.84 0.64 C55.3 0.95, 63.84 4.8, 69.67 9.16 C75.5 13.53, 80.69 19.76, 82.82 26.81 C84.94 33.87, 84.31 44.5, 82.41 51.5 C80.52 58.49, 77.1 63.77, 71.43 68.79 C65.75 73.8, 55.83 80.31, 48.36 81.59 C40.89 82.87, 33.35 79.39, 26.62 76.47 C19.9 73.55, 12.29 70.12, 8 64.09 C3.72 58.06, 1.22 47.46, 0.9 40.28 C0.57 33.1, 2.12 26.97, 6.05 21 C9.97 15.04, 17.35 8.09, 24.43 4.5 C31.5 0.91, 44.66 0.08, 48.48 -0.53 C52.29 -1.13, 47.65 0.21, 47.33 0.85" stroke="#862e9c" stroke-width="1" fill="none"></path></g><g transform="translate(587 204.5) rotate(0 37.5 11.5)"><text x="37.5" y="17" font-family="Virgil, Segoe UI Emoji" font-size="20px" fill="#862e9c" text-anchor="middle" style="white-space: pre;" direction="ltr">@seed</text></g><g stroke-linecap="round" transform="translate(45 179) rotate(0 6.5 8)"><path d="M8.5 2.25 M8.5 2.25 C9.53 3.79, 10.56 5.33, 11.5 6.75 M8.5 2.25 C9.18 3.27, 9.86 4.28, 11.5 6.75 M11.5 6.75 C13 9, 13 9, 11.5 10.75 M11.5 6.75 C13 9, 13 9, 11.5 10.75 M11.5 10.75 C10.8 11.56, 10.11 12.38, 8.5 14.25 M11.5 10.75 C10.55 11.86, 9.59 12.97, 8.5 14.25 M8.5 14.25 C7 16, 7 16, 5.25 14.25 M8.5 14.25 C7 16, 7 16, 5.25 14.25 M5.25 14.25 C4.54 13.54, 3.83 12.83, 1.75 10.75 M5.25 14.25 C4.48 13.48, 3.71 12.71, 1.75 10.75 M1.75 10.75 C0 9, 0 9, 1.75 6.75 M1.75 10.75 C0 9, 0 9, 1.75 6.75 M1.75 6.75 C2.94 5.22, 4.13 3.68, 5.25 2.25 M1.75 6.75 C2.53 5.74, 3.32 4.74, 5.25 2.25 M5.25 2.25 C7 0, 7 0, 8.5 2.25 M5.25 2.25 C7 0, 7 0, 8.5 2.25" stroke="#495057" stroke-width="1" fill="none"></path></g><g stroke-linecap="round" transform="translate(48 228) rotate(0 6.5 8)"><path d="M8.5 2.25 M8.5 2.25 C9.46 3.69, 10.42 5.13, 11.5 6.75 M8.5 2.25 C9.23 3.35, 9.96 4.44, 11.5 6.75 M11.5 6.75 C13 9, 13 9, 11.5 10.75 M11.5 6.75 C13 9, 13 9, 11.5 10.75 M11.5 10.75 C10.66 11.73, 9.82 12.72, 8.5 14.25 M11.5 10.75 C10.41 12.02, 9.32 13.29, 8.5 14.25 M8.5 14.25 C7 16, 7 16, 5.25 14.25 M8.5 14.25 C7 16, 7 16, 5.25 14.25 M5.25 14.25 C3.99 12.99, 2.73 11.73, 1.75 10.75 M5.25 14.25 C4.4 13.4, 3.54 12.54, 1.75 10.75 M1.75 10.75 C0 9, 0 9, 1.75 6.75 M1.75 10.75 C0 9, 0 9, 1.75 6.75 M1.75 6.75 C2.64 5.6, 3.53 4.46, 5.25 2.25 M1.75 6.75 C3.08 5.03, 4.42 3.32, 5.25 2.25 M5.25 2.25 C7 0, 7 0, 8.5 2.25 M5.25 2.25 C7 0, 7 0, 8.5 2.25" stroke="#495057" stroke-width="1" fill="none"></path></g><g stroke-linecap="round" transform="translate(70 221) rotate(0 6.5 8)"><path d="M8.5 2.25 M8.5 2.25 C9.39 3.58, 10.28 4.92, 11.5 6.75 M8.5 2.25 C9.44 3.66, 10.38 5.07, 11.5 6.75 M11.5 6.75 C13 9, 13 9, 11.5 10.75 M11.5 6.75 C13 9, 13 9, 11.5 10.75 M11.5 10.75 C10.82 11.55, 10.13 12.34, 8.5 14.25 M11.5 10.75 C10.61 11.79, 9.72 12.83, 8.5 14.25 M8.5 14.25 C7 16, 7 16, 5.25 14.25 M8.5 14.25 C7 16, 7 16, 5.25 14.25 M5.25 14.25 C4.13 13.13, 3.02 12.02, 1.75 10.75 M5.25 14.25 C3.88 12.88, 2.51 11.51, 1.75 10.75 M1.75 10.75 C0 9, 0 9, 1.75 6.75 M1.75 10.75 C0 9, 0 9, 1.75 6.75 M1.75 6.75 C2.69 5.54, 3.64 4.32, 5.25 2.25 M1.75 6.75 C2.58 5.69, 3.4 4.62, 5.25 2.25 M5.25 2.25 C7 0, 7 0, 8.5 2.25 M5.25 2.25 C7 0, 7 0, 8.5 2.25" stroke="#495057" stroke-width="1" fill="none"></path></g><g stroke-linecap="round" transform="translate(70 181) rotate(0 6.5 8)"><path d="M8.5 2.25 M8.5 2.25 C9.2 3.3, 9.9 4.35, 11.5 6.75 M8.5 2.25 C9.38 3.57, 10.26 4.89, 11.5 6.75 M11.5 6.75 C13 9, 13 9, 11.5 10.75 M11.5 6.75 C13 9, 13 9, 11.5 10.75 M11.5 10.75 C10.44 11.99, 9.37 13.23, 8.5 14.25 M11.5 10.75 C10.43 12, 9.35 13.26, 8.5 14.25 M8.5 14.25 C7 16, 7 16, 5.25 14.25 M8.5 14.25 C7 16, 7 16, 5.25 14.25 M5.25 14.25 C4.5 13.5, 3.74 12.74, 1.75 10.75 M5.25 14.25 C4.23 13.23, 3.21 12.21, 1.75 10.75 M1.75 10.75 C0 9, 0 9, 1.75 6.75 M1.75 10.75 C0 9, 0 9, 1.75 6.75 M1.75 6.75 C2.58 5.69, 3.4 4.62, 5.25 2.25 M1.75 6.75 C2.81 5.39, 3.86 4.04, 5.25 2.25 M5.25 2.25 C7 0, 7 0, 8.5 2.25 M5.25 2.25 C7 0, 7 0, 8.5 2.25" stroke="#495057" stroke-width="1" fill="none"></path></g><g stroke-linecap="round" transform="translate(72 149) rotate(0 6.5 8)"><path d="M8.5 2.25 M8.5 2.25 C9.21 3.31, 9.91 4.37, 11.5 6.75 M8.5 2.25 C9.62 3.93, 10.74 5.61, 11.5 6.75 M11.5 6.75 C13 9, 13 9, 11.5 10.75 M11.5 6.75 C13 9, 13 9, 11.5 10.75 M11.5 10.75 C10.4 12.03, 9.3 13.31, 8.5 14.25 M11.5 10.75 C10.39 12.04, 9.29 13.33, 8.5 14.25 M8.5 14.25 C7 16, 7 16, 5.25 14.25 M8.5 14.25 C7 16, 7 16, 5.25 14.25 M5.25 14.25 C4.11 13.11, 2.97 11.97, 1.75 10.75 M5.25 14.25 C3.91 12.91, 2.57 11.57, 1.75 10.75 M1.75 10.75 C0 9, 0 9, 1.75 6.75 M1.75 10.75 C0 9, 0 9, 1.75 6.75 M1.75 6.75 C2.91 5.26, 4.07 3.77, 5.25 2.25 M1.75 6.75 C2.68 5.56, 3.61 4.36, 5.25 2.25 M5.25 2.25 C7 0, 7 0, 8.5 2.25 M5.25 2.25 C7 0, 7 0, 8.5 2.25" stroke="#495057" stroke-width="1" fill="none"></path></g><g stroke-linecap="round" transform="translate(97 112) rotate(0 6.5 8)"><path d="M8.5 2.25 M8.5 2.25 C9.39 3.59, 10.29 4.93, 11.5 6.75 M8.5 2.25 C9.18 3.27, 9.87 4.3, 11.5 6.75 M11.5 6.75 C13 9, 13 9, 11.5 10.75 M11.5 6.75 C13 9, 13 9, 11.5 10.75 M11.5 10.75 C10.46 11.97, 9.41 13.19, 8.5 14.25 M11.5 10.75 C10.66 11.73, 9.82 12.71, 8.5 14.25 M8.5 14.25 C7 16, 7 16, 5.25 14.25 M8.5 14.25 C7 16, 7 16, 5.25 14.25 M5.25 14.25 C4.12 13.12, 2.99 11.99, 1.75 10.75 M5.25 14.25 C4.21 13.21, 3.17 12.17, 1.75 10.75 M1.75 10.75 C0 9, 0 9, 1.75 6.75 M1.75 10.75 C0 9, 0 9, 1.75 6.75 M1.75 6.75 C2.9 5.27, 4.05 3.8, 5.25 2.25 M1.75 6.75 C2.59 5.67, 3.42 4.6, 5.25 2.25 M5.25 2.25 C7 0, 7 0, 8.5 2.25 M5.25 2.25 C7 0, 7 0, 8.5 2.25" stroke="#495057" stroke-width="1" fill="none"></path></g><g stroke-linecap="round" transform="translate(107 74) rotate(0 6.5 8)"><path d="M8.5 2.25 M8.5 2.25 C9.18 3.27, 9.86 4.28, 11.5 6.75 M8.5 2.25 C9.21 3.31, 9.91 4.37, 11.5 6.75 M11.5 6.75 C13 9, 13 9, 11.5 10.75 M11.5 6.75 C13 9, 13 9, 11.5 10.75 M11.5 10.75 C10.55 11.86, 9.59 12.97, 8.5 14.25 M11.5 10.75 C10.36 12.08, 9.23 13.4, 8.5 14.25 M8.5 14.25 C7 16, 7 16, 5.25 14.25 M8.5 14.25 C7 16, 7 16, 5.25 14.25 M5.25 14.25 C4.48 13.48, 3.71 12.71, 1.75 10.75 M5.25 14.25 C4.16 13.16, 3.06 12.06, 1.75 10.75 M1.75 10.75 C0 9, 0 9, 1.75 6.75 M1.75 10.75 C0 9, 0 9, 1.75 6.75 M1.75 6.75 C2.53 5.74, 3.32 4.74, 5.25 2.25 M1.75 6.75 C2.62 5.63, 3.5 4.5, 5.25 2.25 M5.25 2.25 C7 0, 7 0, 8.5 2.25 M5.25 2.25 C7 0, 7 0, 8.5 2.25" stroke="#495057" stroke-width="1" fill="none"></path></g><g stroke-linecap="round" transform="translate(121 113) rotate(0 6.5 8)"><path d="M8.5 2.25 M8.5 2.25 C9.23 3.35, 9.96 4.44, 11.5 6.75 M8.5 2.25 C9.57 3.86, 10.65 5.47, 11.5 6.75 M11.5 6.75 C13 9, 13 9, 11.5 10.75 M11.5 6.75 C13 9, 13 9, 11.5 10.75 M11.5 10.75 C10.41 12.02, 9.32 13.29, 8.5 14.25 M11.5 10.75 C10.54 11.87, 9.59 12.98, 8.5 14.25 M8.5 14.25 C7 16, 7 16, 5.25 14.25 M8.5 14.25 C7 16, 7 16, 5.25 14.25 M5.25 14.25 C4.4 13.4, 3.54 12.54, 1.75 10.75 M5.25 14.25 C4.38 13.38, 3.5 12.5, 1.75 10.75 M1.75 10.75 C0 9, 0 9, 1.75 6.75 M1.75 10.75 C0 9, 0 9, 1.75 6.75 M1.75 6.75 C3.08 5.03, 4.42 3.32, 5.25 2.25 M1.75 6.75 C2.73 5.48, 3.72 4.22, 5.25 2.25 M5.25 2.25 C7 0, 7 0, 8.5 2.25 M5.25 2.25 C7 0, 7 0, 8.5 2.25" stroke="#495057" stroke-width="1" fill="none"></path></g><g stroke-linecap="round" transform="translate(159 82) rotate(0 6.5 8)"><path d="M8.5 2.25 M8.5 2.25 C9.44 3.66, 10.38 5.07, 11.5 6.75 M8.5 2.25 C9.19 3.29, 9.88 4.33, 11.5 6.75 M11.5 6.75 C13 9, 13 9, 11.5 10.75 M11.5 6.75 C13 9, 13 9, 11.5 10.75 M11.5 10.75 C10.61 11.79, 9.72 12.83, 8.5 14.25 M11.5 10.75 C10.6 11.8, 9.7 12.85, 8.5 14.25 M8.5 14.25 C7 16, 7 16, 5.25 14.25 M8.5 14.25 C7 16, 7 16, 5.25 14.25 M5.25 14.25 C3.88 12.88, 2.51 11.51, 1.75 10.75 M5.25 14.25 C4.11 13.11, 2.98 11.98, 1.75 10.75 M1.75 10.75 C0 9, 0 9, 1.75 6.75 M1.75 10.75 C0 9, 0 9, 1.75 6.75 M1.75 6.75 C2.58 5.69, 3.4 4.62, 5.25 2.25 M1.75 6.75 C2.48 5.81, 3.21 4.88, 5.25 2.25 M5.25 2.25 C7 0, 7 0, 8.5 2.25 M5.25 2.25 C7 0, 7 0, 8.5 2.25" stroke="#495057" stroke-width="1" fill="none"></path></g><g stroke-linecap="round" transform="translate(154 51) rotate(0 6.5 8)"><path d="M8.5 2.25 M8.5 2.25 C9.38 3.57, 10.26 4.89, 11.5 6.75 M8.5 2.25 C9.22 3.34, 9.95 4.42, 11.5 6.75 M11.5 6.75 C13 9, 13 9, 11.5 10.75 M11.5 6.75 C13 9, 13 9, 11.5 10.75 M11.5 10.75 C10.43 12, 9.35 13.26, 8.5 14.25 M11.5 10.75 C10.58 11.83, 9.65 12.91, 8.5 14.25 M8.5 14.25 C7 16, 7 16, 5.25 14.25 M8.5 14.25 C7 16, 7 16, 5.25 14.25 M5.25 14.25 C4.23 13.23, 3.21 12.21, 1.75 10.75 M5.25 14.25 C3.97 12.97, 2.68 11.68, 1.75 10.75 M1.75 10.75 C0 9, 0 9, 1.75 6.75 M1.75 10.75 C0 9, 0 9, 1.75 6.75 M1.75 6.75 C2.81 5.39, 3.86 4.04, 5.25 2.25 M1.75 6.75 C3.14 4.97, 4.52 3.19, 5.25 2.25 M5.25 2.25 C7 0, 7 0, 8.5 2.25 M5.25 2.25 C7 0, 7 0, 8.5 2.25" stroke="#495057" stroke-width="1" fill="none"></path></g><g stroke-linecap="round" transform="translate(194 74) rotate(0 6.5 8)"><path d="M8.5 2.25 M8.5 2.25 C9.23 3.35, 9.97 4.45, 11.5 6.75 M8.5 2.25 C9.37 3.55, 10.23 4.85, 11.5 6.75 M11.5 6.75 C13 9, 13 9, 11.5 10.75 M11.5 6.75 C13 9, 13 9, 11.5 10.75 M11.5 10.75 C10.58 11.82, 9.67 12.89, 8.5 14.25 M11.5 10.75 C10.46 11.96, 9.43 13.17, 8.5 14.25 M8.5 14.25 C7 16, 7 16, 5.25 14.25 M8.5 14.25 C7 16, 7 16, 5.25 14.25 M5.25 14.25 C4.13 13.13, 3 12, 1.75 10.75 M5.25 14.25 C4.23 13.23, 3.22 12.22, 1.75 10.75 M1.75 10.75 C0 9, 0 9, 1.75 6.75 M1.75 10.75 C0 9, 0 9, 1.75 6.75 M1.75 6.75 C2.98 5.17, 4.21 3.59, 5.25 2.25 M1.75 6.75 C2.6 5.65, 3.46 4.55, 5.25 2.25 M5.25 2.25 C7 0, 7 0, 8.5 2.25 M5.25 2.25 C7 0, 7 0, 8.5 2.25" stroke="#495057" stroke-width="1" fill="none"></path></g><g stroke-linecap="round" transform="translate(104 143) rotate(0 6.5 8)"><path d="M8.5 2.25 M8.5 2.25 C9.62 3.93, 10.74 5.61, 11.5 6.75 M8.5 2.25 C9.17 3.25, 9.83 4.25, 11.5 6.75 M11.5 6.75 C13 9, 13 9, 11.5 10.75 M11.5 6.75 C13 9, 13 9, 11.5 10.75 M11.5 10.75 C10.39 12.04, 9.29 13.33, 8.5 14.25 M11.5 10.75 C10.46 11.96, 9.43 13.17, 8.5 14.25 M8.5 14.25 C7 16, 7 16, 5.25 14.25 M8.5 14.25 C7 16, 7 16, 5.25 14.25 M5.25 14.25 C3.91 12.91, 2.57 11.57, 1.75 10.75 M5.25 14.25 C4.11 13.11, 2.97 11.97, 1.75 10.75 M1.75 10.75 C0 9, 0 9, 1.75 6.75 M1.75 10.75 C0 9, 0 9, 1.75 6.75 M1.75 6.75 C2.68 5.56, 3.61 4.36, 5.25 2.25 M1.75 6.75 C2.67 5.56, 3.6 4.38, 5.25 2.25 M5.25 2.25 C7 0, 7 0, 8.5 2.25 M5.25 2.25 C7 0, 7 0, 8.5 2.25" stroke="#495057" stroke-width="1" fill="none"></path></g><g stroke-linecap="round" transform="translate(94 191) rotate(0 6.5 8)"><path d="M8.5 2.25 M8.5 2.25 C9.18 3.27, 9.87 4.3, 11.5 6.75 M8.5 2.25 C9.36 3.54, 10.23 4.84, 11.5 6.75 M11.5 6.75 C13 9, 13 9, 11.5 10.75 M11.5 6.75 C13 9, 13 9, 11.5 10.75 M11.5 10.75 C10.66 11.73, 9.82 12.71, 8.5 14.25 M11.5 10.75 C10.3 12.15, 9.1 13.55, 8.5 14.25 M8.5 14.25 C7 16, 7 16, 5.25 14.25 M8.5 14.25 C7 16, 7 16, 5.25 14.25 M5.25 14.25 C4.21 13.21, 3.17 12.17, 1.75 10.75 M5.25 14.25 C4.27 13.27, 3.29 12.29, 1.75 10.75 M1.75 10.75 C0 9, 0 9, 1.75 6.75 M1.75 10.75 C0 9, 0 9, 1.75 6.75 M1.75 6.75 C2.59 5.67, 3.42 4.6, 5.25 2.25 M1.75 6.75 C3.11 5.01, 4.46 3.26, 5.25 2.25 M5.25 2.25 C7 0, 7 0, 8.5 2.25 M5.25 2.25 C7 0, 7 0, 8.5 2.25" stroke="#495057" stroke-width="1" fill="none"></path></g><g stroke-linecap="round" transform="translate(141 190) rotate(0 6.5 8)"><path d="M8.5 2.25 M8.5 2.25 C9.21 3.31, 9.91 4.37, 11.5 6.75 M8.5 2.25 C9.11 3.17, 9.73 4.09, 11.5 6.75 M11.5 6.75 C13 9, 13 9, 11.5 10.75 M11.5 6.75 C13 9, 13 9, 11.5 10.75 M11.5 10.75 C10.36 12.08, 9.23 13.4, 8.5 14.25 M11.5 10.75 C10.41 12.02, 9.32 13.3, 8.5 14.25 M8.5 14.25 C7 16, 7 16, 5.25 14.25 M8.5 14.25 C7 16, 7 16, 5.25 14.25 M5.25 14.25 C4.16 13.16, 3.06 12.06, 1.75 10.75 M5.25 14.25 C4.15 13.15, 3.06 12.06, 1.75 10.75 M1.75 10.75 C0 9, 0 9, 1.75 6.75 M1.75 10.75 C0 9, 0 9, 1.75 6.75 M1.75 6.75 C2.62 5.63, 3.5 4.5, 5.25 2.25 M1.75 6.75 C2.98 5.17, 4.21 3.59, 5.25 2.25 M5.25 2.25 C7 0, 7 0, 8.5 2.25 M5.25 2.25 C7 0, 7 0, 8.5 2.25" stroke="#495057" stroke-width="1" fill="none"></path></g><g stroke-linecap="round" transform="translate(170 180) rotate(0 6.5 8)"><path d="M8.5 2.25 M8.5 2.25 C9.57 3.86, 10.65 5.47, 11.5 6.75 M8.5 2.25 C9.2 3.29, 9.89 4.34, 11.5 6.75 M11.5 6.75 C13 9, 13 9, 11.5 10.75 M11.5 6.75 C13 9, 13 9, 11.5 10.75 M11.5 10.75 C10.54 11.87, 9.59 12.98, 8.5 14.25 M11.5 10.75 C10.89 11.46, 10.28 12.17, 8.5 14.25 M8.5 14.25 C7 16, 7 16, 5.25 14.25 M8.5 14.25 C7 16, 7 16, 5.25 14.25 M5.25 14.25 C4.38 13.38, 3.5 12.5, 1.75 10.75 M5.25 14.25 C4.06 13.06, 2.87 11.87, 1.75 10.75 M1.75 10.75 C0 9, 0 9, 1.75 6.75 M1.75 10.75 C0 9, 0 9, 1.75 6.75 M1.75 6.75 C2.73 5.48, 3.72 4.22, 5.25 2.25 M1.75 6.75 C3.04 5.09, 4.33 3.43, 5.25 2.25 M5.25 2.25 C7 0, 7 0, 8.5 2.25 M5.25 2.25 C7 0, 7 0, 8.5 2.25" stroke="#495057" stroke-width="1" fill="none"></path></g><g stroke-linecap="round" transform="translate(100 221) rotate(0 6.5 8)"><path d="M8.5 2.25 M8.5 2.25 C9.19 3.29, 9.88 4.33, 11.5 6.75 M8.5 2.25 C9.34 3.51, 10.18 4.78, 11.5 6.75 M11.5 6.75 C13 9, 13 9, 11.5 10.75 M11.5 6.75 C13 9, 13 9, 11.5 10.75 M11.5 10.75 C10.6 11.8, 9.7 12.85, 8.5 14.25 M11.5 10.75 C10.42 12.01, 9.34 13.27, 8.5 14.25 M8.5 14.25 C7 16, 7 16, 5.25 14.25 M8.5 14.25 C7 16, 7 16, 5.25 14.25 M5.25 14.25 C4.11 13.11, 2.98 11.98, 1.75 10.75 M5.25 14.25 C4.36 13.36, 3.47 12.47, 1.75 10.75 M1.75 10.75 C0 9, 0 9, 1.75 6.75 M1.75 10.75 C0 9, 0 9, 1.75 6.75 M1.75 6.75 C2.48 5.81, 3.21 4.88, 5.25 2.25 M1.75 6.75 C2.93 5.23, 4.11 3.72, 5.25 2.25 M5.25 2.25 C7 0, 7 0, 8.5 2.25 M5.25 2.25 C7 0, 7 0, 8.5 2.25" stroke="#495057" stroke-width="1" fill="none"></path></g><g stroke-linecap="round" transform="translate(130 189) rotate(0 6.5 8)"><path d="M8.5 2.25 M8.5 2.25 C9.22 3.34, 9.95 4.42, 11.5 6.75 M8.5 2.25 C9.18 3.28, 9.87 4.3, 11.5 6.75 M11.5 6.75 C13 9, 13 9, 11.5 10.75 M11.5 6.75 C13 9, 13 9, 11.5 10.75 M11.5 10.75 C10.58 11.83, 9.65 12.91, 8.5 14.25 M11.5 10.75 C10.54 11.87, 9.59 12.98, 8.5 14.25 M8.5 14.25 C7 16, 7 16, 5.25 14.25 M8.5 14.25 C7 16, 7 16, 5.25 14.25 M5.25 14.25 C3.97 12.97, 2.68 11.68, 1.75 10.75 M5.25 14.25 C4.31 13.31, 3.36 12.36, 1.75 10.75 M1.75 10.75 C0 9, 0 9, 1.75 6.75 M1.75 10.75 C0 9, 0 9, 1.75 6.75 M1.75 6.75 C3.14 4.97, 4.52 3.19, 5.25 2.25 M1.75 6.75 C3.13 4.98, 4.51 3.2, 5.25 2.25 M5.25 2.25 C7 0, 7 0, 8.5 2.25 M5.25 2.25 C7 0, 7 0, 8.5 2.25" stroke="#495057" stroke-width="1" fill="none"></path></g><g stroke-linecap="round" transform="translate(114 237) rotate(0 6.5 8)"><path d="M8.5 2.25 M8.5 2.25 C9.37 3.55, 10.23 4.85, 11.5 6.75 M8.5 2.25 C9.56 3.85, 10.63 5.44, 11.5 6.75 M11.5 6.75 C13 9, 13 9, 11.5 10.75 M11.5 6.75 C13 9, 13 9, 11.5 10.75 M11.5 10.75 C10.46 11.96, 9.43 13.17, 8.5 14.25 M11.5 10.75 C10.85 11.5, 10.21 12.26, 8.5 14.25 M8.5 14.25 C7 16, 7 16, 5.25 14.25 M8.5 14.25 C7 16, 7 16, 5.25 14.25 M5.25 14.25 C4.23 13.23, 3.22 12.22, 1.75 10.75 M5.25 14.25 C4.42 13.42, 3.6 12.6, 1.75 10.75 M1.75 10.75 C0 9, 0 9, 1.75 6.75 M1.75 10.75 C0 9, 0 9, 1.75 6.75 M1.75 6.75 C2.6 5.65, 3.46 4.55, 5.25 2.25 M1.75 6.75 C2.93 5.24, 4.1 3.73, 5.25 2.25 M5.25 2.25 C7 0, 7 0, 8.5 2.25 M5.25 2.25 C7 0, 7 0, 8.5 2.25" stroke="#495057" stroke-width="1" fill="none"></path></g><g stroke-linecap="round" transform="translate(135 281) rotate(0 6.5 8)"><path d="M8.5 2.25 M8.5 2.25 C9.17 3.25, 9.83 4.25, 11.5 6.75 M8.5 2.25 C9.27 3.4, 10.04 4.55, 11.5 6.75 M11.5 6.75 C13 9, 13 9, 11.5 10.75 M11.5 6.75 C13 9, 13 9, 11.5 10.75 M11.5 10.75 C10.46 11.96, 9.43 13.17, 8.5 14.25 M11.5 10.75 C10.56 11.84, 9.63 12.93, 8.5 14.25 M8.5 14.25 C7 16, 7 16, 5.25 14.25 M8.5 14.25 C7 16, 7 16, 5.25 14.25 M5.25 14.25 C4.11 13.11, 2.97 11.97, 1.75 10.75 M5.25 14.25 C3.88 12.88, 2.51 11.51, 1.75 10.75 M1.75 10.75 C0 9, 0 9, 1.75 6.75 M1.75 10.75 C0 9, 0 9, 1.75 6.75 M1.75 6.75 C2.67 5.56, 3.6 4.38, 5.25 2.25 M1.75 6.75 C2.87 5.31, 3.99 3.86, 5.25 2.25 M5.25 2.25 C7 0, 7 0, 8.5 2.25 M5.25 2.25 C7 0, 7 0, 8.5 2.25" stroke="#495057" stroke-width="1" fill="none"></path></g><g stroke-linecap="round" transform="translate(175 287) rotate(0 6.5 8)"><path d="M8.5 2.25 M8.5 2.25 C9.36 3.54, 10.23 4.84, 11.5 6.75 M8.5 2.25 C9.6 3.9, 10.7 5.55, 11.5 6.75 M11.5 6.75 C13 9, 13 9, 11.5 10.75 M11.5 6.75 C13 9, 13 9, 11.5 10.75 M11.5 10.75 C10.3 12.15, 9.1 13.55, 8.5 14.25 M11.5 10.75 C10.52 11.89, 9.55 13.03, 8.5 14.25 M8.5 14.25 C7 16, 7 16, 5.25 14.25 M8.5 14.25 C7 16, 7 16, 5.25 14.25 M5.25 14.25 C4.27 13.27, 3.29 12.29, 1.75 10.75 M5.25 14.25 C4.09 13.09, 2.93 11.93, 1.75 10.75 M1.75 10.75 C0 9, 0 9, 1.75 6.75 M1.75 10.75 C0 9, 0 9, 1.75 6.75 M1.75 6.75 C3.11 5.01, 4.46 3.26, 5.25 2.25 M1.75 6.75 C2.89 5.29, 4.03 3.82, 5.25 2.25 M5.25 2.25 C7 0, 7 0, 8.5 2.25 M5.25 2.25 C7 0, 7 0, 8.5 2.25" stroke="#495057" stroke-width="1" fill="none"></path></g><g stroke-linecap="round" transform="translate(183 249) rotate(0 6.5 8)"><path d="M8.5 2.25 M8.5 2.25 C9.11 3.17, 9.73 4.09, 11.5 6.75 M8.5 2.25 C9.54 3.82, 10.59 5.38, 11.5 6.75 M11.5 6.75 C13 9, 13 9, 11.5 10.75 M11.5 6.75 C13 9, 13 9, 11.5 10.75 M11.5 10.75 C10.41 12.02, 9.32 13.3, 8.5 14.25 M11.5 10.75 C10.53 11.88, 9.56 13.01, 8.5 14.25 M8.5 14.25 C7 16, 7 16, 5.25 14.25 M8.5 14.25 C7 16, 7 16, 5.25 14.25 M5.25 14.25 C4.15 13.15, 3.06 12.06, 1.75 10.75 M5.25 14.25 C4.1 13.1, 2.95 11.95, 1.75 10.75 M1.75 10.75 C0 9, 0 9, 1.75 6.75 M1.75 10.75 C0 9, 0 9, 1.75 6.75 M1.75 6.75 C2.98 5.17, 4.21 3.59, 5.25 2.25 M1.75 6.75 C2.56 5.71, 3.37 4.67, 5.25 2.25 M5.25 2.25 C7 0, 7 0, 8.5 2.25 M5.25 2.25 C7 0, 7 0, 8.5 2.25" stroke="#495057" stroke-width="1" fill="none"></path></g><g stroke-linecap="round" transform="translate(152 252) rotate(0 6.5 8)"><path d="M8.5 2.25 M8.5 2.25 C9.2 3.29, 9.89 4.34, 11.5 6.75 M8.5 2.25 C9.45 3.68, 10.41 5.11, 11.5 6.75 M11.5 6.75 C13 9, 13 9, 11.5 10.75 M11.5 6.75 C13 9, 13 9, 11.5 10.75 M11.5 10.75 C10.89 11.46, 10.28 12.17, 8.5 14.25 M11.5 10.75 C10.84 11.52, 10.18 12.29, 8.5 14.25 M8.5 14.25 C7 16, 7 16, 5.25 14.25 M8.5 14.25 C7 16, 7 16, 5.25 14.25 M5.25 14.25 C4.06 13.06, 2.87 11.87, 1.75 10.75 M5.25 14.25 C4.47 13.47, 3.68 12.68, 1.75 10.75 M1.75 10.75 C0 9, 0 9, 1.75 6.75 M1.75 10.75 C0 9, 0 9, 1.75 6.75 M1.75 6.75 C3.04 5.09, 4.33 3.43, 5.25 2.25 M1.75 6.75 C3.04 5.09, 4.33 3.43, 5.25 2.25 M5.25 2.25 C7 0, 7 0, 8.5 2.25 M5.25 2.25 C7 0, 7 0, 8.5 2.25" stroke="#495057" stroke-width="1" fill="none"></path></g><g stroke-linecap="round" transform="translate(155 386) rotate(0 6.5 8)"><path d="M8.5 2.25 M8.5 2.25 C9.67 4.01, 10.84 5.76, 11.5 6.75 M8.5 2.25 C9.58 3.87, 10.66 5.49, 11.5 6.75 M11.5 6.75 C13 9, 13 9, 11.5 10.75 M11.5 6.75 C13 9, 13 9, 11.5 10.75 M11.5 10.75 C10.4 12.03, 9.31 13.31, 8.5 14.25 M11.5 10.75 C10.37 12.07, 9.24 13.39, 8.5 14.25 M8.5 14.25 C7 16, 7 16, 5.25 14.25 M8.5 14.25 C7 16, 7 16, 5.25 14.25 M5.25 14.25 C4.35 13.35, 3.45 12.45, 1.75 10.75 M5.25 14.25 C4.21 13.21, 3.18 12.18, 1.75 10.75 M1.75 10.75 C0 9, 0 9, 1.75 6.75 M1.75 10.75 C0 9, 0 9, 1.75 6.75 M1.75 6.75 C2.74 5.48, 3.73 4.21, 5.25 2.25 M1.75 6.75 C3.11 5, 4.48 3.25, 5.25 2.25 M5.25 2.25 C7 0, 7 0, 8.5 2.25 M5.25 2.25 C7 0, 7 0, 8.5 2.25" stroke="#495057" stroke-width="1" fill="none"></path></g><g stroke-linecap="round" transform="translate(114 349) rotate(0 6.5 8)"><path d="M8.5 2.25 M8.5 2.25 C9.14 3.21, 9.77 4.16, 11.5 6.75 M8.5 2.25 C9.19 3.29, 9.89 4.33, 11.5 6.75 M11.5 6.75 C13 9, 13 9, 11.5 10.75 M11.5 6.75 C13 9, 13 9, 11.5 10.75 M11.5 10.75 C10.84 11.53, 10.17 12.3, 8.5 14.25 M11.5 10.75 C10.82 11.55, 10.13 12.35, 8.5 14.25 M8.5 14.25 C7 16, 7 16, 5.25 14.25 M8.5 14.25 C7 16, 7 16, 5.25 14.25 M5.25 14.25 C4.37 13.37, 3.49 12.49, 1.75 10.75 M5.25 14.25 C4.42 13.42, 3.58 12.58, 1.75 10.75 M1.75 10.75 C0 9, 0 9, 1.75 6.75 M1.75 10.75 C0 9, 0 9, 1.75 6.75 M1.75 6.75 C2.65 5.6, 3.54 4.45, 5.25 2.25 M1.75 6.75 C3.11 5.01, 4.46 3.27, 5.25 2.25 M5.25 2.25 C7 0, 7 0, 8.5 2.25 M5.25 2.25 C7 0, 7 0, 8.5 2.25" stroke="#495057" stroke-width="1" fill="none"></path></g><g stroke-linecap="round" transform="translate(103 317) rotate(0 6.5 8)"><path d="M8.5 2.25 M8.5 2.25 C9.16 3.24, 9.83 4.24, 11.5 6.75 M8.5 2.25 C9.2 3.3, 9.9 4.34, 11.5 6.75 M11.5 6.75 C13 9, 13 9, 11.5 10.75 M11.5 6.75 C13 9, 13 9, 11.5 10.75 M11.5 10.75 C10.75 11.62, 10 12.49, 8.5 14.25 M11.5 10.75 C10.72 11.66, 9.93 12.58, 8.5 14.25 M8.5 14.25 C7 16, 7 16, 5.25 14.25 M8.5 14.25 C7 16, 7 16, 5.25 14.25 M5.25 14.25 C3.97 12.97, 2.7 11.7, 1.75 10.75 M5.25 14.25 C4.07 13.07, 2.88 11.88, 1.75 10.75 M1.75 10.75 C0 9, 0 9, 1.75 6.75 M1.75 10.75 C0 9, 0 9, 1.75 6.75 M1.75 6.75 C2.53 5.75, 3.31 4.74, 5.25 2.25 M1.75 6.75 C2.65 5.59, 3.55 4.43, 5.25 2.25 M5.25 2.25 C7 0, 7 0, 8.5 2.25 M5.25 2.25 C7 0, 7 0, 8.5 2.25" stroke="#495057" stroke-width="1" fill="none"></path></g><g stroke-linecap="round" transform="translate(143 327) rotate(0 6.5 8)"><path d="M8.5 2.25 M8.5 2.25 C9.27 3.4, 10.04 4.56, 11.5 6.75 M8.5 2.25 C9.62 3.93, 10.73 5.6, 11.5 6.75 M11.5 6.75 C13 9, 13 9, 11.5 10.75 M11.5 6.75 C13 9, 13 9, 11.5 10.75 M11.5 10.75 C10.66 11.73, 9.82 12.71, 8.5 14.25 M11.5 10.75 C10.38 12.06, 9.26 13.36, 8.5 14.25 M8.5 14.25 C7 16, 7 16, 5.25 14.25 M8.5 14.25 C7 16, 7 16, 5.25 14.25 M5.25 14.25 C4.49 13.49, 3.73 12.73, 1.75 10.75 M5.25 14.25 C4.25 13.25, 3.25 12.25, 1.75 10.75 M1.75 10.75 C0 9, 0 9, 1.75 6.75 M1.75 10.75 C0 9, 0 9, 1.75 6.75 M1.75 6.75 C2.87 5.31, 3.98 3.88, 5.25 2.25 M1.75 6.75 C3.06 5.07, 4.36 3.39, 5.25 2.25 M5.25 2.25 C7 0, 7 0, 8.5 2.25 M5.25 2.25 C7 0, 7 0, 8.5 2.25" stroke="#495057" stroke-width="1" fill="none"></path></g><g stroke-linecap="round" transform="translate(148 365) rotate(0 6.5 8)"><path d="M8.5 2.25 M8.5 2.25 C9.48 3.73, 10.47 5.2, 11.5 6.75 M8.5 2.25 C9.24 3.36, 9.98 4.47, 11.5 6.75 M11.5 6.75 C13 9, 13 9, 11.5 10.75 M11.5 6.75 C13 9, 13 9, 11.5 10.75 M11.5 10.75 C10.65 11.75, 9.79 12.74, 8.5 14.25 M11.5 10.75 C10.57 11.84, 9.64 12.92, 8.5 14.25 M8.5 14.25 C7 16, 7 16, 5.25 14.25 M8.5 14.25 C7 16, 7 16, 5.25 14.25 M5.25 14.25 C4.14 13.14, 3.03 12.03, 1.75 10.75 M5.25 14.25 C4.42 13.42, 3.6 12.6, 1.75 10.75 M1.75 10.75 C0 9, 0 9, 1.75 6.75 M1.75 10.75 C0 9, 0 9, 1.75 6.75 M1.75 6.75 C2.62 5.64, 3.48 4.52, 5.25 2.25 M1.75 6.75 C2.51 5.78, 3.27 4.8, 5.25 2.25 M5.25 2.25 C7 0, 7 0, 8.5 2.25 M5.25 2.25 C7 0, 7 0, 8.5 2.25" stroke="#495057" stroke-width="1" fill="none"></path></g><g stroke-linecap="round" transform="translate(126 71) rotate(0 6.5 8)"><path d="M8.5 2.25 M8.5 2.25 C9.68 4.02, 10.86 5.78, 11.5 6.75 M8.5 2.25 C9.19 3.28, 9.87 4.31, 11.5 6.75 M11.5 6.75 C13 9, 13 9, 11.5 10.75 M11.5 6.75 C13 9, 13 9, 11.5 10.75 M11.5 10.75 C10.32 12.13, 9.14 13.5, 8.5 14.25 M11.5 10.75 C10.62 11.77, 9.75 12.8, 8.5 14.25 M8.5 14.25 C7 16, 7 16, 5.25 14.25 M8.5 14.25 C7 16, 7 16, 5.25 14.25 M5.25 14.25 C3.88 12.88, 2.51 11.51, 1.75 10.75 M5.25 14.25 C4.25 13.25, 3.26 12.26, 1.75 10.75 M1.75 10.75 C0 9, 0 9, 1.75 6.75 M1.75 10.75 C0 9, 0 9, 1.75 6.75 M1.75 6.75 C2.5 5.79, 3.25 4.83, 5.25 2.25 M1.75 6.75 C2.93 5.24, 4.1 3.72, 5.25 2.25 M5.25 2.25 C7 0, 7 0, 8.5 2.25 M5.25 2.25 C7 0, 7 0, 8.5 2.25" stroke="#495057" stroke-width="1" fill="none"></path></g><g stroke-linecap="round" transform="translate(504 56) rotate(0 6.5 8)"><path d="M8.5 2.25 M8.5 2.25 C9.2 3.3, 9.9 4.34, 11.5 6.75 M8.5 2.25 C9.18 3.27, 9.86 4.29, 11.5 6.75 M11.5 6.75 C13 9, 13 9, 11.5 10.75 M11.5 6.75 C13 9, 13 9, 11.5 10.75 M11.5 10.75 C10.45 11.98, 9.4 13.2, 8.5 14.25 M11.5 10.75 C10.75 11.63, 9.99 12.51, 8.5 14.25 M8.5 14.25 C7 16, 7 16, 5.25 14.25 M8.5 14.25 C7 16, 7 16, 5.25 14.25 M5.25 14.25 C4.1 13.1, 2.95 11.95, 1.75 10.75 M5.25 14.25 C4.39 13.39, 3.53 12.53, 1.75 10.75 M1.75 10.75 C0 9, 0 9, 1.75 6.75 M1.75 10.75 C0 9, 0 9, 1.75 6.75 M1.75 6.75 C2.72 5.5, 3.7 4.25, 5.25 2.25 M1.75 6.75 C2.71 5.51, 3.68 4.27, 5.25 2.25 M5.25 2.25 C7 0, 7 0, 8.5 2.25 M5.25 2.25 C7 0, 7 0, 8.5 2.25" stroke="#495057" stroke-width="1" fill="none"></path></g><g stroke-linecap="round" transform="translate(475 30) rotate(0 6.5 8)"><path d="M8.5 2.25 M8.5 2.25 C9.58 3.87, 10.66 5.49, 11.5 6.75 M8.5 2.25 C9.32 3.48, 10.15 4.72, 11.5 6.75 M11.5 6.75 C13 9, 13 9, 11.5 10.75 M11.5 6.75 C13 9, 13 9, 11.5 10.75 M11.5 10.75 C10.37 12.07, 9.24 13.39, 8.5 14.25 M11.5 10.75 C10.54 11.87, 9.59 12.98, 8.5 14.25 M8.5 14.25 C7 16, 7 16, 5.25 14.25 M8.5 14.25 C7 16, 7 16, 5.25 14.25 M5.25 14.25 C4.21 13.21, 3.18 12.18, 1.75 10.75 M5.25 14.25 C4.53 13.53, 3.82 12.82, 1.75 10.75 M1.75 10.75 C0 9, 0 9, 1.75 6.75 M1.75 10.75 C0 9, 0 9, 1.75 6.75 M1.75 6.75 C3.11 5, 4.48 3.25, 5.25 2.25 M1.75 6.75 C2.63 5.62, 3.5 4.5, 5.25 2.25 M5.25 2.25 C7 0, 7 0, 8.5 2.25 M5.25 2.25 C7 0, 7 0, 8.5 2.25" stroke="#495057" stroke-width="1" fill="none"></path></g><g stroke-linecap="round" transform="translate(435 83) rotate(0 6.5 8)"><path d="M8.5 2.25 M8.5 2.25 C9.19 3.29, 9.89 4.33, 11.5 6.75 M8.5 2.25 C9.11 3.17, 9.73 4.09, 11.5 6.75 M11.5 6.75 C13 9, 13 9, 11.5 10.75 M11.5 6.75 C13 9, 13 9, 11.5 10.75 M11.5 10.75 C10.82 11.55, 10.13 12.35, 8.5 14.25 M11.5 10.75 C10.61 11.79, 9.71 12.84, 8.5 14.25 M8.5 14.25 C7 16, 7 16, 5.25 14.25 M8.5 14.25 C7 16, 7 16, 5.25 14.25 M5.25 14.25 C4.42 13.42, 3.58 12.58, 1.75 10.75 M5.25 14.25 C3.9 12.9, 2.55 11.55, 1.75 10.75 M1.75 10.75 C0 9, 0 9, 1.75 6.75 M1.75 10.75 C0 9, 0 9, 1.75 6.75 M1.75 6.75 C3.11 5.01, 4.46 3.27, 5.25 2.25 M1.75 6.75 C2.74 5.48, 3.72 4.22, 5.25 2.25 M5.25 2.25 C7 0, 7 0, 8.5 2.25 M5.25 2.25 C7 0, 7 0, 8.5 2.25" stroke="#495057" stroke-width="1" fill="none"></path></g><g stroke-linecap="round" transform="translate(485 65) rotate(0 6.5 8)"><path d="M8.5 2.25 M8.5 2.25 C9.2 3.3, 9.9 4.34, 11.5 6.75 M8.5 2.25 C9.28 3.42, 10.06 4.59, 11.5 6.75 M11.5 6.75 C13 9, 13 9, 11.5 10.75 M11.5 6.75 C13 9, 13 9, 11.5 10.75 M11.5 10.75 C10.72 11.66, 9.93 12.58, 8.5 14.25 M11.5 10.75 C10.34 12.1, 9.18 13.46, 8.5 14.25 M8.5 14.25 C7 16, 7 16, 5.25 14.25 M8.5 14.25 C7 16, 7 16, 5.25 14.25 M5.25 14.25 C4.07 13.07, 2.88 11.88, 1.75 10.75 M5.25 14.25 C4.08 13.08, 2.9 11.9, 1.75 10.75 M1.75 10.75 C0 9, 0 9, 1.75 6.75 M1.75 10.75 C0 9, 0 9, 1.75 6.75 M1.75 6.75 C2.65 5.59, 3.55 4.43, 5.25 2.25 M1.75 6.75 C2.94 5.21, 4.14 3.68, 5.25 2.25 M5.25 2.25 C7 0, 7 0, 8.5 2.25 M5.25 2.25 C7 0, 7 0, 8.5 2.25" stroke="#495057" stroke-width="1" fill="none"></path></g><g stroke-linecap="round" transform="translate(532 67) rotate(0 6.5 8)"><path d="M8.5 2.25 M8.5 2.25 C9.62 3.93, 10.73 5.6, 11.5 6.75 M8.5 2.25 C9.26 3.4, 10.03 4.54, 11.5 6.75 M11.5 6.75 C13 9, 13 9, 11.5 10.75 M11.5 6.75 C13 9, 13 9, 11.5 10.75 M11.5 10.75 C10.38 12.06, 9.26 13.36, 8.5 14.25 M11.5 10.75 C10.37 12.07, 9.24 13.38, 8.5 14.25 M8.5 14.25 C7 16, 7 16, 5.25 14.25 M8.5 14.25 C7 16, 7 16, 5.25 14.25 M5.25 14.25 C4.25 13.25, 3.25 12.25, 1.75 10.75 M5.25 14.25 C4.34 13.34, 3.43 12.43, 1.75 10.75 M1.75 10.75 C0 9, 0 9, 1.75 6.75 M1.75 10.75 C0 9, 0 9, 1.75 6.75 M1.75 6.75 C3.06 5.07, 4.36 3.39, 5.25 2.25 M1.75 6.75 C2.95 5.21, 4.15 3.67, 5.25 2.25 M5.25 2.25 C7 0, 7 0, 8.5 2.25 M5.25 2.25 C7 0, 7 0, 8.5 2.25" stroke="#495057" stroke-width="1" fill="none"></path></g><g stroke-linecap="round" transform="translate(574 105) rotate(0 6.5 8)"><path d="M8.5 2.25 M8.5 2.25 C9.24 3.36, 9.98 4.47, 11.5 6.75 M8.5 2.25 C9.66 3.99, 10.81 5.72, 11.5 6.75 M11.5 6.75 C13 9, 13 9, 11.5 10.75 M11.5 6.75 C13 9, 13 9, 11.5 10.75 M11.5 10.75 C10.57 11.84, 9.64 12.92, 8.5 14.25 M11.5 10.75 C10.89 11.47, 10.27 12.18, 8.5 14.25 M8.5 14.25 C7 16, 7 16, 5.25 14.25 M8.5 14.25 C7 16, 7 16, 5.25 14.25 M5.25 14.25 C4.42 13.42, 3.6 12.6, 1.75 10.75 M5.25 14.25 C4.3 13.3, 3.35 12.35, 1.75 10.75 M1.75 10.75 C0 9, 0 9, 1.75 6.75 M1.75 10.75 C0 9, 0 9, 1.75 6.75 M1.75 6.75 C2.51 5.78, 3.27 4.8, 5.25 2.25 M1.75 6.75 C2.66 5.58, 3.58 4.4, 5.25 2.25 M5.25 2.25 C7 0, 7 0, 8.5 2.25 M5.25 2.25 C7 0, 7 0, 8.5 2.25" stroke="#495057" stroke-width="1" fill="none"></path></g><g stroke-linecap="round" transform="translate(625 134) rotate(0 6.5 8)"><path d="M8.5 2.25 M8.5 2.25 C9.19 3.28, 9.87 4.31, 11.5 6.75 M8.5 2.25 C9.43 3.64, 10.35 5.03, 11.5 6.75 M11.5 6.75 C13 9, 13 9, 11.5 10.75 M11.5 6.75 C13 9, 13 9, 11.5 10.75 M11.5 10.75 C10.62 11.77, 9.75 12.8, 8.5 14.25 M11.5 10.75 C10.46 11.96, 9.42 13.18, 8.5 14.25 M8.5 14.25 C7 16, 7 16, 5.25 14.25 M8.5 14.25 C7 16, 7 16, 5.25 14.25 M5.25 14.25 C4.25 13.25, 3.26 12.26, 1.75 10.75 M5.25 14.25 C4.26 13.26, 3.26 12.26, 1.75 10.75 M1.75 10.75 C0 9, 0 9, 1.75 6.75 M1.75 10.75 C0 9, 0 9, 1.75 6.75 M1.75 6.75 C2.93 5.24, 4.1 3.72, 5.25 2.25 M1.75 6.75 C2.64 5.61, 3.53 4.46, 5.25 2.25 M5.25 2.25 C7 0, 7 0, 8.5 2.25 M5.25 2.25 C7 0, 7 0, 8.5 2.25" stroke="#495057" stroke-width="1" fill="none"></path></g><g stroke-linecap="round" transform="translate(611 166) rotate(0 6.5 8)"><path d="M8.5 2.25 M8.5 2.25 C9.18 3.27, 9.86 4.29, 11.5 6.75 M8.5 2.25 C9.33 3.5, 10.17 4.75, 11.5 6.75 M11.5 6.75 C13 9, 13 9, 11.5 10.75 M11.5 6.75 C13 9, 13 9, 11.5 10.75 M11.5 10.75 C10.75 11.63, 9.99 12.51, 8.5 14.25 M11.5 10.75 C10.8 11.56, 10.1 12.38, 8.5 14.25 M8.5 14.25 C7 16, 7 16, 5.25 14.25 M8.5 14.25 C7 16, 7 16, 5.25 14.25 M5.25 14.25 C4.39 13.39, 3.53 12.53, 1.75 10.75 M5.25 14.25 C4.27 13.27, 3.29 12.29, 1.75 10.75 M1.75 10.75 C0 9, 0 9, 1.75 6.75 M1.75 10.75 C0 9, 0 9, 1.75 6.75 M1.75 6.75 C2.71 5.51, 3.68 4.27, 5.25 2.25 M1.75 6.75 C2.66 5.57, 3.58 4.4, 5.25 2.25 M5.25 2.25 C7 0, 7 0, 8.5 2.25 M5.25 2.25 C7 0, 7 0, 8.5 2.25" stroke="#495057" stroke-width="1" fill="none"></path></g><g stroke-linecap="round" transform="translate(586 148) rotate(0 6.5 8)"><path d="M8.5 2.25 M8.5 2.25 C9.32 3.48, 10.15 4.72, 11.5 6.75 M8.5 2.25 C9.66 3.99, 10.82 5.74, 11.5 6.75 M11.5 6.75 C13 9, 13 9, 11.5 10.75 M11.5 6.75 C13 9, 13 9, 11.5 10.75 M11.5 10.75 C10.54 11.87, 9.59 12.98, 8.5 14.25 M11.5 10.75 C10.79 11.57, 10.09 12.4, 8.5 14.25 M8.5 14.25 C7 16, 7 16, 5.25 14.25 M8.5 14.25 C7 16, 7 16, 5.25 14.25 M5.25 14.25 C4.53 13.53, 3.82 12.82, 1.75 10.75 M5.25 14.25 C4.16 13.16, 3.07 12.07, 1.75 10.75 M1.75 10.75 C0 9, 0 9, 1.75 6.75 M1.75 10.75 C0 9, 0 9, 1.75 6.75 M1.75 6.75 C2.63 5.62, 3.5 4.5, 5.25 2.25 M1.75 6.75 C2.88 5.3, 4 3.85, 5.25 2.25 M5.25 2.25 C7 0, 7 0, 8.5 2.25 M5.25 2.25 C7 0, 7 0, 8.5 2.25" stroke="#495057" stroke-width="1" fill="none"></path></g><g stroke-linecap="round" transform="translate(599 109) rotate(0 6.5 8)"><path d="M8.5 2.25 M8.5 2.25 C9.11 3.17, 9.73 4.09, 11.5 6.75 M8.5 2.25 C9.6 3.89, 10.69 5.54, 11.5 6.75 M11.5 6.75 C13 9, 13 9, 11.5 10.75 M11.5 6.75 C13 9, 13 9, 11.5 10.75 M11.5 10.75 C10.61 11.79, 9.71 12.84, 8.5 14.25 M11.5 10.75 C10.73 11.65, 9.96 12.55, 8.5 14.25 M8.5 14.25 C7 16, 7 16, 5.25 14.25 M8.5 14.25 C7 16, 7 16, 5.25 14.25 M5.25 14.25 C3.9 12.9, 2.55 11.55, 1.75 10.75 M5.25 14.25 C4.26 13.26, 3.27 12.27, 1.75 10.75 M1.75 10.75 C0 9, 0 9, 1.75 6.75 M1.75 10.75 C0 9, 0 9, 1.75 6.75 M1.75 6.75 C2.74 5.48, 3.72 4.22, 5.25 2.25 M1.75 6.75 C3.05 5.08, 4.35 3.41, 5.25 2.25 M5.25 2.25 C7 0, 7 0, 8.5 2.25 M5.25 2.25 C7 0, 7 0, 8.5 2.25" stroke="#495057" stroke-width="1" fill="none"></path></g><g stroke-linecap="round" transform="translate(559 73) rotate(0 6.5 8)"><path d="M8.5 2.25 M8.5 2.25 C9.28 3.42, 10.06 4.59, 11.5 6.75 M8.5 2.25 C9.16 3.25, 9.83 4.24, 11.5 6.75 M11.5 6.75 C13 9, 13 9, 11.5 10.75 M11.5 6.75 C13 9, 13 9, 11.5 10.75 M11.5 10.75 C10.34 12.1, 9.18 13.46, 8.5 14.25 M11.5 10.75 C10.75 11.63, 9.99 12.51, 8.5 14.25 M8.5 14.25 C7 16, 7 16, 5.25 14.25 M8.5 14.25 C7 16, 7 16, 5.25 14.25 M5.25 14.25 C4.08 13.08, 2.9 11.9, 1.75 10.75 M5.25 14.25 C4.35 13.35, 3.46 12.46, 1.75 10.75 M1.75 10.75 C0 9, 0 9, 1.75 6.75 M1.75 10.75 C0 9, 0 9, 1.75 6.75 M1.75 6.75 C2.94 5.21, 4.14 3.68, 5.25 2.25 M1.75 6.75 C3.11 5, 4.48 3.24, 5.25 2.25 M5.25 2.25 C7 0, 7 0, 8.5 2.25 M5.25 2.25 C7 0, 7 0, 8.5 2.25" stroke="#495057" stroke-width="1" fill="none"></path></g><g stroke-linecap="round" transform="translate(523 19) rotate(0 6.5 8)"><path d="M8.5 2.25 M8.5 2.25 C9.26 3.4, 10.03 4.54, 11.5 6.75 M8.5 2.25 C9.25 3.37, 10 4.49, 11.5 6.75 M11.5 6.75 C13 9, 13 9, 11.5 10.75 M11.5 6.75 C13 9, 13 9, 11.5 10.75 M11.5 10.75 C10.37 12.07, 9.24 13.38, 8.5 14.25 M11.5 10.75 C10.41 12.03, 9.31 13.3, 8.5 14.25 M8.5 14.25 C7 16, 7 16, 5.25 14.25 M8.5 14.25 C7 16, 7 16, 5.25 14.25 M5.25 14.25 C4.34 13.34, 3.43 12.43, 1.75 10.75 M5.25 14.25 C4.47 13.47, 3.69 12.69, 1.75 10.75 M1.75 10.75 C0 9, 0 9, 1.75 6.75 M1.75 10.75 C0 9, 0 9, 1.75 6.75 M1.75 6.75 C2.95 5.21, 4.15 3.67, 5.25 2.25 M1.75 6.75 C3.04 5.09, 4.33 3.43, 5.25 2.25 M5.25 2.25 C7 0, 7 0, 8.5 2.25 M5.25 2.25 C7 0, 7 0, 8.5 2.25" stroke="#495057" stroke-width="1" fill="none"></path></g><g stroke-linecap="round" transform="translate(575 190) rotate(0 6.5 8)"><path d="M8.5 2.25 M8.5 2.25 C9.66 3.99, 10.81 5.72, 11.5 6.75 M8.5 2.25 C9.34 3.51, 10.18 4.77, 11.5 6.75 M11.5 6.75 C13 9, 13 9, 11.5 10.75 M11.5 6.75 C13 9, 13 9, 11.5 10.75 M11.5 10.75 C10.89 11.47, 10.27 12.18, 8.5 14.25 M11.5 10.75 C10.85 11.51, 10.2 12.27, 8.5 14.25 M8.5 14.25 C7 16, 7 16, 5.25 14.25 M8.5 14.25 C7 16, 7 16, 5.25 14.25 M5.25 14.25 C4.3 13.3, 3.35 12.35, 1.75 10.75 M5.25 14.25 C4.13 13.13, 3.02 12.02, 1.75 10.75 M1.75 10.75 C0 9, 0 9, 1.75 6.75 M1.75 10.75 C0 9, 0 9, 1.75 6.75 M1.75 6.75 C2.66 5.58, 3.58 4.4, 5.25 2.25 M1.75 6.75 C2.67 5.57, 3.59 4.38, 5.25 2.25 M5.25 2.25 C7 0, 7 0, 8.5 2.25 M5.25 2.25 C7 0, 7 0, 8.5 2.25" stroke="#495057" stroke-width="1" fill="none"></path></g><g stroke-linecap="round" transform="translate(503 183) rotate(0 6.5 8)"><path d="M8.5 2.25 M8.5 2.25 C9.43 3.64, 10.35 5.03, 11.5 6.75 M8.5 2.25 C9.35 3.53, 10.21 4.81, 11.5 6.75 M11.5 6.75 C13 9, 13 9, 11.5 10.75 M11.5 6.75 C13 9, 13 9, 11.5 10.75 M11.5 10.75 C10.46 11.96, 9.42 13.18, 8.5 14.25 M11.5 10.75 C10.55 11.86, 9.6 12.97, 8.5 14.25 M8.5 14.25 C7 16, 7 16, 5.25 14.25 M8.5 14.25 C7 16, 7 16, 5.25 14.25 M5.25 14.25 C4.26 13.26, 3.26 12.26, 1.75 10.75 M5.25 14.25 C4.38 13.38, 3.52 12.52, 1.75 10.75 M1.75 10.75 C0 9, 0 9, 1.75 6.75 M1.75 10.75 C0 9, 0 9, 1.75 6.75 M1.75 6.75 C2.64 5.61, 3.53 4.46, 5.25 2.25 M1.75 6.75 C3 5.14, 4.26 3.52, 5.25 2.25 M5.25 2.25 C7 0, 7 0, 8.5 2.25 M5.25 2.25 C7 0, 7 0, 8.5 2.25" stroke="#495057" stroke-width="1" fill="none"></path></g><g stroke-linecap="round" transform="translate(497 143) rotate(0 6.5 8)"><path d="M8.5 2.25 M8.5 2.25 C9.33 3.5, 10.17 4.75, 11.5 6.75 M8.5 2.25 C9.68 4.02, 10.86 5.79, 11.5 6.75 M11.5 6.75 C13 9, 13 9, 11.5 10.75 M11.5 6.75 C13 9, 13 9, 11.5 10.75 M11.5 10.75 C10.8 11.56, 10.1 12.38, 8.5 14.25 M11.5 10.75 C10.32 12.12, 9.15 13.49, 8.5 14.25 M8.5 14.25 C7 16, 7 16, 5.25 14.25 M8.5 14.25 C7 16, 7 16, 5.25 14.25 M5.25 14.25 C4.27 13.27, 3.29 12.29, 1.75 10.75 M5.25 14.25 C4.5 13.5, 3.75 12.75, 1.75 10.75 M1.75 10.75 C0 9, 0 9, 1.75 6.75 M1.75 10.75 C0 9, 0 9, 1.75 6.75 M1.75 6.75 C2.66 5.57, 3.58 4.4, 5.25 2.25 M1.75 6.75 C2.92 5.25, 4.08 3.75, 5.25 2.25 M5.25 2.25 C7 0, 7 0, 8.5 2.25 M5.25 2.25 C7 0, 7 0, 8.5 2.25" stroke="#495057" stroke-width="1" fill="none"></path></g><g stroke-linecap="round" transform="translate(551 163) rotate(0 6.5 8)"><path d="M8.5 2.25 M8.5 2.25 C9.66 3.99, 10.82 5.74, 11.5 6.75 M8.5 2.25 C9.55 3.83, 10.6 5.41, 11.5 6.75 M11.5 6.75 C13 9, 13 9, 11.5 10.75 M11.5 6.75 C13 9, 13 9, 11.5 10.75 M11.5 10.75 C10.79 11.57, 10.09 12.4, 8.5 14.25 M11.5 10.75 C10.51 11.9, 9.53 13.05, 8.5 14.25 M8.5 14.25 C7 16, 7 16, 5.25 14.25 M8.5 14.25 C7 16, 7 16, 5.25 14.25 M5.25 14.25 C4.16 13.16, 3.07 12.07, 1.75 10.75 M5.25 14.25 C4.28 13.28, 3.3 12.3, 1.75 10.75 M1.75 10.75 C0 9, 0 9, 1.75 6.75 M1.75 10.75 C0 9, 0 9, 1.75 6.75 M1.75 6.75 C2.88 5.3, 4 3.85, 5.25 2.25 M1.75 6.75 C2.96 5.19, 4.17 3.63, 5.25 2.25 M5.25 2.25 C7 0, 7 0, 8.5 2.25 M5.25 2.25 C7 0, 7 0, 8.5 2.25" stroke="#495057" stroke-width="1" fill="none"></path></g><g stroke-linecap="round" transform="translate(546 232) rotate(0 6.5 8)"><path d="M8.5 2.25 M8.5 2.25 C9.6 3.89, 10.69 5.54, 11.5 6.75 M8.5 2.25 C9.63 3.95, 10.76 5.65, 11.5 6.75 M11.5 6.75 C13 9, 13 9, 11.5 10.75 M11.5 6.75 C13 9, 13 9, 11.5 10.75 M11.5 10.75 C10.73 11.65, 9.96 12.55, 8.5 14.25 M11.5 10.75 C10.61 11.79, 9.72 12.82, 8.5 14.25 M8.5 14.25 C7 16, 7 16, 5.25 14.25 M8.5 14.25 C7 16, 7 16, 5.25 14.25 M5.25 14.25 C4.26 13.26, 3.27 12.27, 1.75 10.75 M5.25 14.25 C3.89 12.89, 2.52 11.52, 1.75 10.75 M1.75 10.75 C0 9, 0 9, 1.75 6.75 M1.75 10.75 C0 9, 0 9, 1.75 6.75 M1.75 6.75 C3.05 5.08, 4.35 3.41, 5.25 2.25 M1.75 6.75 C2.46 5.83, 3.18 4.92, 5.25 2.25 M5.25 2.25 C7 0, 7 0, 8.5 2.25 M5.25 2.25 C7 0, 7 0, 8.5 2.25" stroke="#495057" stroke-width="1" fill="none"></path></g><g stroke-linecap="round" transform="translate(570 248) rotate(0 6.5 8)"><path d="M8.5 2.25 M8.5 2.25 C9.16 3.25, 9.83 4.24, 11.5 6.75 M8.5 2.25 C9.18 3.28, 9.87 4.3, 11.5 6.75 M11.5 6.75 C13 9, 13 9, 11.5 10.75 M11.5 6.75 C13 9, 13 9, 11.5 10.75 M11.5 10.75 C10.75 11.63, 9.99 12.51, 8.5 14.25 M11.5 10.75 C10.79 11.58, 10.07 12.42, 8.5 14.25 M8.5 14.25 C7 16, 7 16, 5.25 14.25 M8.5 14.25 C7 16, 7 16, 5.25 14.25 M5.25 14.25 C4.35 13.35, 3.46 12.46, 1.75 10.75 M5.25 14.25 C3.89 12.89, 2.54 11.54, 1.75 10.75 M1.75 10.75 C0 9, 0 9, 1.75 6.75 M1.75 10.75 C0 9, 0 9, 1.75 6.75 M1.75 6.75 C3.11 5, 4.48 3.24, 5.25 2.25 M1.75 6.75 C2.5 5.79, 3.24 4.83, 5.25 2.25 M5.25 2.25 C7 0, 7 0, 8.5 2.25 M5.25 2.25 C7 0, 7 0, 8.5 2.25" stroke="#495057" stroke-width="1" fill="none"></path></g><g stroke-linecap="round" transform="translate(604 235) rotate(0 6.5 8)"><path d="M8.5 2.25 M8.5 2.25 C9.25 3.37, 10 4.49, 11.5 6.75 M8.5 2.25 C9.28 3.43, 10.07 4.6, 11.5 6.75 M11.5 6.75 C13 9, 13 9, 11.5 10.75 M11.5 6.75 C13 9, 13 9, 11.5 10.75 M11.5 10.75 C10.41 12.03, 9.31 13.3, 8.5 14.25 M11.5 10.75 C10.49 11.93, 9.47 13.12, 8.5 14.25 M8.5 14.25 C7 16, 7 16, 5.25 14.25 M8.5 14.25 C7 16, 7 16, 5.25 14.25 M5.25 14.25 C4.47 13.47, 3.69 12.69, 1.75 10.75 M5.25 14.25 C4.35 13.35, 3.45 12.45, 1.75 10.75 M1.75 10.75 C0 9, 0 9, 1.75 6.75 M1.75 10.75 C0 9, 0 9, 1.75 6.75 M1.75 6.75 C3.04 5.09, 4.33 3.43, 5.25 2.25 M1.75 6.75 C2.85 5.33, 3.96 3.91, 5.25 2.25 M5.25 2.25 C7 0, 7 0, 8.5 2.25 M5.25 2.25 C7 0, 7 0, 8.5 2.25" stroke="#495057" stroke-width="1" fill="none"></path></g><g stroke-linecap="round" transform="translate(631 223) rotate(0 6.5 8)"><path d="M8.5 2.25 M8.5 2.25 C9.34 3.51, 10.18 4.77, 11.5 6.75 M8.5 2.25 C9.62 3.93, 10.74 5.61, 11.5 6.75 M11.5 6.75 C13 9, 13 9, 11.5 10.75 M11.5 6.75 C13 9, 13 9, 11.5 10.75 M11.5 10.75 C10.85 11.51, 10.2 12.27, 8.5 14.25 M11.5 10.75 C10.64 11.75, 9.79 12.75, 8.5 14.25 M8.5 14.25 C7 16, 7 16, 5.25 14.25 M8.5 14.25 C7 16, 7 16, 5.25 14.25 M5.25 14.25 C4.13 13.13, 3.02 12.02, 1.75 10.75 M5.25 14.25 C3.94 12.94, 2.64 11.64, 1.75 10.75 M1.75 10.75 C0 9, 0 9, 1.75 6.75 M1.75 10.75 C0 9, 0 9, 1.75 6.75 M1.75 6.75 C2.67 5.57, 3.59 4.38, 5.25 2.25 M1.75 6.75 C2.77 5.44, 3.79 4.12, 5.25 2.25 M5.25 2.25 C7 0, 7 0, 8.5 2.25 M5.25 2.25 C7 0, 7 0, 8.5 2.25" stroke="#495057" stroke-width="1" fill="none"></path></g><g stroke-linecap="round" transform="translate(534 298) rotate(0 6.5 8)"><path d="M8.5 2.25 M8.5 2.25 C9.35 3.53, 10.21 4.81, 11.5 6.75 M8.5 2.25 C9.43 3.65, 10.36 5.04, 11.5 6.75 M11.5 6.75 C13 9, 13 9, 11.5 10.75 M11.5 6.75 C13 9, 13 9, 11.5 10.75 M11.5 10.75 C10.55 11.86, 9.6 12.97, 8.5 14.25 M11.5 10.75 C10.79 11.58, 10.09 12.4, 8.5 14.25 M8.5 14.25 C7 16, 7 16, 5.25 14.25 M8.5 14.25 C7 16, 7 16, 5.25 14.25 M5.25 14.25 C4.38 13.38, 3.52 12.52, 1.75 10.75 M5.25 14.25 C4.49 13.49, 3.73 12.73, 1.75 10.75 M1.75 10.75 C0 9, 0 9, 1.75 6.75 M1.75 10.75 C0 9, 0 9, 1.75 6.75 M1.75 6.75 C3 5.14, 4.26 3.52, 5.25 2.25 M1.75 6.75 C3.04 5.09, 4.34 3.42, 5.25 2.25 M5.25 2.25 C7 0, 7 0, 8.5 2.25 M5.25 2.25 C7 0, 7 0, 8.5 2.25" stroke="#495057" stroke-width="1" fill="none"></path></g><g stroke-linecap="round" transform="translate(538 260) rotate(0 6.5 8)"><path d="M8.5 2.25 M8.5 2.25 C9.68 4.02, 10.86 5.79, 11.5 6.75 M8.5 2.25 C9.38 3.57, 10.25 4.88, 11.5 6.75 M11.5 6.75 C13 9, 13 9, 11.5 10.75 M11.5 6.75 C13 9, 13 9, 11.5 10.75 M11.5 10.75 C10.32 12.12, 9.15 13.49, 8.5 14.25 M11.5 10.75 C10.65 11.75, 9.79 12.74, 8.5 14.25 M8.5 14.25 C7 16, 7 16, 5.25 14.25 M8.5 14.25 C7 16, 7 16, 5.25 14.25 M5.25 14.25 C4.5 13.5, 3.75 12.75, 1.75 10.75 M5.25 14.25 C4.07 13.07, 2.9 11.9, 1.75 10.75 M1.75 10.75 C0 9, 0 9, 1.75 6.75 M1.75 10.75 C0 9, 0 9, 1.75 6.75 M1.75 6.75 C2.92 5.25, 4.08 3.75, 5.25 2.25 M1.75 6.75 C2.94 5.22, 4.13 3.69, 5.25 2.25 M5.25 2.25 C7 0, 7 0, 8.5 2.25 M5.25 2.25 C7 0, 7 0, 8.5 2.25" stroke="#495057" stroke-width="1" fill="none"></path></g><g stroke-linecap="round" transform="translate(566 276) rotate(0 6.5 8)"><path d="M8.5 2.25 M8.5 2.25 C9.55 3.83, 10.6 5.41, 11.5 6.75 M8.5 2.25 C9.25 3.38, 10.01 4.51, 11.5 6.75 M11.5 6.75 C13 9, 13 9, 11.5 10.75 M11.5 6.75 C13 9, 13 9, 11.5 10.75 M11.5 10.75 C10.51 11.9, 9.53 13.05, 8.5 14.25 M11.5 10.75 C10.76 11.61, 10.02 12.47, 8.5 14.25 M8.5 14.25 C7 16, 7 16, 5.25 14.25 M8.5 14.25 C7 16, 7 16, 5.25 14.25 M5.25 14.25 C4.28 13.28, 3.3 12.3, 1.75 10.75 M5.25 14.25 C4.29 13.29, 3.32 12.32, 1.75 10.75 M1.75 10.75 C0 9, 0 9, 1.75 6.75 M1.75 10.75 C0 9, 0 9, 1.75 6.75 M1.75 6.75 C2.96 5.19, 4.17 3.63, 5.25 2.25 M1.75 6.75 C2.99 5.15, 4.24 3.55, 5.25 2.25 M5.25 2.25 C7 0, 7 0, 8.5 2.25 M5.25 2.25 C7 0, 7 0, 8.5 2.25" stroke="#495057" stroke-width="1" fill="none"></path></g><g stroke-linecap="round" transform="translate(530 403) rotate(0 6.5 8)"><path d="M8.5 2.25 M8.5 2.25 C9.63 3.95, 10.76 5.65, 11.5 6.75 M8.5 2.25 C9.46 3.69, 10.41 5.12, 11.5 6.75 M11.5 6.75 C13 9, 13 9, 11.5 10.75 M11.5 6.75 C13 9, 13 9, 11.5 10.75 M11.5 10.75 C10.61 11.79, 9.72 12.82, 8.5 14.25 M11.5 10.75 C10.89 11.47, 10.27 12.18, 8.5 14.25 M8.5 14.25 C7 16, 7 16, 5.25 14.25 M8.5 14.25 C7 16, 7 16, 5.25 14.25 M5.25 14.25 C3.89 12.89, 2.52 11.52, 1.75 10.75 M5.25 14.25 C4.37 13.37, 3.5 12.5, 1.75 10.75 M1.75 10.75 C0 9, 0 9, 1.75 6.75 M1.75 10.75 C0 9, 0 9, 1.75 6.75 M1.75 6.75 C2.46 5.83, 3.18 4.92, 5.25 2.25 M1.75 6.75 C2.85 5.33, 3.95 3.92, 5.25 2.25 M5.25 2.25 C7 0, 7 0, 8.5 2.25 M5.25 2.25 C7 0, 7 0, 8.5 2.25" stroke="#495057" stroke-width="1" fill="none"></path></g><g stroke-linecap="round" transform="translate(579 368) rotate(0 6.5 8)"><path d="M8.5 2.25 M8.5 2.25 C9.18 3.28, 9.87 4.3, 11.5 6.75 M8.5 2.25 C9.39 3.59, 10.29 4.93, 11.5 6.75 M11.5 6.75 C13 9, 13 9, 11.5 10.75 M11.5 6.75 C13 9, 13 9, 11.5 10.75 M11.5 10.75 C10.79 11.58, 10.07 12.42, 8.5 14.25 M11.5 10.75 C10.34 12.1, 9.18 13.45, 8.5 14.25 M8.5 14.25 C7 16, 7 16, 5.25 14.25 M8.5 14.25 C7 16, 7 16, 5.25 14.25 M5.25 14.25 C3.89 12.89, 2.54 11.54, 1.75 10.75 M5.25 14.25 C4.26 13.26, 3.28 12.28, 1.75 10.75 M1.75 10.75 C0 9, 0 9, 1.75 6.75 M1.75 10.75 C0 9, 0 9, 1.75 6.75 M1.75 6.75 C2.5 5.79, 3.24 4.83, 5.25 2.25 M1.75 6.75 C3.06 5.07, 4.36 3.39, 5.25 2.25 M5.25 2.25 C7 0, 7 0, 8.5 2.25 M5.25 2.25 C7 0, 7 0, 8.5 2.25" stroke="#495057" stroke-width="1" fill="none"></path></g><g stroke-linecap="round" transform="translate(587 357) rotate(0 6.5 8)"><path d="M8.5 2.25 M8.5 2.25 C9.28 3.43, 10.07 4.6, 11.5 6.75 M8.5 2.25 C9.66 3.99, 10.82 5.73, 11.5 6.75 M11.5 6.75 C13 9, 13 9, 11.5 10.75 M11.5 6.75 C13 9, 13 9, 11.5 10.75 M11.5 10.75 C10.49 11.93, 9.47 13.12, 8.5 14.25 M11.5 10.75 C10.49 11.92, 9.49 13.1, 8.5 14.25 M8.5 14.25 C7 16, 7 16, 5.25 14.25 M8.5 14.25 C7 16, 7 16, 5.25 14.25 M5.25 14.25 C4.35 13.35, 3.45 12.45, 1.75 10.75 M5.25 14.25 C4.06 13.06, 2.86 11.86, 1.75 10.75 M1.75 10.75 C0 9, 0 9, 1.75 6.75 M1.75 10.75 C0 9, 0 9, 1.75 6.75 M1.75 6.75 C2.85 5.33, 3.96 3.91, 5.25 2.25 M1.75 6.75 C2.98 5.17, 4.21 3.59, 5.25 2.25 M5.25 2.25 C7 0, 7 0, 8.5 2.25 M5.25 2.25 C7 0, 7 0, 8.5 2.25" stroke="#495057" stroke-width="1" fill="none"></path></g><g stroke-linecap="round" transform="translate(619 307) rotate(0 6.5 8)"><path d="M8.5 2.25 M8.5 2.25 C9.62 3.93, 10.74 5.61, 11.5 6.75 M8.5 2.25 C9.63 3.94, 10.76 5.63, 11.5 6.75 M11.5 6.75 C13 9, 13 9, 11.5 10.75 M11.5 6.75 C13 9, 13 9, 11.5 10.75 M11.5 10.75 C10.64 11.75, 9.79 12.75, 8.5 14.25 M11.5 10.75 C10.72 11.66, 9.94 12.57, 8.5 14.25 M8.5 14.25 C7 16, 7 16, 5.25 14.25 M8.5 14.25 C7 16, 7 16, 5.25 14.25 M5.25 14.25 C3.94 12.94, 2.64 11.64, 1.75 10.75 M5.25 14.25 C4.05 13.05, 2.85 11.85, 1.75 10.75 M1.75 10.75 C0 9, 0 9, 1.75 6.75 M1.75 10.75 C0 9, 0 9, 1.75 6.75 M1.75 6.75 C2.77 5.44, 3.79 4.12, 5.25 2.25 M1.75 6.75 C2.66 5.58, 3.57 4.41, 5.25 2.25 M5.25 2.25 C7 0, 7 0, 8.5 2.25 M5.25 2.25 C7 0, 7 0, 8.5 2.25" stroke="#495057" stroke-width="1" fill="none"></path></g><g stroke-linecap="round" transform="translate(627 265) rotate(0 6.5 8)"><path d="M8.5 2.25 M8.5 2.25 C9.43 3.65, 10.36 5.04, 11.5 6.75 M8.5 2.25 C9.11 3.17, 9.73 4.09, 11.5 6.75 M11.5 6.75 C13 9, 13 9, 11.5 10.75 M11.5 6.75 C13 9, 13 9, 11.5 10.75 M11.5 10.75 C10.79 11.58, 10.09 12.4, 8.5 14.25 M11.5 10.75 C10.69 11.7, 9.87 12.65, 8.5 14.25 M8.5 14.25 C7 16, 7 16, 5.25 14.25 M8.5 14.25 C7 16, 7 16, 5.25 14.25 M5.25 14.25 C4.49 13.49, 3.73 12.73, 1.75 10.75 M5.25 14.25 C4.34 13.34, 3.42 12.42, 1.75 10.75 M1.75 10.75 C0 9, 0 9, 1.75 6.75 M1.75 10.75 C0 9, 0 9, 1.75 6.75 M1.75 6.75 C3.04 5.09, 4.34 3.42, 5.25 2.25 M1.75 6.75 C2.92 5.24, 4.1 3.73, 5.25 2.25 M5.25 2.25 C7 0, 7 0, 8.5 2.25 M5.25 2.25 C7 0, 7 0, 8.5 2.25" stroke="#495057" stroke-width="1" fill="none"></path></g><g stroke-linecap="round" transform="translate(640 239) rotate(0 6.5 8)"><path d="M8.5 2.25 M8.5 2.25 C9.38 3.57, 10.25 4.88, 11.5 6.75 M8.5 2.25 C9.54 3.81, 10.58 5.37, 11.5 6.75 M11.5 6.75 C13 9, 13 9, 11.5 10.75 M11.5 6.75 C13 9, 13 9, 11.5 10.75 M11.5 10.75 C10.65 11.75, 9.79 12.74, 8.5 14.25 M11.5 10.75 C10.65 11.74, 9.79 12.74, 8.5 14.25 M8.5 14.25 C7 16, 7 16, 5.25 14.25 M8.5 14.25 C7 16, 7 16, 5.25 14.25 M5.25 14.25 C4.07 13.07, 2.9 11.9, 1.75 10.75 M5.25 14.25 C4.36 13.36, 3.47 12.47, 1.75 10.75 M1.75 10.75 C0 9, 0 9, 1.75 6.75 M1.75 10.75 C0 9, 0 9, 1.75 6.75 M1.75 6.75 C2.94 5.22, 4.13 3.69, 5.25 2.25 M1.75 6.75 C2.5 5.79, 3.25 4.82, 5.25 2.25 M5.25 2.25 C7 0, 7 0, 8.5 2.25 M5.25 2.25 C7 0, 7 0, 8.5 2.25" stroke="#495057" stroke-width="1" fill="none"></path></g><g stroke-linecap="round" transform="translate(583 328) rotate(0 6.5 8)"><path d="M8.5 2.25 M8.5 2.25 C9.25 3.38, 10.01 4.51, 11.5 6.75 M8.5 2.25 C9.2 3.3, 9.9 4.34, 11.5 6.75 M11.5 6.75 C13 9, 13 9, 11.5 10.75 M11.5 6.75 C13 9, 13 9, 11.5 10.75 M11.5 10.75 C10.76 11.61, 10.02 12.47, 8.5 14.25 M11.5 10.75 C10.66 11.73, 9.82 12.71, 8.5 14.25 M8.5 14.25 C7 16, 7 16, 5.25 14.25 M8.5 14.25 C7 16, 7 16, 5.25 14.25 M5.25 14.25 C4.29 13.29, 3.32 12.32, 1.75 10.75 M5.25 14.25 C4.34 13.34, 3.42 12.42, 1.75 10.75 M1.75 10.75 C0 9, 0 9, 1.75 6.75 M1.75 10.75 C0 9, 0 9, 1.75 6.75 M1.75 6.75 C2.99 5.15, 4.24 3.55, 5.25 2.25 M1.75 6.75 C2.72 5.5, 3.69 4.25, 5.25 2.25 M5.25 2.25 C7 0, 7 0, 8.5 2.25 M5.25 2.25 C7 0, 7 0, 8.5 2.25" stroke="#495057" stroke-width="1" fill="none"></path></g><g stroke-linecap="round" transform="translate(550 384) rotate(0 6.5 8)"><path d="M8.5 2.25 M8.5 2.25 C9.46 3.69, 10.41 5.12, 11.5 6.75 M8.5 2.25 C9.21 3.31, 9.91 4.37, 11.5 6.75 M11.5 6.75 C13 9, 13 9, 11.5 10.75 M11.5 6.75 C13 9, 13 9, 11.5 10.75 M11.5 10.75 C10.89 11.47, 10.27 12.18, 8.5 14.25 M11.5 10.75 C10.57 11.84, 9.63 12.93, 8.5 14.25 M8.5 14.25 C7 16, 7 16, 5.25 14.25 M8.5 14.25 C7 16, 7 16, 5.25 14.25 M5.25 14.25 C4.37 13.37, 3.5 12.5, 1.75 10.75 M5.25 14.25 C4.12 13.12, 3 12, 1.75 10.75 M1.75 10.75 C0 9, 0 9, 1.75 6.75 M1.75 10.75 C0 9, 0 9, 1.75 6.75 M1.75 6.75 C2.85 5.33, 3.95 3.92, 5.25 2.25 M1.75 6.75 C2.53 5.75, 3.31 4.75, 5.25 2.25 M5.25 2.25 C7 0, 7 0, 8.5 2.25 M5.25 2.25 C7 0, 7 0, 8.5 2.25" stroke="#495057" stroke-width="1" fill="none"></path></g><g stroke-linecap="round" transform="translate(496 374) rotate(0 6.5 8)"><path d="M8.5 2.25 M8.5 2.25 C9.39 3.59, 10.29 4.93, 11.5 6.75 M8.5 2.25 C9.27 3.41, 10.04 4.56, 11.5 6.75 M11.5 6.75 C13 9, 13 9, 11.5 10.75 M11.5 6.75 C13 9, 13 9, 11.5 10.75 M11.5 10.75 C10.34 12.1, 9.18 13.45, 8.5 14.25 M11.5 10.75 C10.65 11.74, 9.8 12.73, 8.5 14.25 M8.5 14.25 C7 16, 7 16, 5.25 14.25 M8.5 14.25 C7 16, 7 16, 5.25 14.25 M5.25 14.25 C4.26 13.26, 3.28 12.28, 1.75 10.75 M5.25 14.25 C3.95 12.95, 2.65 11.65, 1.75 10.75 M1.75 10.75 C0 9, 0 9, 1.75 6.75 M1.75 10.75 C0 9, 0 9, 1.75 6.75 M1.75 6.75 C3.06 5.07, 4.36 3.39, 5.25 2.25 M1.75 6.75 C2.76 5.45, 3.78 4.15, 5.25 2.25 M5.25 2.25 C7 0, 7 0, 8.5 2.25 M5.25 2.25 C7 0, 7 0, 8.5 2.25" stroke="#495057" stroke-width="1" fill="none"></path></g><g stroke-linecap="round" transform="translate(485 410) rotate(0 6.5 8)"><path d="M8.5 2.25 M8.5 2.25 C9.66 3.99, 10.82 5.73, 11.5 6.75 M8.5 2.25 C9.25 3.38, 10.01 4.51, 11.5 6.75 M11.5 6.75 C13 9, 13 9, 11.5 10.75 M11.5 6.75 C13 9, 13 9, 11.5 10.75 M11.5 10.75 C10.49 11.92, 9.49 13.1, 8.5 14.25 M11.5 10.75 C10.73 11.65, 9.96 12.54, 8.5 14.25 M8.5 14.25 C7 16, 7 16, 5.25 14.25 M8.5 14.25 C7 16, 7 16, 5.25 14.25 M5.25 14.25 C4.06 13.06, 2.86 11.86, 1.75 10.75 M5.25 14.25 C3.89 12.89, 2.52 11.52, 1.75 10.75 M1.75 10.75 C0 9, 0 9, 1.75 6.75 M1.75 10.75 C0 9, 0 9, 1.75 6.75 M1.75 6.75 C2.98 5.17, 4.21 3.59, 5.25 2.25 M1.75 6.75 C2.73 5.49, 3.72 4.22, 5.25 2.25 M5.25 2.25 C7 0, 7 0, 8.5 2.25 M5.25 2.25 C7 0, 7 0, 8.5 2.25" stroke="#495057" stroke-width="1" fill="none"></path></g><g stroke-linecap="round" transform="translate(613 352) rotate(0 6.5 8)"><path d="M8.5 2.25 M8.5 2.25 C9.63 3.94, 10.76 5.63, 11.5 6.75 M8.5 2.25 C9.59 3.89, 10.69 5.53, 11.5 6.75 M11.5 6.75 C13 9, 13 9, 11.5 10.75 M11.5 6.75 C13 9, 13 9, 11.5 10.75 M11.5 10.75 C10.72 11.66, 9.94 12.57, 8.5 14.25 M11.5 10.75 C10.83 11.53, 10.16 12.31, 8.5 14.25 M8.5 14.25 C7 16, 7 16, 5.25 14.25 M8.5 14.25 C7 16, 7 16, 5.25 14.25 M5.25 14.25 C4.05 13.05, 2.85 11.85, 1.75 10.75 M5.25 14.25 C3.96 12.96, 2.67 11.67, 1.75 10.75 M1.75 10.75 C0 9, 0 9, 1.75 6.75 M1.75 10.75 C0 9, 0 9, 1.75 6.75 M1.75 6.75 C2.66 5.58, 3.57 4.41, 5.25 2.25 M1.75 6.75 C3 5.14, 4.26 3.53, 5.25 2.25 M5.25 2.25 C7 0, 7 0, 8.5 2.25 M5.25 2.25 C7 0, 7 0, 8.5 2.25" stroke="#495057" stroke-width="1" fill="none"></path></g><g stroke-linecap="round" transform="translate(584 406) rotate(0 6.5 8)"><path d="M8.5 2.25 M8.5 2.25 C9.11 3.17, 9.73 4.09, 11.5 6.75 M8.5 2.25 C9.15 3.23, 9.8 4.2, 11.5 6.75 M11.5 6.75 C13 9, 13 9, 11.5 10.75 M11.5 6.75 C13 9, 13 9, 11.5 10.75 M11.5 10.75 C10.69 11.7, 9.87 12.65, 8.5 14.25 M11.5 10.75 C10.54 11.87, 9.59 12.98, 8.5 14.25 M8.5 14.25 C7 16, 7 16, 5.25 14.25 M8.5 14.25 C7 16, 7 16, 5.25 14.25 M5.25 14.25 C4.34 13.34, 3.42 12.42, 1.75 10.75 M5.25 14.25 C4.33 13.33, 3.41 12.41, 1.75 10.75 M1.75 10.75 C0 9, 0 9, 1.75 6.75 M1.75 10.75 C0 9, 0 9, 1.75 6.75 M1.75 6.75 C2.92 5.24, 4.1 3.73, 5.25 2.25 M1.75 6.75 C2.54 5.74, 3.32 4.73, 5.25 2.25 M5.25 2.25 C7 0, 7 0, 8.5 2.25 M5.25 2.25 C7 0, 7 0, 8.5 2.25" stroke="#495057" stroke-width="1" fill="none"></path></g><g stroke-linecap="round" transform="translate(555 358) rotate(0 6.5 8)"><path d="M8.5 2.25 M8.5 2.25 C9.54 3.81, 10.58 5.37, 11.5 6.75 M8.5 2.25 C9.45 3.68, 10.4 5.11, 11.5 6.75 M11.5 6.75 C13 9, 13 9, 11.5 10.75 M11.5 6.75 C13 9, 13 9, 11.5 10.75 M11.5 10.75 C10.65 11.74, 9.79 12.74, 8.5 14.25 M11.5 10.75 C10.76 11.62, 10.02 12.48, 8.5 14.25 M8.5 14.25 C7 16, 7 16, 5.25 14.25 M8.5 14.25 C7 16, 7 16, 5.25 14.25 M5.25 14.25 C4.36 13.36, 3.47 12.47, 1.75 10.75 M5.25 14.25 C4 13, 2.74 11.74, 1.75 10.75 M1.75 10.75 C0 9, 0 9, 1.75 6.75 M1.75 10.75 C0 9, 0 9, 1.75 6.75 M1.75 6.75 C2.5 5.79, 3.25 4.82, 5.25 2.25 M1.75 6.75 C2.88 5.3, 4.01 3.85, 5.25 2.25 M5.25 2.25 C7 0, 7 0, 8.5 2.25 M5.25 2.25 C7 0, 7 0, 8.5 2.25" stroke="#495057" stroke-width="1" fill="none"></path></g><g stroke-linecap="round" transform="translate(650 291) rotate(0 6.5 8)"><path d="M8.5 2.25 M8.5 2.25 C9.2 3.3, 9.9 4.34, 11.5 6.75 M8.5 2.25 C9.68 4.01, 10.85 5.78, 11.5 6.75 M11.5 6.75 C13 9, 13 9, 11.5 10.75 M11.5 6.75 C13 9, 13 9, 11.5 10.75 M11.5 10.75 C10.66 11.73, 9.82 12.71, 8.5 14.25 M11.5 10.75 C10.86 11.5, 10.22 12.25, 8.5 14.25 M8.5 14.25 C7 16, 7 16, 5.25 14.25 M8.5 14.25 C7 16, 7 16, 5.25 14.25 M5.25 14.25 C4.34 13.34, 3.42 12.42, 1.75 10.75 M5.25 14.25 C4.08 13.08, 2.92 11.92, 1.75 10.75 M1.75 10.75 C0 9, 0 9, 1.75 6.75 M1.75 10.75 C0 9, 0 9, 1.75 6.75 M1.75 6.75 C2.72 5.5, 3.69 4.25, 5.25 2.25 M1.75 6.75 C2.97 5.18, 4.19 3.61, 5.25 2.25 M5.25 2.25 C7 0, 7 0, 8.5 2.25 M5.25 2.25 C7 0, 7 0, 8.5 2.25" stroke="#495057" stroke-width="1" fill="none"></path></g><g stroke-linecap="round" transform="translate(277 50) rotate(0 6.5 8)"><path d="M8.5 2.25 M8.5 2.25 C9.27 3.41, 10.04 4.56, 11.5 6.75 M8.5 2.25 C9.39 3.58, 10.28 4.92, 11.5 6.75 M11.5 6.75 C13 9, 13 9, 11.5 10.75 M11.5 6.75 C13 9, 13 9, 11.5 10.75 M11.5 10.75 C10.65 11.74, 9.8 12.73, 8.5 14.25 M11.5 10.75 C10.33 12.11, 9.16 13.48, 8.5 14.25 M8.5 14.25 C7 16, 7 16, 5.25 14.25 M8.5 14.25 C7 16, 7 16, 5.25 14.25 M5.25 14.25 C3.95 12.95, 2.65 11.65, 1.75 10.75 M5.25 14.25 C4.54 13.54, 3.82 12.82, 1.75 10.75 M1.75 10.75 C0 9, 0 9, 1.75 6.75 M1.75 10.75 C0 9, 0 9, 1.75 6.75 M1.75 6.75 C2.76 5.45, 3.78 4.15, 5.25 2.25 M1.75 6.75 C2.57 5.69, 3.4 4.63, 5.25 2.25 M5.25 2.25 C7 0, 7 0, 8.5 2.25 M5.25 2.25 C7 0, 7 0, 8.5 2.25" stroke="#495057" stroke-width="1" fill="none"></path></g><g stroke-linecap="round" transform="translate(296 69) rotate(0 6.5 8)"><path d="M8.5 2.25 M8.5 2.25 C9.25 3.38, 10.01 4.51, 11.5 6.75 M8.5 2.25 C9.21 3.32, 9.93 4.39, 11.5 6.75 M11.5 6.75 C13 9, 13 9, 11.5 10.75 M11.5 6.75 C13 9, 13 9, 11.5 10.75 M11.5 10.75 C10.73 11.65, 9.96 12.54, 8.5 14.25 M11.5 10.75 C10.34 12.11, 9.18 13.46, 8.5 14.25 M8.5 14.25 C7 16, 7 16, 5.25 14.25 M8.5 14.25 C7 16, 7 16, 5.25 14.25 M5.25 14.25 C3.89 12.89, 2.52 11.52, 1.75 10.75 M5.25 14.25 C4.5 13.5, 3.76 12.76, 1.75 10.75 M1.75 10.75 C0 9, 0 9, 1.75 6.75 M1.75 10.75 C0 9, 0 9, 1.75 6.75 M1.75 6.75 C2.73 5.49, 3.72 4.22, 5.25 2.25 M1.75 6.75 C3.13 4.98, 4.51 3.2, 5.25 2.25 M5.25 2.25 C7 0, 7 0, 8.5 2.25 M5.25 2.25 C7 0, 7 0, 8.5 2.25" stroke="#495057" stroke-width="1" fill="none"></path></g><g stroke-linecap="round" transform="translate(320 91) rotate(0 6.5 8)"><path d="M8.5 2.25 M8.5 2.25 C9.15 3.23, 9.8 4.2, 11.5 6.75 M8.5 2.25 C9.36 3.53, 10.21 4.82, 11.5 6.75 M11.5 6.75 C13 9, 13 9, 11.5 10.75 M11.5 6.75 C13 9, 13 9, 11.5 10.75 M11.5 10.75 C10.54 11.87, 9.59 12.98, 8.5 14.25 M11.5 10.75 C10.38 12.06, 9.26 13.36, 8.5 14.25 M8.5 14.25 C7 16, 7 16, 5.25 14.25 M8.5 14.25 C7 16, 7 16, 5.25 14.25 M5.25 14.25 C4.33 13.33, 3.41 12.41, 1.75 10.75 M5.25 14.25 C4.23 13.23, 3.21 12.21, 1.75 10.75 M1.75 10.75 C0 9, 0 9, 1.75 6.75 M1.75 10.75 C0 9, 0 9, 1.75 6.75 M1.75 6.75 C2.54 5.74, 3.32 4.73, 5.25 2.25 M1.75 6.75 C2.47 5.82, 3.2 4.89, 5.25 2.25 M5.25 2.25 C7 0, 7 0, 8.5 2.25 M5.25 2.25 C7 0, 7 0, 8.5 2.25" stroke="#495057" stroke-width="1" fill="none"></path></g><g stroke-linecap="round" transform="translate(345 116) rotate(0 6.5 8)"><path d="M8.5 2.25 M8.5 2.25 C9.45 3.68, 10.4 5.11, 11.5 6.75 M8.5 2.25 C9.21 3.31, 9.91 4.37, 11.5 6.75 M11.5 6.75 C13 9, 13 9, 11.5 10.75 M11.5 6.75 C13 9, 13 9, 11.5 10.75 M11.5 10.75 C10.76 11.62, 10.02 12.48, 8.5 14.25 M11.5 10.75 C10.85 11.51, 10.2 12.27, 8.5 14.25 M8.5 14.25 C7 16, 7 16, 5.25 14.25 M8.5 14.25 C7 16, 7 16, 5.25 14.25 M5.25 14.25 C4 13, 2.74 11.74, 1.75 10.75 M5.25 14.25 C3.96 12.96, 2.66 11.66, 1.75 10.75 M1.75 10.75 C0 9, 0 9, 1.75 6.75 M1.75 10.75 C0 9, 0 9, 1.75 6.75 M1.75 6.75 C2.88 5.3, 4.01 3.85, 5.25 2.25 M1.75 6.75 C2.49 5.8, 3.23 4.85, 5.25 2.25 M5.25 2.25 C7 0, 7 0, 8.5 2.25 M5.25 2.25 C7 0, 7 0, 8.5 2.25" stroke="#495057" stroke-width="1" fill="none"></path></g><g stroke-linecap="round" transform="translate(293 97) rotate(0 6.5 8)"><path d="M8.5 2.25 M8.5 2.25 C9.14 3.21, 9.77 4.16, 11.5 6.75 M8.5 2.25 C9.43 3.64, 10.36 5.04, 11.5 6.75 M11.5 6.75 C13 9, 13 9, 11.5 10.75 M11.5 6.75 C13 9, 13 9, 11.5 10.75 M11.5 10.75 C10.68 11.71, 9.85 12.67, 8.5 14.25 M11.5 10.75 C10.3 12.15, 9.1 13.55, 8.5 14.25 M8.5 14.25 C7 16, 7 16, 5.25 14.25 M8.5 14.25 C7 16, 7 16, 5.25 14.25 M5.25 14.25 C4.25 13.25, 3.25 12.25, 1.75 10.75 M5.25 14.25 C4.09 13.09, 2.94 11.94, 1.75 10.75 M1.75 10.75 C0 9, 0 9, 1.75 6.75 M1.75 10.75 C0 9, 0 9, 1.75 6.75 M1.75 6.75 C3.03 5.11, 4.3 3.47, 5.25 2.25 M1.75 6.75 C3.13 4.97, 4.51 3.2, 5.25 2.25 M5.25 2.25 C7 0, 7 0, 8.5 2.25 M5.25 2.25 C7 0, 7 0, 8.5 2.25" stroke="#495057" stroke-width="1" fill="none"></path></g><g stroke-linecap="round" transform="translate(313 125) rotate(0 6.5 8)"><path d="M8.5 2.25 M8.5 2.25 C9.3 3.46, 10.11 4.66, 11.5 6.75 M8.5 2.25 C9.44 3.66, 10.38 5.07, 11.5 6.75 M11.5 6.75 C13 9, 13 9, 11.5 10.75 M11.5 6.75 C13 9, 13 9, 11.5 10.75 M11.5 10.75 C10.62 11.77, 9.75 12.8, 8.5 14.25 M11.5 10.75 C10.46 11.96, 9.43 13.17, 8.5 14.25 M8.5 14.25 C7 16, 7 16, 5.25 14.25 M8.5 14.25 C7 16, 7 16, 5.25 14.25 M5.25 14.25 C3.87 12.87, 2.5 11.5, 1.75 10.75 M5.25 14.25 C3.93 12.93, 2.6 11.6, 1.75 10.75 M1.75 10.75 C0 9, 0 9, 1.75 6.75 M1.75 10.75 C0 9, 0 9, 1.75 6.75 M1.75 6.75 C2.78 5.42, 3.82 4.09, 5.25 2.25 M1.75 6.75 C2.6 5.66, 3.44 4.58, 5.25 2.25 M5.25 2.25 C7 0, 7 0, 8.5 2.25 M5.25 2.25 C7 0, 7 0, 8.5 2.25" stroke="#495057" stroke-width="1" fill="none"></path></g><g stroke-linecap="round" transform="translate(334 165) rotate(0 6.5 8)"><path d="M8.5 2.25 M8.5 2.25 C9.24 3.36, 9.98 4.47, 11.5 6.75 M8.5 2.25 C9.57 3.86, 10.64 5.47, 11.5 6.75 M11.5 6.75 C13 9, 13 9, 11.5 10.75 M11.5 6.75 C13 9, 13 9, 11.5 10.75 M11.5 10.75 C10.64 11.75, 9.78 12.75, 8.5 14.25 M11.5 10.75 C10.47 11.95, 9.44 13.16, 8.5 14.25 M8.5 14.25 C7 16, 7 16, 5.25 14.25 M8.5 14.25 C7 16, 7 16, 5.25 14.25 M5.25 14.25 C4 13, 2.75 11.75, 1.75 10.75 M5.25 14.25 C3.93 12.93, 2.6 11.6, 1.75 10.75 M1.75 10.75 C0 9, 0 9, 1.75 6.75 M1.75 10.75 C0 9, 0 9, 1.75 6.75 M1.75 6.75 C2.7 5.53, 3.65 4.3, 5.25 2.25 M1.75 6.75 C2.54 5.74, 3.33 4.72, 5.25 2.25 M5.25 2.25 C7 0, 7 0, 8.5 2.25 M5.25 2.25 C7 0, 7 0, 8.5 2.25" stroke="#495057" stroke-width="1" fill="none"></path></g><g stroke-linecap="round" transform="translate(359 208) rotate(0 6.5 8)"><path d="M8.5 2.25 M8.5 2.25 C9.38 3.58, 10.27 4.9, 11.5 6.75 M8.5 2.25 C9.33 3.49, 10.16 4.74, 11.5 6.75 M11.5 6.75 C13 9, 13 9, 11.5 10.75 M11.5 6.75 C13 9, 13 9, 11.5 10.75 M11.5 10.75 C10.39 12.05, 9.28 13.34, 8.5 14.25 M11.5 10.75 C10.58 11.82, 9.67 12.89, 8.5 14.25 M8.5 14.25 C7 16, 7 16, 5.25 14.25 M8.5 14.25 C7 16, 7 16, 5.25 14.25 M5.25 14.25 C4.11 13.11, 2.97 11.97, 1.75 10.75 M5.25 14.25 C4.04 13.04, 2.83 11.83, 1.75 10.75 M1.75 10.75 C0 9, 0 9, 1.75 6.75 M1.75 10.75 C0 9, 0 9, 1.75 6.75 M1.75 6.75 C2.92 5.25, 4.08 3.75, 5.25 2.25 M1.75 6.75 C2.52 5.76, 3.29 4.77, 5.25 2.25 M5.25 2.25 C7 0, 7 0, 8.5 2.25 M5.25 2.25 C7 0, 7 0, 8.5 2.25" stroke="#495057" stroke-width="1" fill="none"></path></g><g stroke-linecap="round" transform="translate(369 244) rotate(0 6.5 8)"><path d="M8.5 2.25 M8.5 2.25 C9.17 3.25, 9.83 4.25, 11.5 6.75 M8.5 2.25 C9.12 3.19, 9.75 4.12, 11.5 6.75 M11.5 6.75 C13 9, 13 9, 11.5 10.75 M11.5 6.75 C13 9, 13 9, 11.5 10.75 M11.5 10.75 C10.73 11.65, 9.96 12.54, 8.5 14.25 M11.5 10.75 C10.61 11.79, 9.72 12.83, 8.5 14.25 M8.5 14.25 C7 16, 7 16, 5.25 14.25 M8.5 14.25 C7 16, 7 16, 5.25 14.25 M5.25 14.25 C3.94 12.94, 2.63 11.63, 1.75 10.75 M5.25 14.25 C3.99 12.99, 2.74 11.74, 1.75 10.75 M1.75 10.75 C0 9, 0 9, 1.75 6.75 M1.75 10.75 C0 9, 0 9, 1.75 6.75 M1.75 6.75 C2.47 5.83, 3.18 4.91, 5.25 2.25 M1.75 6.75 C2.82 5.37, 3.89 3.99, 5.25 2.25 M5.25 2.25 C7 0, 7 0, 8.5 2.25 M5.25 2.25 C7 0, 7 0, 8.5 2.25" stroke="#495057" stroke-width="1" fill="none"></path></g><g stroke-linecap="round" transform="translate(290 138) rotate(0 6.5 8)"><path d="M8.5 2.25 M8.5 2.25 C9.49 3.73, 10.48 5.22, 11.5 6.75 M8.5 2.25 C9.18 3.27, 9.86 4.28, 11.5 6.75 M11.5 6.75 C13 9, 13 9, 11.5 10.75 M11.5 6.75 C13 9, 13 9, 11.5 10.75 M11.5 10.75 C10.45 11.98, 9.39 13.21, 8.5 14.25 M11.5 10.75 C10.74 11.63, 9.98 12.52, 8.5 14.25 M8.5 14.25 C7 16, 7 16, 5.25 14.25 M8.5 14.25 C7 16, 7 16, 5.25 14.25 M5.25 14.25 C4.21 13.21, 3.16 12.16, 1.75 10.75 M5.25 14.25 C3.95 12.95, 2.64 11.64, 1.75 10.75 M1.75 10.75 C0 9, 0 9, 1.75 6.75 M1.75 10.75 C0 9, 0 9, 1.75 6.75 M1.75 6.75 C2.68 5.55, 3.62 4.35, 5.25 2.25 M1.75 6.75 C2.88 5.3, 4 3.85, 5.25 2.25 M5.25 2.25 C7 0, 7 0, 8.5 2.25 M5.25 2.25 C7 0, 7 0, 8.5 2.25" stroke="#495057" stroke-width="1" fill="none"></path></g><g stroke-linecap="round" transform="translate(310 169) rotate(0 6.5 8)"><path d="M8.5 2.25 M8.5 2.25 C9.36 3.54, 10.22 4.83, 11.5 6.75 M8.5 2.25 C9.2 3.3, 9.9 4.34, 11.5 6.75 M11.5 6.75 C13 9, 13 9, 11.5 10.75 M11.5 6.75 C13 9, 13 9, 11.5 10.75 M11.5 10.75 C10.48 11.94, 9.46 13.13, 8.5 14.25 M11.5 10.75 C10.65 11.74, 9.8 12.74, 8.5 14.25 M8.5 14.25 C7 16, 7 16, 5.25 14.25 M8.5 14.25 C7 16, 7 16, 5.25 14.25 M5.25 14.25 C4.28 13.28, 3.31 12.31, 1.75 10.75 M5.25 14.25 C3.93 12.93, 2.62 11.62, 1.75 10.75 M1.75 10.75 C0 9, 0 9, 1.75 6.75 M1.75 10.75 C0 9, 0 9, 1.75 6.75 M1.75 6.75 C2.67 5.57, 3.58 4.4, 5.25 2.25 M1.75 6.75 C2.61 5.65, 3.47 4.54, 5.25 2.25 M5.25 2.25 C7 0, 7 0, 8.5 2.25 M5.25 2.25 C7 0, 7 0, 8.5 2.25" stroke="#495057" stroke-width="1" fill="none"></path></g><g stroke-linecap="round" transform="translate(316 201) rotate(0 6.5 8)"><path d="M8.5 2.25 M8.5 2.25 C9.43 3.64, 10.36 5.04, 11.5 6.75 M8.5 2.25 C9.29 3.43, 10.08 4.62, 11.5 6.75 M11.5 6.75 C13 9, 13 9, 11.5 10.75 M11.5 6.75 C13 9, 13 9, 11.5 10.75 M11.5 10.75 C10.3 12.15, 9.1 13.55, 8.5 14.25 M11.5 10.75 C10.31 12.14, 9.12 13.53, 8.5 14.25 M8.5 14.25 C7 16, 7 16, 5.25 14.25 M8.5 14.25 C7 16, 7 16, 5.25 14.25 M5.25 14.25 C4.09 13.09, 2.94 11.94, 1.75 10.75 M5.25 14.25 C4.02 13.02, 2.79 11.79, 1.75 10.75 M1.75 10.75 C0 9, 0 9, 1.75 6.75 M1.75 10.75 C0 9, 0 9, 1.75 6.75 M1.75 6.75 C3.13 4.97, 4.51 3.2, 5.25 2.25 M1.75 6.75 C2.8 5.4, 3.84 4.06, 5.25 2.25 M5.25 2.25 C7 0, 7 0, 8.5 2.25 M5.25 2.25 C7 0, 7 0, 8.5 2.25" stroke="#495057" stroke-width="1" fill="none"></path></g><g stroke-linecap="round" transform="translate(335 250) rotate(0 6.5 8)"><path d="M8.5 2.25 M8.5 2.25 C9.44 3.66, 10.38 5.07, 11.5 6.75 M8.5 2.25 C9.29 3.44, 10.09 4.63, 11.5 6.75 M11.5 6.75 C13 9, 13 9, 11.5 10.75 M11.5 6.75 C13 9, 13 9, 11.5 10.75 M11.5 10.75 C10.46 11.96, 9.43 13.17, 8.5 14.25 M11.5 10.75 C10.7 11.69, 9.9 12.62, 8.5 14.25 M8.5 14.25 C7 16, 7 16, 5.25 14.25 M8.5 14.25 C7 16, 7 16, 5.25 14.25 M5.25 14.25 C3.93 12.93, 2.6 11.6, 1.75 10.75 M5.25 14.25 C4.03 13.03, 2.82 11.82, 1.75 10.75 M1.75 10.75 C0 9, 0 9, 1.75 6.75 M1.75 10.75 C0 9, 0 9, 1.75 6.75 M1.75 6.75 C2.6 5.66, 3.44 4.58, 5.25 2.25 M1.75 6.75 C2.93 5.23, 4.11 3.71, 5.25 2.25 M5.25 2.25 C7 0, 7 0, 8.5 2.25 M5.25 2.25 C7 0, 7 0, 8.5 2.25" stroke="#495057" stroke-width="1" fill="none"></path></g><g stroke-linecap="round" transform="translate(351 290) rotate(0 6.5 8)"><path d="M8.5 2.25 M8.5 2.25 C9.57 3.86, 10.64 5.47, 11.5 6.75 M8.5 2.25 C9.44 3.66, 10.38 5.07, 11.5 6.75 M11.5 6.75 C13 9, 13 9, 11.5 10.75 M11.5 6.75 C13 9, 13 9, 11.5 10.75 M11.5 10.75 C10.47 11.95, 9.44 13.16, 8.5 14.25 M11.5 10.75 C10.6 11.8, 9.71 12.84, 8.5 14.25 M8.5 14.25 C7 16, 7 16, 5.25 14.25 M8.5 14.25 C7 16, 7 16, 5.25 14.25 M5.25 14.25 C3.93 12.93, 2.6 11.6, 1.75 10.75 M5.25 14.25 C4.38 13.38, 3.51 12.51, 1.75 10.75 M1.75 10.75 C0 9, 0 9, 1.75 6.75 M1.75 10.75 C0 9, 0 9, 1.75 6.75 M1.75 6.75 C2.54 5.74, 3.33 4.72, 5.25 2.25 M1.75 6.75 C2.82 5.38, 3.88 4.01, 5.25 2.25 M5.25 2.25 C7 0, 7 0, 8.5 2.25 M5.25 2.25 C7 0, 7 0, 8.5 2.25" stroke="#495057" stroke-width="1" fill="none"></path></g><g stroke-linecap="round" transform="translate(367 331) rotate(0 6.5 8)"><path d="M8.5 2.25 M8.5 2.25 C9.33 3.49, 10.16 4.74, 11.5 6.75 M8.5 2.25 C9.17 3.26, 9.85 4.27, 11.5 6.75 M11.5 6.75 C13 9, 13 9, 11.5 10.75 M11.5 6.75 C13 9, 13 9, 11.5 10.75 M11.5 10.75 C10.58 11.82, 9.67 12.89, 8.5 14.25 M11.5 10.75 C10.39 12.05, 9.27 13.35, 8.5 14.25 M8.5 14.25 C7 16, 7 16, 5.25 14.25 M8.5 14.25 C7 16, 7 16, 5.25 14.25 M5.25 14.25 C4.04 13.04, 2.83 11.83, 1.75 10.75 M5.25 14.25 C4.46 13.46, 3.68 12.68, 1.75 10.75 M1.75 10.75 C0 9, 0 9, 1.75 6.75 M1.75 10.75 C0 9, 0 9, 1.75 6.75 M1.75 6.75 C2.52 5.76, 3.29 4.77, 5.25 2.25 M1.75 6.75 C3.11 5, 4.48 3.24, 5.25 2.25 M5.25 2.25 C7 0, 7 0, 8.5 2.25 M5.25 2.25 C7 0, 7 0, 8.5 2.25" stroke="#495057" stroke-width="1" fill="none"></path></g><g stroke-linecap="round" transform="translate(298 10) rotate(0 6.5 8)"><path d="M8.5 2.25 M8.5 2.25 C9.12 3.19, 9.75 4.12, 11.5 6.75 M8.5 2.25 C9.42 3.62, 10.33 5, 11.5 6.75 M11.5 6.75 C13 9, 13 9, 11.5 10.75 M11.5 6.75 C13 9, 13 9, 11.5 10.75 M11.5 10.75 C10.61 11.79, 9.72 12.83, 8.5 14.25 M11.5 10.75 C10.77 11.6, 10.04 12.45, 8.5 14.25 M8.5 14.25 C7 16, 7 16, 5.25 14.25 M8.5 14.25 C7 16, 7 16, 5.25 14.25 M5.25 14.25 C3.99 12.99, 2.74 11.74, 1.75 10.75 M5.25 14.25 C4.24 13.24, 3.24 12.24, 1.75 10.75 M1.75 10.75 C0 9, 0 9, 1.75 6.75 M1.75 10.75 C0 9, 0 9, 1.75 6.75 M1.75 6.75 C2.82 5.37, 3.89 3.99, 5.25 2.25 M1.75 6.75 C2.68 5.55, 3.61 4.36, 5.25 2.25 M5.25 2.25 C7 0, 7 0, 8.5 2.25 M5.25 2.25 C7 0, 7 0, 8.5 2.25" stroke="#495057" stroke-width="1" fill="none"></path></g><g stroke-linecap="round" transform="translate(336 15) rotate(0 6.5 8)"><path d="M8.5 2.25 M8.5 2.25 C9.18 3.27, 9.86 4.28, 11.5 6.75 M8.5 2.25 C9.53 3.79, 10.56 5.34, 11.5 6.75 M11.5 6.75 C13 9, 13 9, 11.5 10.75 M11.5 6.75 C13 9, 13 9, 11.5 10.75 M11.5 10.75 C10.74 11.63, 9.98 12.52, 8.5 14.25 M11.5 10.75 C10.58 11.82, 9.67 12.89, 8.5 14.25 M8.5 14.25 C7 16, 7 16, 5.25 14.25 M8.5 14.25 C7 16, 7 16, 5.25 14.25 M5.25 14.25 C3.95 12.95, 2.64 11.64, 1.75 10.75 M5.25 14.25 C4.47 13.47, 3.7 12.7, 1.75 10.75 M1.75 10.75 C0 9, 0 9, 1.75 6.75 M1.75 10.75 C0 9, 0 9, 1.75 6.75 M1.75 6.75 C2.88 5.3, 4 3.85, 5.25 2.25 M1.75 6.75 C2.96 5.2, 4.17 3.64, 5.25 2.25 M5.25 2.25 C7 0, 7 0, 8.5 2.25 M5.25 2.25 C7 0, 7 0, 8.5 2.25" stroke="#495057" stroke-width="1" fill="none"></path></g><g stroke-linecap="round" transform="translate(309 37) rotate(0 6.5 8)"><path d="M8.5 2.25 M8.5 2.25 C9.2 3.3, 9.9 4.34, 11.5 6.75 M8.5 2.25 C9.52 3.78, 10.55 5.32, 11.5 6.75 M11.5 6.75 C13 9, 13 9, 11.5 10.75 M11.5 6.75 C13 9, 13 9, 11.5 10.75 M11.5 10.75 C10.65 11.74, 9.8 12.74, 8.5 14.25 M11.5 10.75 C10.85 11.51, 10.19 12.28, 8.5 14.25 M8.5 14.25 C7 16, 7 16, 5.25 14.25 M8.5 14.25 C7 16, 7 16, 5.25 14.25 M5.25 14.25 C3.93 12.93, 2.62 11.62, 1.75 10.75 M5.25 14.25 C4.16 13.16, 3.08 12.08, 1.75 10.75 M1.75 10.75 C0 9, 0 9, 1.75 6.75 M1.75 10.75 C0 9, 0 9, 1.75 6.75 M1.75 6.75 C2.61 5.65, 3.47 4.54, 5.25 2.25 M1.75 6.75 C2.67 5.57, 3.58 4.39, 5.25 2.25 M5.25 2.25 C7 0, 7 0, 8.5 2.25 M5.25 2.25 C7 0, 7 0, 8.5 2.25" stroke="#495057" stroke-width="1" fill="none"></path></g><g stroke-linecap="round" transform="translate(356 36) rotate(0 6.5 8)"><path d="M8.5 2.25 M8.5 2.25 C9.29 3.43, 10.08 4.62, 11.5 6.75 M8.5 2.25 C9.67 4, 10.83 5.75, 11.5 6.75 M11.5 6.75 C13 9, 13 9, 11.5 10.75 M11.5 6.75 C13 9, 13 9, 11.5 10.75 M11.5 10.75 C10.31 12.14, 9.12 13.53, 8.5 14.25 M11.5 10.75 C10.32 12.13, 9.14 13.5, 8.5 14.25 M8.5 14.25 C7 16, 7 16, 5.25 14.25 M8.5 14.25 C7 16, 7 16, 5.25 14.25 M5.25 14.25 C4.02 13.02, 2.79 11.79, 1.75 10.75 M5.25 14.25 C4.41 13.41, 3.56 12.56, 1.75 10.75 M1.75 10.75 C0 9, 0 9, 1.75 6.75 M1.75 10.75 C0 9, 0 9, 1.75 6.75 M1.75 6.75 C2.8 5.4, 3.84 4.06, 5.25 2.25 M1.75 6.75 C2.83 5.36, 3.91 3.97, 5.25 2.25 M5.25 2.25 C7 0, 7 0, 8.5 2.25 M5.25 2.25 C7 0, 7 0, 8.5 2.25" stroke="#495057" stroke-width="1" fill="none"></path></g><g stroke-linecap="round" transform="translate(350 61) rotate(0 6.5 8)"><path d="M8.5 2.25 M8.5 2.25 C9.29 3.44, 10.09 4.63, 11.5 6.75 M8.5 2.25 C9.32 3.49, 10.15 4.72, 11.5 6.75 M11.5 6.75 C13 9, 13 9, 11.5 10.75 M11.5 6.75 C13 9, 13 9, 11.5 10.75 M11.5 10.75 C10.7 11.69, 9.9 12.62, 8.5 14.25 M11.5 10.75 C10.64 11.75, 9.79 12.75, 8.5 14.25 M8.5 14.25 C7 16, 7 16, 5.25 14.25 M8.5 14.25 C7 16, 7 16, 5.25 14.25 M5.25 14.25 C4.03 13.03, 2.82 11.82, 1.75 10.75 M5.25 14.25 C3.97 12.97, 2.7 11.7, 1.75 10.75 M1.75 10.75 C0 9, 0 9, 1.75 6.75 M1.75 10.75 C0 9, 0 9, 1.75 6.75 M1.75 6.75 C2.93 5.23, 4.11 3.71, 5.25 2.25 M1.75 6.75 C2.79 5.41, 3.83 4.08, 5.25 2.25 M5.25 2.25 C7 0, 7 0, 8.5 2.25 M5.25 2.25 C7 0, 7 0, 8.5 2.25" stroke="#495057" stroke-width="1" fill="none"></path></g><g stroke-linecap="round" transform="translate(336 81) rotate(0 6.5 8)"><path d="M8.5 2.25 M8.5 2.25 C9.44 3.66, 10.38 5.07, 11.5 6.75 M8.5 2.25 C9.38 3.57, 10.25 4.88, 11.5 6.75 M11.5 6.75 C13 9, 13 9, 11.5 10.75 M11.5 6.75 C13 9, 13 9, 11.5 10.75 M11.5 10.75 C10.6 11.8, 9.71 12.84, 8.5 14.25 M11.5 10.75 C10.32 12.13, 9.14 13.5, 8.5 14.25 M8.5 14.25 C7 16, 7 16, 5.25 14.25 M8.5 14.25 C7 16, 7 16, 5.25 14.25 M5.25 14.25 C4.38 13.38, 3.51 12.51, 1.75 10.75 M5.25 14.25 C4.22 13.22, 3.18 12.18, 1.75 10.75 M1.75 10.75 C0 9, 0 9, 1.75 6.75 M1.75 10.75 C0 9, 0 9, 1.75 6.75 M1.75 6.75 C2.82 5.38, 3.88 4.01, 5.25 2.25 M1.75 6.75 C3.05 5.07, 4.36 3.4, 5.25 2.25 M5.25 2.25 C7 0, 7 0, 8.5 2.25 M5.25 2.25 C7 0, 7 0, 8.5 2.25" stroke="#495057" stroke-width="1" fill="none"></path></g><g stroke-linecap="round" transform="translate(357 91) rotate(0 6.5 8)"><path d="M8.5 2.25 M8.5 2.25 C9.17 3.26, 9.85 4.27, 11.5 6.75 M8.5 2.25 C9.36 3.54, 10.22 4.83, 11.5 6.75 M11.5 6.75 C13 9, 13 9, 11.5 10.75 M11.5 6.75 C13 9, 13 9, 11.5 10.75 M11.5 10.75 C10.39 12.05, 9.27 13.35, 8.5 14.25 M11.5 10.75 C10.43 12, 9.35 13.25, 8.5 14.25 M8.5 14.25 C7 16, 7 16, 5.25 14.25 M8.5 14.25 C7 16, 7 16, 5.25 14.25 M5.25 14.25 C4.46 13.46, 3.68 12.68, 1.75 10.75 M5.25 14.25 C4.3 13.3, 3.35 12.35, 1.75 10.75 M1.75 10.75 C0 9, 0 9, 1.75 6.75 M1.75 10.75 C0 9, 0 9, 1.75 6.75 M1.75 6.75 C3.11 5, 4.48 3.24, 5.25 2.25 M1.75 6.75 C2.72 5.5, 3.69 4.25, 5.25 2.25 M5.25 2.25 C7 0, 7 0, 8.5 2.25 M5.25 2.25 C7 0, 7 0, 8.5 2.25" stroke="#495057" stroke-width="1" fill="none"></path></g><g stroke-linecap="round" transform="translate(374 109) rotate(0 6.5 8)"><path d="M8.5 2.25 M8.5 2.25 C9.42 3.62, 10.33 5, 11.5 6.75 M8.5 2.25 C9.61 3.92, 10.72 5.58, 11.5 6.75 M11.5 6.75 C13 9, 13 9, 11.5 10.75 M11.5 6.75 C13 9, 13 9, 11.5 10.75 M11.5 10.75 C10.77 11.6, 10.04 12.45, 8.5 14.25 M11.5 10.75 C10.52 11.89, 9.55 13.03, 8.5 14.25 M8.5 14.25 C7 16, 7 16, 5.25 14.25 M8.5 14.25 C7 16, 7 16, 5.25 14.25 M5.25 14.25 C4.24 13.24, 3.24 12.24, 1.75 10.75 M5.25 14.25 C4.08 13.08, 2.92 11.92, 1.75 10.75 M1.75 10.75 C0 9, 0 9, 1.75 6.75 M1.75 10.75 C0 9, 0 9, 1.75 6.75 M1.75 6.75 C2.68 5.55, 3.61 4.36, 5.25 2.25 M1.75 6.75 C2.59 5.67, 3.43 4.59, 5.25 2.25 M5.25 2.25 C7 0, 7 0, 8.5 2.25 M5.25 2.25 C7 0, 7 0, 8.5 2.25" stroke="#495057" stroke-width="1" fill="none"></path></g><g stroke-linecap="round" transform="translate(363 134) rotate(0 6.5 8)"><path d="M8.5 2.25 M8.5 2.25 C9.53 3.79, 10.56 5.34, 11.5 6.75 M8.5 2.25 C9.27 3.4, 10.04 4.55, 11.5 6.75 M11.5 6.75 C13 9, 13 9, 11.5 10.75 M11.5 6.75 C13 9, 13 9, 11.5 10.75 M11.5 10.75 C10.58 11.82, 9.67 12.89, 8.5 14.25 M11.5 10.75 C10.38 12.06, 9.25 13.37, 8.5 14.25 M8.5 14.25 C7 16, 7 16, 5.25 14.25 M8.5 14.25 C7 16, 7 16, 5.25 14.25 M5.25 14.25 C4.47 13.47, 3.7 12.7, 1.75 10.75 M5.25 14.25 C4.53 13.53, 3.82 12.82, 1.75 10.75 M1.75 10.75 C0 9, 0 9, 1.75 6.75 M1.75 10.75 C0 9, 0 9, 1.75 6.75 M1.75 6.75 C2.96 5.2, 4.17 3.64, 5.25 2.25 M1.75 6.75 C3.09 5.02, 4.44 3.3, 5.25 2.25 M5.25 2.25 C7 0, 7 0, 8.5 2.25 M5.25 2.25 C7 0, 7 0, 8.5 2.25" stroke="#495057" stroke-width="1" fill="none"></path></g><g stroke-linecap="round" transform="translate(349 172) rotate(0 6.5 8)"><path d="M8.5 2.25 M8.5 2.25 C9.52 3.78, 10.55 5.32, 11.5 6.75 M8.5 2.25 C9.55 3.83, 10.61 5.41, 11.5 6.75 M11.5 6.75 C13 9, 13 9, 11.5 10.75 M11.5 6.75 C13 9, 13 9, 11.5 10.75 M11.5 10.75 C10.85 11.51, 10.19 12.28, 8.5 14.25 M11.5 10.75 C10.6 11.79, 9.71 12.84, 8.5 14.25 M8.5 14.25 C7 16, 7 16, 5.25 14.25 M8.5 14.25 C7 16, 7 16, 5.25 14.25 M5.25 14.25 C4.16 13.16, 3.08 12.08, 1.75 10.75 M5.25 14.25 C4.32 13.32, 3.38 12.38, 1.75 10.75 M1.75 10.75 C0 9, 0 9, 1.75 6.75 M1.75 10.75 C0 9, 0 9, 1.75 6.75 M1.75 6.75 C2.67 5.57, 3.58 4.39, 5.25 2.25 M1.75 6.75 C2.63 5.62, 3.51 4.49, 5.25 2.25 M5.25 2.25 C7 0, 7 0, 8.5 2.25 M5.25 2.25 C7 0, 7 0, 8.5 2.25" stroke="#495057" stroke-width="1" fill="none"></path></g><g stroke-linecap="round" transform="translate(337 205) rotate(0 6.5 8)"><path d="M8.5 2.25 M8.5 2.25 C9.67 4, 10.83 5.75, 11.5 6.75 M8.5 2.25 C9.52 3.78, 10.54 5.31, 11.5 6.75 M11.5 6.75 C13 9, 13 9, 11.5 10.75 M11.5 6.75 C13 9, 13 9, 11.5 10.75 M11.5 10.75 C10.32 12.13, 9.14 13.5, 8.5 14.25 M11.5 10.75 C10.67 11.72, 9.84 12.69, 8.5 14.25 M8.5 14.25 C7 16, 7 16, 5.25 14.25 M8.5 14.25 C7 16, 7 16, 5.25 14.25 M5.25 14.25 C4.41 13.41, 3.56 12.56, 1.75 10.75 M5.25 14.25 C4.33 13.33, 3.42 12.42, 1.75 10.75 M1.75 10.75 C0 9, 0 9, 1.75 6.75 M1.75 10.75 C0 9, 0 9, 1.75 6.75 M1.75 6.75 C2.83 5.36, 3.91 3.97, 5.25 2.25 M1.75 6.75 C2.62 5.63, 3.49 4.52, 5.25 2.25 M5.25 2.25 C7 0, 7 0, 8.5 2.25 M5.25 2.25 C7 0, 7 0, 8.5 2.25" stroke="#495057" stroke-width="1" fill="none"></path></g><g stroke-linecap="round" transform="translate(323 239) rotate(0 6.5 8)"><path d="M8.5 2.25 M8.5 2.25 C9.32 3.49, 10.15 4.72, 11.5 6.75 M8.5 2.25 C9.7 4.05, 10.9 5.85, 11.5 6.75 M11.5 6.75 C13 9, 13 9, 11.5 10.75 M11.5 6.75 C13 9, 13 9, 11.5 10.75 M11.5 10.75 C10.64 11.75, 9.79 12.75, 8.5 14.25 M11.5 10.75 C10.51 11.91, 9.52 13.06, 8.5 14.25 M8.5 14.25 C7 16, 7 16, 5.25 14.25 M8.5 14.25 C7 16, 7 16, 5.25 14.25 M5.25 14.25 C3.97 12.97, 2.7 11.7, 1.75 10.75 M5.25 14.25 C3.87 12.87, 2.49 11.49, 1.75 10.75 M1.75 10.75 C0 9, 0 9, 1.75 6.75 M1.75 10.75 C0 9, 0 9, 1.75 6.75 M1.75 6.75 C2.79 5.41, 3.83 4.08, 5.25 2.25 M1.75 6.75 C2.48 5.81, 3.21 4.87, 5.25 2.25 M5.25 2.25 C7 0, 7 0, 8.5 2.25 M5.25 2.25 C7 0, 7 0, 8.5 2.25" stroke="#495057" stroke-width="1" fill="none"></path></g><g stroke-linecap="round" transform="translate(314 278) rotate(0 6.5 8)"><path d="M8.5 2.25 M8.5 2.25 C9.38 3.57, 10.25 4.88, 11.5 6.75 M8.5 2.25 C9.54 3.8, 10.57 5.36, 11.5 6.75 M11.5 6.75 C13 9, 13 9, 11.5 10.75 M11.5 6.75 C13 9, 13 9, 11.5 10.75 M11.5 10.75 C10.32 12.13, 9.14 13.5, 8.5 14.25 M11.5 10.75 C10.37 12.07, 9.23 13.4, 8.5 14.25 M8.5 14.25 C7 16, 7 16, 5.25 14.25 M8.5 14.25 C7 16, 7 16, 5.25 14.25 M5.25 14.25 C4.22 13.22, 3.18 12.18, 1.75 10.75 M5.25 14.25 C4.4 13.4, 3.56 12.56, 1.75 10.75 M1.75 10.75 C0 9, 0 9, 1.75 6.75 M1.75 10.75 C0 9, 0 9, 1.75 6.75 M1.75 6.75 C3.05 5.07, 4.36 3.4, 5.25 2.25 M1.75 6.75 C2.9 5.27, 4.05 3.79, 5.25 2.25 M5.25 2.25 C7 0, 7 0, 8.5 2.25 M5.25 2.25 C7 0, 7 0, 8.5 2.25" stroke="#495057" stroke-width="1" fill="none"></path></g><g stroke-linecap="round" transform="translate(303 309) rotate(0 6.5 8)"><path d="M8.5 2.25 M8.5 2.25 C9.36 3.54, 10.22 4.83, 11.5 6.75 M8.5 2.25 C9.53 3.8, 10.56 5.35, 11.5 6.75 M11.5 6.75 C13 9, 13 9, 11.5 10.75 M11.5 6.75 C13 9, 13 9, 11.5 10.75 M11.5 10.75 C10.43 12, 9.35 13.25, 8.5 14.25 M11.5 10.75 C10.37 12.07, 9.23 13.4, 8.5 14.25 M8.5 14.25 C7 16, 7 16, 5.25 14.25 M8.5 14.25 C7 16, 7 16, 5.25 14.25 M5.25 14.25 C4.3 13.3, 3.35 12.35, 1.75 10.75 M5.25 14.25 C4.46 13.46, 3.67 12.67, 1.75 10.75 M1.75 10.75 C0 9, 0 9, 1.75 6.75 M1.75 10.75 C0 9, 0 9, 1.75 6.75 M1.75 6.75 C2.72 5.5, 3.69 4.25, 5.25 2.25 M1.75 6.75 C2.45 5.85, 3.16 4.94, 5.25 2.25 M5.25 2.25 C7 0, 7 0, 8.5 2.25 M5.25 2.25 C7 0, 7 0, 8.5 2.25" stroke="#495057" stroke-width="1" fill="none"></path></g><g stroke-linecap="round" transform="translate(293 333) rotate(0 6.5 8)"><path d="M8.5 2.25 M8.5 2.25 C9.61 3.92, 10.72 5.58, 11.5 6.75 M8.5 2.25 C9.42 3.62, 10.33 5, 11.5 6.75 M11.5 6.75 C13 9, 13 9, 11.5 10.75 M11.5 6.75 C13 9, 13 9, 11.5 10.75 M11.5 10.75 C10.52 11.89, 9.55 13.03, 8.5 14.25 M11.5 10.75 C10.46 11.96, 9.42 13.17, 8.5 14.25 M8.5 14.25 C7 16, 7 16, 5.25 14.25 M8.5 14.25 C7 16, 7 16, 5.25 14.25 M5.25 14.25 C4.08 13.08, 2.92 11.92, 1.75 10.75 M5.25 14.25 C4.48 13.48, 3.71 12.71, 1.75 10.75 M1.75 10.75 C0 9, 0 9, 1.75 6.75 M1.75 10.75 C0 9, 0 9, 1.75 6.75 M1.75 6.75 C2.59 5.67, 3.43 4.59, 5.25 2.25 M1.75 6.75 C2.74 5.47, 3.73 4.2, 5.25 2.25 M5.25 2.25 C7 0, 7 0, 8.5 2.25 M5.25 2.25 C7 0, 7 0, 8.5 2.25" stroke="#495057" stroke-width="1" fill="none"></path></g><g stroke-linecap="round" transform="translate(282 228) rotate(0 6.5 8)"><path d="M8.5 2.25 M8.5 2.25 C9.27 3.4, 10.04 4.55, 11.5 6.75 M8.5 2.25 C9.39 3.59, 10.28 4.92, 11.5 6.75 M11.5 6.75 C13 9, 13 9, 11.5 10.75 M11.5 6.75 C13 9, 13 9, 11.5 10.75 M11.5 10.75 C10.38 12.06, 9.25 13.37, 8.5 14.25 M11.5 10.75 C10.42 12.01, 9.35 13.26, 8.5 14.25 M8.5 14.25 C7 16, 7 16, 5.25 14.25 M8.5 14.25 C7 16, 7 16, 5.25 14.25 M5.25 14.25 C4.53 13.53, 3.82 12.82, 1.75 10.75 M5.25 14.25 C4.18 13.18, 3.11 12.11, 1.75 10.75 M1.75 10.75 C0 9, 0 9, 1.75 6.75 M1.75 10.75 C0 9, 0 9, 1.75 6.75 M1.75 6.75 C3.09 5.02, 4.44 3.3, 5.25 2.25 M1.75 6.75 C2.55 5.72, 3.34 4.7, 5.25 2.25 M5.25 2.25 C7 0, 7 0, 8.5 2.25 M5.25 2.25 C7 0, 7 0, 8.5 2.25" stroke="#495057" stroke-width="1" fill="none"></path></g><g stroke-linecap="round" transform="translate(295 206) rotate(0 6.5 8)"><path d="M8.5 2.25 M8.5 2.25 C9.55 3.83, 10.61 5.41, 11.5 6.75 M8.5 2.25 C9.26 3.39, 10.02 4.52, 11.5 6.75 M11.5 6.75 C13 9, 13 9, 11.5 10.75 M11.5 6.75 C13 9, 13 9, 11.5 10.75 M11.5 10.75 C10.6 11.79, 9.71 12.84, 8.5 14.25 M11.5 10.75 C10.38 12.05, 9.26 13.36, 8.5 14.25 M8.5 14.25 C7 16, 7 16, 5.25 14.25 M8.5 14.25 C7 16, 7 16, 5.25 14.25 M5.25 14.25 C4.32 13.32, 3.38 12.38, 1.75 10.75 M5.25 14.25 C4.12 13.12, 3 12, 1.75 10.75 M1.75 10.75 C0 9, 0 9, 1.75 6.75 M1.75 10.75 C0 9, 0 9, 1.75 6.75 M1.75 6.75 C2.63 5.62, 3.51 4.49, 5.25 2.25 M1.75 6.75 C2.96 5.19, 4.18 3.63, 5.25 2.25 M5.25 2.25 C7 0, 7 0, 8.5 2.25 M5.25 2.25 C7 0, 7 0, 8.5 2.25" stroke="#495057" stroke-width="1" fill="none"></path></g><g stroke-linecap="round" transform="translate(274 253) rotate(0 6.5 8)"><path d="M8.5 2.25 M8.5 2.25 C9.52 3.78, 10.54 5.31, 11.5 6.75 M8.5 2.25 C9.35 3.53, 10.2 4.81, 11.5 6.75 M11.5 6.75 C13 9, 13 9, 11.5 10.75 M11.5 6.75 C13 9, 13 9, 11.5 10.75 M11.5 10.75 C10.67 11.72, 9.84 12.69, 8.5 14.25 M11.5 10.75 C10.37 12.07, 9.24 13.38, 8.5 14.25 M8.5 14.25 C7 16, 7 16, 5.25 14.25 M8.5 14.25 C7 16, 7 16, 5.25 14.25 M5.25 14.25 C4.33 13.33, 3.42 12.42, 1.75 10.75 M5.25 14.25 C4.39 13.39, 3.53 12.53, 1.75 10.75 M1.75 10.75 C0 9, 0 9, 1.75 6.75 M1.75 10.75 C0 9, 0 9, 1.75 6.75 M1.75 6.75 C2.62 5.63, 3.49 4.52, 5.25 2.25 M1.75 6.75 C2.54 5.73, 3.34 4.71, 5.25 2.25 M5.25 2.25 C7 0, 7 0, 8.5 2.25 M5.25 2.25 C7 0, 7 0, 8.5 2.25" stroke="#495057" stroke-width="1" fill="none"></path></g><g stroke-linecap="round" transform="translate(283 357) rotate(0 6.5 8)"><path d="M8.5 2.25 M8.5 2.25 C9.7 4.05, 10.9 5.85, 11.5 6.75 M8.5 2.25 C9.69 4.04, 10.88 5.82, 11.5 6.75 M11.5 6.75 C13 9, 13 9, 11.5 10.75 M11.5 6.75 C13 9, 13 9, 11.5 10.75 M11.5 10.75 C10.51 11.91, 9.52 13.06, 8.5 14.25 M11.5 10.75 C10.45 11.98, 9.39 13.21, 8.5 14.25 M8.5 14.25 C7 16, 7 16, 5.25 14.25 M8.5 14.25 C7 16, 7 16, 5.25 14.25 M5.25 14.25 C3.87 12.87, 2.49 11.49, 1.75 10.75 M5.25 14.25 C4.2 13.2, 3.16 12.16, 1.75 10.75 M1.75 10.75 C0 9, 0 9, 1.75 6.75 M1.75 10.75 C0 9, 0 9, 1.75 6.75 M1.75 6.75 C2.48 5.81, 3.21 4.87, 5.25 2.25 M1.75 6.75 C2.82 5.38, 3.88 4.01, 5.25 2.25 M5.25 2.25 C7 0, 7 0, 8.5 2.25 M5.25 2.25 C7 0, 7 0, 8.5 2.25" stroke="#495057" stroke-width="1" fill="none"></path></g><g stroke-linecap="round" transform="translate(357 311) rotate(0 6.5 8)"><path d="M8.5 2.25 M8.5 2.25 C9.54 3.8, 10.57 5.36, 11.5 6.75 M8.5 2.25 C9.3 3.45, 10.1 4.66, 11.5 6.75 M11.5 6.75 C13 9, 13 9, 11.5 10.75 M11.5 6.75 C13 9, 13 9, 11.5 10.75 M11.5 10.75 C10.37 12.07, 9.23 13.4, 8.5 14.25 M11.5 10.75 C10.46 11.97, 9.42 13.18, 8.5 14.25 M8.5 14.25 C7 16, 7 16, 5.25 14.25 M8.5 14.25 C7 16, 7 16, 5.25 14.25 M5.25 14.25 C4.4 13.4, 3.56 12.56, 1.75 10.75 M5.25 14.25 C4.07 13.07, 2.89 11.89, 1.75 10.75 M1.75 10.75 C0 9, 0 9, 1.75 6.75 M1.75 10.75 C0 9, 0 9, 1.75 6.75 M1.75 6.75 C2.9 5.27, 4.05 3.79, 5.25 2.25 M1.75 6.75 C2.79 5.41, 3.83 4.08, 5.25 2.25 M5.25 2.25 C7 0, 7 0, 8.5 2.25 M5.25 2.25 C7 0, 7 0, 8.5 2.25" stroke="#495057" stroke-width="1" fill="none"></path></g><g stroke-linecap="round" transform="translate(373 359) rotate(0 6.5 8)"><path d="M8.5 2.25 M8.5 2.25 C9.53 3.8, 10.56 5.35, 11.5 6.75 M8.5 2.25 C9.4 3.59, 10.29 4.94, 11.5 6.75 M11.5 6.75 C13 9, 13 9, 11.5 10.75 M11.5 6.75 C13 9, 13 9, 11.5 10.75 M11.5 10.75 C10.37 12.07, 9.23 13.4, 8.5 14.25 M11.5 10.75 C10.75 11.62, 10 12.49, 8.5 14.25 M8.5 14.25 C7 16, 7 16, 5.25 14.25 M8.5 14.25 C7 16, 7 16, 5.25 14.25 M5.25 14.25 C4.46 13.46, 3.67 12.67, 1.75 10.75 M5.25 14.25 C4.18 13.18, 3.12 12.12, 1.75 10.75 M1.75 10.75 C0 9, 0 9, 1.75 6.75 M1.75 10.75 C0 9, 0 9, 1.75 6.75 M1.75 6.75 C2.45 5.85, 3.16 4.94, 5.25 2.25 M1.75 6.75 C2.68 5.55, 3.62 4.35, 5.25 2.25 M5.25 2.25 C7 0, 7 0, 8.5 2.25 M5.25 2.25 C7 0, 7 0, 8.5 2.25" stroke="#495057" stroke-width="1" fill="none"></path></g><g stroke-linecap="round" transform="translate(377 261) rotate(0 6.5 8)"><path d="M8.5 2.25 M8.5 2.25 C9.42 3.62, 10.33 5, 11.5 6.75 M8.5 2.25 C9.61 3.92, 10.73 5.59, 11.5 6.75 M11.5 6.75 C13 9, 13 9, 11.5 10.75 M11.5 6.75 C13 9, 13 9, 11.5 10.75 M11.5 10.75 C10.46 11.96, 9.42 13.17, 8.5 14.25 M11.5 10.75 C10.83 11.54, 10.15 12.32, 8.5 14.25 M8.5 14.25 C7 16, 7 16, 5.25 14.25 M8.5 14.25 C7 16, 7 16, 5.25 14.25 M5.25 14.25 C4.48 13.48, 3.71 12.71, 1.75 10.75 M5.25 14.25 C3.89 12.89, 2.52 11.52, 1.75 10.75 M1.75 10.75 C0 9, 0 9, 1.75 6.75 M1.75 10.75 C0 9, 0 9, 1.75 6.75 M1.75 6.75 C2.74 5.47, 3.73 4.2, 5.25 2.25 M1.75 6.75 C2.88 5.29, 4.02 3.84, 5.25 2.25 M5.25 2.25 C7 0, 7 0, 8.5 2.25 M5.25 2.25 C7 0, 7 0, 8.5 2.25" stroke="#495057" stroke-width="1" fill="none"></path></g><g stroke-linecap="round" transform="translate(361 225) rotate(0 6.5 8)"><path d="M8.5 2.25 M8.5 2.25 C9.39 3.59, 10.28 4.92, 11.5 6.75 M8.5 2.25 C9.23 3.35, 9.96 4.44, 11.5 6.75 M11.5 6.75 C13 9, 13 9, 11.5 10.75 M11.5 6.75 C13 9, 13 9, 11.5 10.75 M11.5 10.75 C10.42 12.01, 9.35 13.26, 8.5 14.25 M11.5 10.75 C10.64 11.76, 9.78 12.76, 8.5 14.25 M8.5 14.25 C7 16, 7 16, 5.25 14.25 M8.5 14.25 C7 16, 7 16, 5.25 14.25 M5.25 14.25 C4.18 13.18, 3.11 12.11, 1.75 10.75 M5.25 14.25 C4.32 13.32, 3.39 12.39, 1.75 10.75 M1.75 10.75 C0 9, 0 9, 1.75 6.75 M1.75 10.75 C0 9, 0 9, 1.75 6.75 M1.75 6.75 C2.55 5.72, 3.34 4.7, 5.25 2.25 M1.75 6.75 C2.61 5.64, 3.47 4.53, 5.25 2.25 M5.25 2.25 C7 0, 7 0, 8.5 2.25 M5.25 2.25 C7 0, 7 0, 8.5 2.25" stroke="#495057" stroke-width="1" fill="none"></path></g><g stroke-linecap="round" transform="translate(235 48) rotate(0 6.5 8)"><path d="M8.5 2.25 M8.5 2.25 C9.35 3.53, 10.2 4.81, 11.5 6.75 M8.5 2.25 C9.15 3.23, 9.81 4.21, 11.5 6.75 M11.5 6.75 C13 9, 13 9, 11.5 10.75 M11.5 6.75 C13 9, 13 9, 11.5 10.75 M11.5 10.75 C10.37 12.07, 9.24 13.38, 8.5 14.25 M11.5 10.75 C10.57 11.84, 9.64 12.92, 8.5 14.25 M8.5 14.25 C7 16, 7 16, 5.25 14.25 M8.5 14.25 C7 16, 7 16, 5.25 14.25 M5.25 14.25 C4.39 13.39, 3.53 12.53, 1.75 10.75 M5.25 14.25 C4.33 13.33, 3.42 12.42, 1.75 10.75 M1.75 10.75 C0 9, 0 9, 1.75 6.75 M1.75 10.75 C0 9, 0 9, 1.75 6.75 M1.75 6.75 C2.54 5.73, 3.34 4.71, 5.25 2.25 M1.75 6.75 C2.9 5.27, 4.05 3.79, 5.25 2.25 M5.25 2.25 C7 0, 7 0, 8.5 2.25 M5.25 2.25 C7 0, 7 0, 8.5 2.25" stroke="#495057" stroke-width="1" fill="none"></path></g><g stroke-linecap="round" transform="translate(255 44) rotate(0 6.5 8)"><path d="M8.5 2.25 M8.5 2.25 C9.69 4.04, 10.88 5.82, 11.5 6.75 M8.5 2.25 C9.68 4.02, 10.86 5.79, 11.5 6.75 M11.5 6.75 C13 9, 13 9, 11.5 10.75 M11.5 6.75 C13 9, 13 9, 11.5 10.75 M11.5 10.75 C10.45 11.98, 9.39 13.21, 8.5 14.25 M11.5 10.75 C10.78 11.59, 10.05 12.44, 8.5 14.25 M8.5 14.25 C7 16, 7 16, 5.25 14.25 M8.5 14.25 C7 16, 7 16, 5.25 14.25 M5.25 14.25 C4.2 13.2, 3.16 12.16, 1.75 10.75 M5.25 14.25 C4.17 13.17, 3.09 12.09, 1.75 10.75 M1.75 10.75 C0 9, 0 9, 1.75 6.75 M1.75 10.75 C0 9, 0 9, 1.75 6.75 M1.75 6.75 C2.82 5.38, 3.88 4.01, 5.25 2.25 M1.75 6.75 C2.7 5.52, 3.66 4.3, 5.25 2.25 M5.25 2.25 C7 0, 7 0, 8.5 2.25 M5.25 2.25 C7 0, 7 0, 8.5 2.25" stroke="#495057" stroke-width="1" fill="none"></path></g><g stroke-linecap="round" transform="translate(415 61) rotate(0 6.5 8)"><path d="M8.5 2.25 M8.5 2.25 C9.6 3.89, 10.69 5.54, 11.5 6.75 M8.5 2.25 C9.64 3.96, 10.78 5.66, 11.5 6.75 M11.5 6.75 C13 9, 13 9, 11.5 10.75 M11.5 6.75 C13 9, 13 9, 11.5 10.75 M11.5 10.75 C10.53 11.88, 9.56 13.01, 8.5 14.25 M11.5 10.75 C10.34 12.11, 9.17 13.47, 8.5 14.25 M8.5 14.25 C7 16, 7 16, 5.25 14.25 M8.5 14.25 C7 16, 7 16, 5.25 14.25 M5.25 14.25 C4.52 13.52, 3.79 12.79, 1.75 10.75 M5.25 14.25 C4.31 13.31, 3.36 12.36, 1.75 10.75 M1.75 10.75 C0 9, 0 9, 1.75 6.75 M1.75 10.75 C0 9, 0 9, 1.75 6.75 M1.75 6.75 C2.56 5.7, 3.38 4.65, 5.25 2.25 M1.75 6.75 C3.06 5.06, 4.38 3.37, 5.25 2.25 M5.25 2.25 C7 0, 7 0, 8.5 2.25 M5.25 2.25 C7 0, 7 0, 8.5 2.25" stroke="#495057" stroke-width="1" fill="none"></path></g><g stroke-linecap="round" transform="translate(398 38) rotate(0 6.5 8)"><path d="M8.5 2.25 M8.5 2.25 C9.28 3.43, 10.07 4.6, 11.5 6.75 M8.5 2.25 C9.53 3.8, 10.56 5.35, 11.5 6.75 M11.5 6.75 C13 9, 13 9, 11.5 10.75 M11.5 6.75 C13 9, 13 9, 11.5 10.75 M11.5 10.75 C10.49 11.93, 9.48 13.1, 8.5 14.25 M11.5 10.75 C10.71 11.67, 9.92 12.6, 8.5 14.25 M8.5 14.25 C7 16, 7 16, 5.25 14.25 M8.5 14.25 C7 16, 7 16, 5.25 14.25 M5.25 14.25 C3.91 12.91, 2.56 11.56, 1.75 10.75 M5.25 14.25 C4.37 13.37, 3.49 12.49, 1.75 10.75 M1.75 10.75 C0 9, 0 9, 1.75 6.75 M1.75 10.75 C0 9, 0 9, 1.75 6.75 M1.75 6.75 C2.77 5.44, 3.78 4.13, 5.25 2.25 M1.75 6.75 C2.54 5.74, 3.33 4.72, 5.25 2.25 M5.25 2.25 C7 0, 7 0, 8.5 2.25 M5.25 2.25 C7 0, 7 0, 8.5 2.25" stroke="#495057" stroke-width="1" fill="none"></path></g><g stroke-linecap="round" transform="translate(452 30) rotate(0 6.5 8)"><path d="M8.5 2.25 M8.5 2.25 C9.53 3.79, 10.56 5.34, 11.5 6.75 M8.5 2.25 C9.5 3.75, 10.5 5.25, 11.5 6.75 M11.5 6.75 C13 9, 13 9, 11.5 10.75 M11.5 6.75 C13 9, 13 9, 11.5 10.75 M11.5 10.75 C10.44 11.99, 9.38 13.22, 8.5 14.25 M11.5 10.75 C10.31 12.14, 9.12 13.53, 8.5 14.25 M8.5 14.25 C7 16, 7 16, 5.25 14.25 M8.5 14.25 C7 16, 7 16, 5.25 14.25 M5.25 14.25 C4.39 13.39, 3.53 12.53, 1.75 10.75 M5.25 14.25 C4.14 13.14, 3.02 12.02, 1.75 10.75 M1.75 10.75 C0 9, 0 9, 1.75 6.75 M1.75 10.75 C0 9, 0 9, 1.75 6.75 M1.75 6.75 C2.53 5.75, 3.31 4.75, 5.25 2.25 M1.75 6.75 C2.53 5.75, 3.3 4.75, 5.25 2.25 M5.25 2.25 C7 0, 7 0, 8.5 2.25 M5.25 2.25 C7 0, 7 0, 8.5 2.25" stroke="#495057" stroke-width="1" fill="none"></path></g><g stroke-linecap="round" transform="translate(255 67) rotate(0 6.5 8)"><path d="M8.5 2.25 M8.5 2.25 C9.18 3.27, 9.86 4.28, 11.5 6.75 M8.5 2.25 C9.33 3.49, 10.16 4.74, 11.5 6.75 M11.5 6.75 C13 9, 13 9, 11.5 10.75 M11.5 6.75 C13 9, 13 9, 11.5 10.75 M11.5 10.75 C10.58 11.82, 9.66 12.9, 8.5 14.25 M11.5 10.75 C10.51 11.9, 9.52 13.06, 8.5 14.25 M8.5 14.25 C7 16, 7 16, 5.25 14.25 M8.5 14.25 C7 16, 7 16, 5.25 14.25 M5.25 14.25 C4.4 13.4, 3.55 12.55, 1.75 10.75 M5.25 14.25 C4.08 13.08, 2.91 11.91, 1.75 10.75 M1.75 10.75 C0 9, 0 9, 1.75 6.75 M1.75 10.75 C0 9, 0 9, 1.75 6.75 M1.75 6.75 C2.68 5.55, 3.62 4.35, 5.25 2.25 M1.75 6.75 C2.8 5.4, 3.85 4.06, 5.25 2.25 M5.25 2.25 C7 0, 7 0, 8.5 2.25 M5.25 2.25 C7 0, 7 0, 8.5 2.25" stroke="#495057" stroke-width="1" fill="none"></path></g></svg>